<svg width="27" height="21" viewBox="0 0 27 21" fill="none" xmlns="http://www.w3.org/2000/svg">
<path d="M8.71236 18.8413C9.10416 18.4289 9.45471 17.9134 9.74341 17.3257L11.8158 12.2736L8.91857 5.22119H8.60925C8.11435 5.22119 7.68131 5.31399 7.32044 5.48926C6.93896 5.67485 6.59871 5.90168 6.31001 6.18007C6.02132 6.45845 5.76356 6.77807 5.55735 7.11832C5.34083 7.46888 5.17586 7.80912 5.04183 8.11844C4.82531 8.64427 4.58816 9.22166 4.30978 9.89184C4.05202 10.5208 3.77364 11.2013 3.47463 11.9127C3.17563 12.6344 2.87662 13.3459 2.58793 14.016C2.28892 14.7171 2.00023 15.3976 1.73216 16.0369C1.16508 17.3876 0.587698 18.7589 0 20.1302H5.40269C6.16567 20.1302 6.81523 20.0167 7.34106 19.7899C7.8669 19.5734 8.32056 19.2538 8.71236 18.8413Z" fill="#006719"/>
<path d="M21.148 12.0567C21.2202 11.9433 21.2305 11.8196 21.2099 11.7061C21.1789 11.5927 21.1171 11.4793 21.0037 11.4175C20.7871 11.2834 20.4984 11.3453 20.3541 11.5618C20.2201 11.7783 20.2819 12.067 20.4984 12.2114C20.7253 12.3454 21.014 12.2732 21.148 12.0567Z" fill="#BED429"/>
<path d="M19.0119 8.27326C19.0841 8.15984 19.0944 8.03612 19.0738 7.9227C19.0428 7.80928 18.981 7.69587 18.8676 7.63401C18.651 7.49997 18.3623 7.56183 18.218 7.77835C18.084 7.99487 18.1458 8.28357 18.3623 8.42791C18.5789 8.56195 18.8676 8.50009 19.0119 8.27326Z" fill="#BED429"/>
<path d="M18.0832 13.1806L15.7324 12.263C15.619 12.4073 15.485 12.5207 15.32 12.5826C15.0726 12.6857 14.7942 12.7063 14.5261 12.6032C13.99 12.397 13.7219 11.7887 13.9281 11.2525C14.1343 10.7164 14.7426 10.4483 15.2788 10.6648C15.7221 10.8401 15.9799 11.2835 15.9387 11.7268L17.7842 12.4485L16.1964 8.50994L14.6395 7.75728C14.3405 8.09752 13.8353 8.21094 13.4126 8.00473C12.8971 7.75728 12.6805 7.12834 12.928 6.61281C13.1754 6.09729 13.8044 5.88077 14.3199 6.12822C14.5777 6.25195 14.7633 6.46847 14.8457 6.72623C14.9076 6.8912 14.9179 7.06647 14.887 7.24175L15.8768 7.72635L14.7839 5.025C14.6086 5.04562 14.4333 5.01469 14.2684 4.94251C14.0209 4.83941 13.8147 4.6332 13.7116 4.37544C13.4951 3.83929 13.7631 3.23097 14.2993 3.02476C14.8354 2.80824 15.4437 3.07632 15.65 3.61246C15.8252 4.05581 15.6706 4.54041 15.32 4.81879L17.2584 9.62347L17.8255 8.72646C17.7017 8.59243 17.6296 8.43777 17.5883 8.26249C17.5265 8.00473 17.5677 7.71603 17.7224 7.47889C18.0317 6.9943 18.6709 6.84995 19.1555 7.14896C19.6401 7.45827 19.7845 8.09752 19.4855 8.58212C19.238 8.98422 18.7534 9.14919 18.3101 9.02547L17.5265 10.273L19.0318 14.0054L19.9804 12.5104C19.8566 12.3764 19.7845 12.2217 19.7432 12.0464C19.6814 11.7887 19.7226 11.5 19.8773 11.2628C20.1866 10.7782 20.8258 10.6339 21.3104 10.9329C21.795 11.2422 21.9394 11.8815 21.6404 12.3661C21.3929 12.7682 20.9083 12.9331 20.465 12.8094L19.2999 14.655L20.7227 18.1915H26.2182C25.4759 16.4387 24.7541 14.7272 24.0427 13.0466C23.7437 12.3351 23.4344 11.5928 23.1044 10.8195C22.7745 10.0462 22.4446 9.27292 22.1249 8.50994C21.8053 7.74697 21.496 7.00461 21.2073 6.29319C20.9186 5.58176 20.6505 4.9322 20.4031 4.3342C20.2587 3.97333 20.0525 3.58153 19.8051 3.16911C19.5576 2.75669 19.2586 2.38551 18.8978 2.04527C18.5472 1.70502 18.1348 1.42664 17.6605 1.19981C17.1862 0.972978 16.6501 0.869873 16.0418 0.869873H6.31897V1.06577C6.59735 1.06577 6.88605 1.17919 7.18505 1.39571C7.48405 1.62254 7.77275 1.89061 8.05113 2.22055C8.32951 2.55048 8.58728 2.91135 8.83473 3.29284C9.07187 3.68464 9.28839 4.03519 9.46367 4.34451L13.7734 14.82C14.124 15.5211 14.5261 16.1191 15.0004 16.614C15.4747 17.1089 16.0211 17.4904 16.6604 17.7688C17.2996 18.0368 18.0626 18.1812 18.9699 18.1812H20.1041L18.0832 13.1806Z" fill="#BED429"/>
<path d="M14.0853 6.64355C13.8481 6.53013 13.5698 6.63324 13.4563 6.86007C13.4048 6.97348 13.3945 7.10752 13.4357 7.22094C13.477 7.33435 13.5595 7.43746 13.6729 7.48901C13.91 7.60242 14.1884 7.49932 14.3018 7.27249C14.4152 7.04566 14.3121 6.75696 14.0853 6.64355Z" fill="#BED429"/>
<path d="M15.0848 11.2009C14.9611 11.1493 14.8374 11.1596 14.7239 11.2112C14.6105 11.2627 14.5177 11.3452 14.4765 11.469C14.3837 11.7061 14.5074 11.9845 14.7446 12.0773C14.9817 12.1701 15.2601 12.0463 15.3529 11.8092C15.4457 11.5721 15.3219 11.304 15.0848 11.2009Z" fill="#BED429"/>
<path d="M14.8902 3.56081C14.7768 3.50926 14.6531 3.50926 14.5293 3.5505C14.2922 3.6433 14.1685 3.92168 14.2613 4.15882C14.3541 4.39596 14.6325 4.51969 14.8696 4.42689C15.1067 4.3341 15.2305 4.05572 15.1377 3.81857C15.0861 3.69485 14.9933 3.60205 14.8902 3.56081Z" fill="#BED429"/>
</svg>
