<svg width="171" height="28" viewBox="0 0 171 28" fill="none" xmlns="http://www.w3.org/2000/svg">
<path d="M57.5362 22.0463L57.5751 22.0203C57.6141 21.9944 57.6401 21.9684 57.6531 21.9164C57.679 21.8385 57.692 21.7606 57.692 21.6826V8.59029C57.692 8.49937 57.679 8.43443 57.6531 8.36949C57.6271 8.31753 57.6011 8.27857 57.5362 8.22662L57.4972 8.20064C57.4712 8.17466 57.4323 8.14868 57.3933 8.14868C57.2764 8.12271 57.2115 8.12271 57.1725 8.12271H55.445C55.2762 8.12271 55.1983 8.1357 55.1723 8.1357C55.1593 8.1357 55.1463 8.14868 55.1463 8.14868C55.1463 8.14868 55.1073 8.18765 55.0684 8.29156C55.0164 8.40845 54.9645 8.56431 54.8865 8.74615L54.315 10.5515L53.8604 9.90212C53.6656 9.62937 53.4448 9.35661 53.185 9.12282C52.9253 8.88903 52.6395 8.68121 52.3278 8.51236C52.0161 8.34351 51.6524 8.20064 51.2757 8.10972C50.8991 8.00581 50.4705 7.95386 50.0289 7.95386C49.0287 7.95386 48.0806 8.1357 47.2104 8.51236C46.3401 8.87604 45.5738 9.39558 44.9244 10.045C44.275 10.6944 43.7684 11.4607 43.3918 12.344C43.0151 13.2142 42.8333 14.1753 42.8333 15.2014C42.8333 15.8768 42.9242 16.5392 43.093 17.1497C43.2619 17.7731 43.5086 18.3576 43.8204 18.8901C44.1321 19.4227 44.5088 19.9162 44.9374 20.3578C45.366 20.7994 45.8596 21.1761 46.3921 21.4878C46.9246 21.7995 47.4961 22.0463 48.1066 22.2152C48.717 22.384 49.3664 22.4749 50.0289 22.4749C50.3925 22.4749 50.7432 22.436 51.0809 22.3451C51.4186 22.2541 51.7433 22.1372 52.0421 21.9944C52.3408 21.8515 52.6136 21.6826 52.8603 21.4878C53.1071 21.293 53.3409 21.0982 53.5357 20.9033L54.0033 20.4358L54.328 21.5787C54.367 21.7086 54.4189 21.8125 54.4579 21.9294C54.4839 22.0074 54.5229 22.0593 54.5488 22.1113C54.5748 22.1372 54.6008 22.1632 54.6398 22.1762C54.6657 22.1892 54.7437 22.2152 54.8865 22.2152H57.1855C57.2244 22.2152 57.3024 22.2152 57.4063 22.1892C57.4453 22.1762 57.4842 22.1632 57.5102 22.1372L57.5362 22.0463ZM53.7435 16.76C53.5357 17.2536 53.25 17.6822 52.8863 18.0459C52.5226 18.4096 52.094 18.6953 51.6005 18.9031C51.1069 19.1109 50.5744 19.2148 50.0029 19.2148C49.4444 19.2148 48.9248 19.1109 48.4572 18.8901C48.0027 18.6823 47.6 18.3836 47.2623 18.0199C46.9376 17.6562 46.6778 17.2276 46.509 16.734C46.3401 16.2535 46.2492 15.7209 46.2492 15.1624C46.2492 14.6299 46.3401 14.0974 46.509 13.6168C46.6778 13.1233 46.9376 12.6817 47.2623 12.305C47.587 11.9283 47.9897 11.6166 48.4572 11.3958C48.9248 11.175 49.4444 11.0581 50.0029 11.0581C50.5744 11.0581 51.1199 11.175 51.6134 11.3828C52.107 11.6036 52.5356 11.9023 52.8993 12.279C53.263 12.6557 53.5487 13.0973 53.7565 13.5908C53.9643 14.0844 54.0683 14.6169 54.0683 15.1624C54.0553 15.7469 53.9514 16.2795 53.7435 16.76Z" fill="#33C152"/>
<path d="M72.9688 23.5009C73.3454 22.6047 73.5273 21.5657 73.5273 20.4227V8.59019C73.5273 8.51226 73.5143 8.44732 73.4883 8.39537C73.4623 8.34341 73.4234 8.29146 73.3844 8.26548C73.3324 8.22652 73.2675 8.18755 73.2026 8.16158C73.1376 8.1356 73.0727 8.12261 73.0077 8.12261H71.2803C71.1374 8.12261 71.0725 8.1356 71.0465 8.14859C70.9945 8.17456 70.9685 8.18755 70.9556 8.20054C70.9296 8.23951 70.8906 8.29146 70.8776 8.3564C70.8387 8.46031 70.7997 8.57721 70.7477 8.70709L70.2022 10.4216L69.7476 9.86306C69.5268 9.5903 69.28 9.33054 69.0333 9.08376C68.7865 8.84996 68.5007 8.64215 68.202 8.4733C67.9033 8.30445 67.5656 8.16158 67.2019 8.05767C66.8382 7.95376 66.4356 7.91479 65.994 7.91479C65.0068 7.91479 64.0847 8.09663 63.2404 8.4733C62.3962 8.83697 61.6688 9.35651 61.0584 10.0059C60.4479 10.6554 59.9543 11.4217 59.6166 12.2919C59.266 13.1621 59.0971 14.1233 59.0971 15.1364C59.0971 16.1495 59.266 17.0846 59.6166 17.9289C59.9543 18.7601 60.4479 19.5005 61.0454 20.098C61.6558 20.6954 62.3962 21.176 63.2274 21.5137C64.0717 21.8514 64.9939 22.0202 65.994 22.0202C66.4226 22.0202 66.7993 21.9683 67.124 21.8644C67.4487 21.7605 67.7344 21.6306 67.9942 21.4617C68.254 21.2929 68.4878 21.0981 68.7086 20.8903C68.9294 20.6694 69.1632 20.4227 69.384 20.1889L70.0594 19.4745V20.6175C70.0594 20.6305 70.0594 20.6305 70.0594 20.6435C70.0723 20.6824 70.0723 20.7344 70.0723 20.7863V20.9422C70.0723 21.15 70.0594 21.3578 70.0464 21.5527C70.0334 21.7605 69.9814 21.9683 69.9295 22.1501C69.8126 22.5528 69.6177 22.9035 69.319 23.2152C69.0463 23.5009 68.7215 23.7607 68.3579 23.9555C67.9942 24.1504 67.6045 24.3062 67.2019 24.4101C66.7993 24.514 66.3966 24.566 66.0199 24.566C65.7991 24.566 65.5524 24.553 65.2926 24.54C65.0069 24.514 64.7211 24.4751 64.4354 24.3971C64.1496 24.3322 63.8639 24.2283 63.5911 24.1114C63.3054 23.9815 63.0586 23.8127 62.8378 23.6048C62.578 23.423 62.4741 23.41 62.4481 23.41C62.4092 23.41 62.3832 23.423 62.3572 23.436C62.3182 23.462 62.2403 23.5139 62.1494 23.6178L61.0584 25.1245C60.9674 25.2674 60.9155 25.3972 60.9155 25.5141C60.9155 25.5921 60.9285 25.67 60.9804 25.7349C61.0324 25.8259 61.0973 25.8908 61.1753 25.9557L61.2012 25.9817C61.513 26.2545 61.8896 26.5142 62.3053 26.7221C62.7339 26.9429 63.1755 27.1247 63.6301 27.2546C64.0847 27.3975 64.5523 27.5014 65.0068 27.5793C65.4614 27.6442 65.903 27.6832 66.2927 27.6832C67.3188 27.6832 68.2929 27.5144 69.1761 27.1896C70.0594 26.8649 70.8387 26.3974 71.4751 25.7869C72.0726 25.1505 72.5921 24.3971 72.9688 23.5009ZM70.2931 15.3572C70.2672 15.8897 70.1373 16.3962 69.9295 16.8638C69.7087 17.3184 69.4229 17.7341 69.0592 18.0718C68.6956 18.4095 68.2669 18.6822 67.7864 18.877C67.3058 19.0719 66.7863 19.1628 66.2408 19.1628C65.6822 19.1628 65.1627 19.0589 64.7081 18.8511C64.2405 18.6433 63.8509 18.3575 63.5132 17.9938C63.1885 17.6302 62.9287 17.2015 62.7599 16.708C62.591 16.2274 62.5001 15.6949 62.5001 15.1364C62.5001 14.6038 62.591 14.0713 62.7599 13.5907C62.9287 13.0972 63.1885 12.6556 63.5132 12.2919C63.8379 11.9152 64.2405 11.6165 64.6951 11.3957C65.1627 11.1749 65.6822 11.058 66.2408 11.058C66.7863 11.058 67.3058 11.1619 67.7994 11.3697C68.2799 11.5775 68.7086 11.8633 69.0592 12.214C69.4099 12.5647 69.7087 12.9803 69.9295 13.4479C70.1503 13.9155 70.2672 14.409 70.2931 14.9415V14.9545V15.3572Z" fill="#33C152"/>
<path d="M87.0227 9.72058C87.0227 9.60368 86.9188 9.48679 86.711 9.36989L86.6721 9.34391C86.3344 9.09713 86.0226 8.88932 85.7499 8.70748C85.4771 8.53863 85.2044 8.39576 84.9316 8.27886C84.6588 8.17495 84.3731 8.08404 84.0744 8.03208C83.7756 7.98013 83.412 7.94116 83.0223 7.94116C82.6716 7.94116 82.3599 7.99312 82.0871 8.09702C81.8014 8.20093 81.2299 8.51265 80.9961 8.69449C80.1129 9.39587 79.5284 10.331 79.5284 10.331C79.5284 10.331 78.9309 8.72047 78.853 8.56461C78.7881 8.43472 78.7231 8.31783 78.6322 8.2399C78.6192 8.22691 78.5673 8.17495 78.4374 8.17495H76.6839C76.619 8.17495 76.5411 8.18794 76.4631 8.21392C76.3982 8.2399 76.3333 8.26587 76.2813 8.30484C76.2423 8.3438 76.2034 8.38277 76.1774 8.43472C76.1514 8.48668 76.1384 8.56461 76.1384 8.64254V21.644C76.1384 22.0206 76.2683 22.1505 76.658 22.1505H79.2686C79.4765 22.1505 79.6323 22.1116 79.6973 22.0466C79.7882 21.9557 79.8012 21.7739 79.8012 21.644V13.1236L79.8531 13.0326C80.022 12.7599 80.1908 12.5131 80.3597 12.2793C80.5415 12.0455 80.7363 11.8247 80.9442 11.6559C81.165 11.474 81.4117 11.3311 81.6845 11.2272C81.9572 11.1233 82.269 11.0714 82.6197 11.0714C83.1132 11.0714 83.5678 11.1623 83.9575 11.3441C84.3211 11.513 84.6848 11.7598 85.0355 12.0975C85.1524 12.1494 85.2563 12.1624 85.3472 12.1624C85.4641 12.1624 85.62 12.1364 85.8018 11.8896L86.8539 10.0972C87.0098 9.90242 87.0227 9.77253 87.0227 9.72058Z" fill="#33C152"/>
<path d="M99.5305 20.3318C99.9591 19.9032 100.349 19.4097 100.661 18.8771C100.972 18.3446 101.219 17.7601 101.388 17.1367C101.557 16.5132 101.648 15.8638 101.648 15.1884C101.648 14.1753 101.453 13.2142 101.076 12.344C100.699 11.4737 100.18 10.6944 99.5305 10.045C98.8811 9.39557 98.1148 8.88903 97.2316 8.51236C96.3613 8.14868 95.4132 7.95386 94.4131 7.95386C93.7377 7.95386 93.0882 8.04478 92.4648 8.21363C91.8414 8.38248 91.2569 8.62926 90.7243 8.92799C90.1918 9.23971 89.6983 9.61638 89.2696 10.045C88.828 10.4866 88.4514 10.9672 88.1396 11.4997C87.8279 12.0322 87.5811 12.6167 87.4123 13.2402C87.2434 13.8636 87.1525 14.513 87.1525 15.1884C87.1525 15.8638 87.2434 16.5132 87.4123 17.1367C87.5811 17.7601 87.8279 18.3446 88.1396 18.8771C88.4514 19.4097 88.828 19.9032 89.2696 20.3318C89.6983 20.7735 90.1918 21.1501 90.7243 21.4618C91.2569 21.7736 91.8414 22.0203 92.4648 22.1892C93.0882 22.358 93.7377 22.449 94.4131 22.449C95.0755 22.449 95.7249 22.358 96.3354 22.1892C96.9458 22.0203 97.5303 21.7736 98.0628 21.4618C98.6083 21.1371 99.1019 20.7605 99.5305 20.3318ZM97.803 16.734C97.6342 17.2276 97.3874 17.6562 97.0757 18.0199C96.764 18.3836 96.3613 18.6823 95.9067 18.8901C95.4521 19.0979 94.9326 19.2148 94.3741 19.2148C93.8026 19.2148 93.2701 19.1109 92.8155 18.8901C92.3479 18.6823 91.9583 18.3836 91.6335 18.0199C91.3088 17.6562 91.062 17.2276 90.8802 16.734C90.7114 16.2535 90.6204 15.7209 90.6204 15.1624C90.6204 14.6299 90.7114 14.0974 90.8802 13.6168C91.0491 13.1233 91.3088 12.6817 91.6205 12.305C91.9453 11.9283 92.3479 11.6166 92.8025 11.3958C93.2701 11.175 93.7896 11.0581 94.3741 11.0581C94.9326 11.0581 95.4521 11.175 95.9067 11.3958C96.3613 11.6166 96.751 11.9283 97.0757 12.305C97.3874 12.6817 97.6342 13.1233 97.7901 13.6168C97.9589 14.1104 98.0368 14.6169 98.0368 15.1624C98.0498 15.7339 97.9719 16.2535 97.803 16.734Z" fill="#33C152"/>
<path d="M110.272 11.3438C110.35 11.2659 110.389 11.123 110.389 10.9022V8.65523C110.389 8.4734 110.35 8.34351 110.272 8.27857C110.22 8.22662 110.129 8.16167 109.935 8.16167H107.947L107.96 4.57686C107.96 4.38204 107.934 4.22617 107.869 4.12227C107.856 4.09629 107.778 4.07031 107.636 4.07031H107.532H107.519L104.908 4.9795C104.661 5.07042 104.466 5.17433 104.337 5.26525C104.311 5.27824 104.259 5.33019 104.259 5.49904L104.246 8.17466H102.661C102.284 8.17466 102.154 8.29156 102.154 8.66822V10.9152C102.154 11.3828 102.336 11.4607 102.661 11.4607H104.246L104.259 21.6567C104.259 22.0333 104.376 22.1632 104.765 22.1632H107.389C107.597 22.1632 107.74 22.1243 107.843 22.0333C107.869 22.0074 107.973 21.9164 107.973 21.6567L107.96 11.4607H109.948C110.129 11.4478 110.22 11.3828 110.272 11.3438Z" fill="#33C152"/>
<path d="M124.363 20.3318C124.792 19.9032 125.181 19.4097 125.493 18.8771C125.805 18.3446 126.051 17.7601 126.22 17.1367C126.389 16.5132 126.48 15.8638 126.48 15.1884C126.48 14.1753 126.285 13.2142 125.909 12.344C125.532 11.4737 125.012 10.6944 124.363 10.045C123.714 9.39557 122.947 8.88903 122.064 8.51236C121.194 8.14868 120.246 7.95386 119.246 7.95386C118.57 7.95386 117.921 8.04478 117.297 8.21363C116.674 8.38248 116.089 8.62926 115.557 8.92799C115.024 9.23971 114.531 9.61638 114.102 10.045C113.66 10.4866 113.284 10.9672 112.972 11.4997C112.66 12.0322 112.414 12.6167 112.245 13.2402C112.076 13.8636 111.985 14.513 111.985 15.1884C111.985 15.8638 112.076 16.5132 112.245 17.1367C112.414 17.7601 112.66 18.3446 112.972 18.8771C113.284 19.4097 113.66 19.9032 114.102 20.3318C114.544 20.7735 115.024 21.1501 115.557 21.4618C116.089 21.7736 116.674 22.0203 117.297 22.1892C117.921 22.358 118.57 22.449 119.246 22.449C119.908 22.449 120.557 22.358 121.168 22.1892C121.778 22.0203 122.363 21.7736 122.895 21.4618C123.441 21.1371 123.921 20.7605 124.363 20.3318ZM122.636 16.734C122.467 17.2276 122.22 17.6562 121.908 18.0199C121.596 18.3836 121.194 18.6823 120.739 18.8901C120.285 19.0979 119.765 19.2148 119.207 19.2148C118.635 19.2148 118.103 19.1109 117.648 18.8901C117.18 18.6823 116.791 18.3836 116.466 18.0199C116.141 17.6562 115.895 17.2276 115.713 16.734C115.544 16.2535 115.453 15.7209 115.453 15.1624C115.453 14.6299 115.544 14.0974 115.713 13.6168C115.882 13.1233 116.141 12.6817 116.453 12.305C116.778 11.9283 117.18 11.6166 117.635 11.3958C118.103 11.175 118.622 11.0581 119.207 11.0581C119.765 11.0581 120.285 11.175 120.739 11.3958C121.194 11.6166 121.583 11.9283 121.908 12.305C122.22 12.6817 122.467 13.1233 122.623 13.6168C122.791 14.1104 122.869 14.6299 122.869 15.1624C122.882 15.7339 122.804 16.2535 122.636 16.734Z" fill="#33C152"/>
<path d="M137.939 21.7219C138.094 21.9427 138.198 22.0466 138.263 22.1115C138.328 22.1635 138.367 22.1635 138.38 22.1635H142.303C142.472 22.1635 142.485 22.0206 142.459 21.9556C142.433 21.9037 142.394 21.8388 142.329 21.7738L136.107 13.7599L141.108 8.47364C141.186 8.38272 141.212 8.34376 141.212 8.33077C141.212 8.33077 141.212 8.31778 141.212 8.2918C141.212 8.23985 141.199 8.22686 141.199 8.22686C141.199 8.22686 141.147 8.1879 140.965 8.1879H137.393C137.224 8.1879 137.094 8.25284 136.964 8.39571L132.094 13.7989V4.18746C132.094 4.1355 132.081 4.08355 132.068 4.01861C132.055 3.97964 132.042 3.95366 132.016 3.9147C131.99 3.88872 131.964 3.86274 131.912 3.83677C131.886 3.82378 131.834 3.81079 131.73 3.81079H128.951C128.717 3.81079 128.6 3.83677 128.548 3.84976C128.483 3.87573 128.457 3.90171 128.457 3.90171C128.444 3.9147 128.444 3.92769 128.431 3.97964C128.418 4.08355 128.418 4.18746 128.418 4.31734V21.7738C128.418 21.7868 128.431 21.8128 128.444 21.8388C128.457 21.8907 128.496 21.9556 128.535 22.0206C128.561 22.0725 128.613 22.1245 128.678 22.1635C128.704 22.1765 128.73 22.2024 128.808 22.2024H131.73C131.808 22.2024 131.873 22.1894 131.899 22.1635C131.951 22.1245 131.99 22.0855 132.029 22.0336C132.068 21.9816 132.081 21.9167 132.094 21.8647C132.107 21.7608 132.12 21.7089 132.12 21.6959V17.7864L133.847 15.994L137.939 21.7219Z" fill="#33C152"/>
<path d="M155.602 15.5C155.615 15.2532 155.615 14.9285 155.615 14.5259C155.615 13.9414 155.537 13.3699 155.368 12.8244C155.199 12.2789 154.965 11.7463 154.667 11.2658C154.368 10.7852 154.004 10.3306 153.588 9.91497C153.173 9.49934 152.705 9.14865 152.212 8.8629C151.705 8.57716 151.173 8.34336 150.601 8.17452C150.03 8.01865 149.445 7.92773 148.835 7.92773C148.172 7.92773 147.536 8.01865 146.938 8.1875C146.341 8.35635 145.782 8.61612 145.263 8.92785C144.756 9.23957 144.289 9.62922 143.873 10.0708C143.457 10.5124 143.107 11.006 142.808 11.5385C142.522 12.071 142.289 12.6425 142.133 13.24C141.977 13.8375 141.899 14.4739 141.899 15.1233C141.899 16.1494 142.094 17.1236 142.496 17.9938C142.886 18.877 143.432 19.6433 144.107 20.2927C144.782 20.9422 145.575 21.4617 146.471 21.8254C147.367 22.189 148.328 22.3839 149.328 22.3839C150.224 22.3839 151.082 22.215 151.887 21.8903C152.692 21.5526 153.433 21.085 154.069 20.4876L154.108 20.4616C154.199 20.3966 154.264 20.3317 154.329 20.2408C154.355 20.2148 154.381 20.1628 154.381 20.0719C154.381 20.02 154.381 19.981 154.355 19.9291C154.355 19.9291 154.342 19.8901 154.264 19.7992L153.043 18.4224C152.939 18.3185 152.835 18.2276 152.757 18.1756C152.718 18.1496 152.692 18.1367 152.666 18.1367C152.627 18.1367 152.601 18.1496 152.575 18.1626C152.523 18.1886 152.445 18.2406 152.329 18.3445C152.173 18.5003 151.952 18.6562 151.705 18.7991C151.458 18.9419 151.186 19.0588 150.887 19.1627C150.601 19.2666 150.289 19.3446 149.978 19.4095C149.666 19.4745 149.341 19.5004 149.043 19.5004C148.705 19.5004 148.341 19.4485 147.964 19.3576C147.575 19.2666 147.198 19.0978 146.86 18.877C146.51 18.6562 146.198 18.3445 145.938 17.9808C145.666 17.6041 145.484 17.1236 145.406 16.578L145.341 16.1234H154.16C154.615 16.1234 154.965 16.0975 155.186 16.0455C155.29 16.0195 155.433 15.9676 155.498 15.8897C155.563 15.8117 155.602 15.6818 155.602 15.5ZM145.315 13.6167L145.575 13.0582C145.704 12.7724 145.886 12.4867 146.107 12.2009C146.328 11.9282 146.562 11.6684 146.834 11.4476C147.107 11.2268 147.406 11.045 147.718 10.9151C148.042 10.7722 148.393 10.7073 148.744 10.7073C149.198 10.7073 149.614 10.7722 149.965 10.8891C150.315 11.006 150.64 11.1878 150.913 11.4086C151.186 11.6165 151.419 11.8762 151.64 12.162C151.835 12.4347 152.03 12.7335 152.199 13.0452L152.51 13.6167H145.315Z" fill="#33C152"/>
<path d="M167.42 22.098C167.42 22.098 167.511 22.1629 167.836 22.1629H170.524C170.628 22.1629 170.771 22.1499 170.836 22.072C170.901 21.9941 170.94 21.8512 170.94 21.6564V14.0451C170.94 13.2009 170.823 12.3956 170.576 11.6553C170.343 10.9149 169.992 10.2655 169.537 9.71999C169.096 9.17448 168.537 8.74586 167.901 8.43414C167.264 8.12241 166.524 7.96655 165.706 7.96655C165.121 7.96655 164.589 8.03149 164.121 8.16138C163.654 8.29126 163.225 8.43414 162.874 8.64195C161.472 9.51218 161.03 10.889 161.03 10.889L160.536 8.82379C160.497 8.71988 160.458 8.61597 160.432 8.52506C160.407 8.46011 160.368 8.39517 160.329 8.34322C160.29 8.30425 160.251 8.26529 160.199 8.23931C160.16 8.21333 160.095 8.20034 160.017 8.20034H158.263C158.185 8.20034 158.108 8.21333 158.017 8.22632C157.978 8.23931 157.926 8.2523 157.887 8.29126L157.9 8.30425C157.848 8.34322 157.809 8.38218 157.77 8.44712C157.731 8.51207 157.718 8.59 157.718 8.66793V21.6694C157.718 21.8382 157.757 21.9681 157.835 22.059C157.9 22.1369 158.056 22.1759 158.263 22.1759H160.887C160.965 22.1759 161.043 22.1629 161.095 22.1499C161.147 22.1369 161.199 22.111 161.264 22.072C161.277 22.059 161.316 22.033 161.342 21.9551C161.381 21.8642 161.394 21.7863 161.394 21.6953V14.1101C161.42 13.7074 161.537 13.3178 161.731 12.9801C161.913 12.6424 162.147 12.3566 162.42 12.0969C162.692 11.8501 163.004 11.6553 163.329 11.5124C164.056 11.2007 164.771 11.2396 165.446 11.5254C165.797 11.6683 166.121 11.8761 166.407 12.1358C166.693 12.3956 166.914 12.6943 167.096 13.032C167.277 13.3827 167.368 13.7594 167.368 14.1491V21.7213C167.368 22.02 167.42 22.098 167.42 22.098Z" fill="#33C152"/>
<path d="M10.9752 22.9553C11.4688 22.4358 11.9104 21.7864 12.2741 21.046L14.8848 14.6817L11.235 5.79761H10.8454C10.2219 5.79761 9.67639 5.9145 9.2218 6.13531C8.74122 6.3691 8.3126 6.65484 7.94893 7.00553C7.58525 7.35622 7.26054 7.75886 7.00077 8.18748C6.72801 8.62909 6.5202 9.05771 6.35135 9.44736C6.07859 10.1098 5.77986 10.8371 5.42917 11.6814C5.10446 12.4737 4.75377 13.3309 4.3771 14.2271C4.00044 15.1363 3.62377 16.0325 3.2601 16.8768C2.88343 17.76 2.51976 18.6172 2.18206 19.4225C1.46769 21.124 0.740341 22.8514 0 24.5789H6.80594C7.76709 24.5789 8.58536 24.436 9.24777 24.1503C9.91018 23.8775 10.4817 23.4749 10.9752 22.9553Z" fill="#006719"/>
<path d="M26.6408 14.4088C26.7317 14.2659 26.7447 14.11 26.7187 13.9672C26.6797 13.8243 26.6018 13.6814 26.4589 13.6035C26.1862 13.4346 25.8225 13.5126 25.6407 13.7853C25.4718 14.0581 25.5497 14.4218 25.8225 14.6036C26.1083 14.7725 26.4719 14.6815 26.6408 14.4088Z" fill="#BED429"/>
<path d="M23.95 9.64267C24.0409 9.49979 24.0539 9.34393 24.0279 9.20106C23.9889 9.05819 23.911 8.91531 23.7681 8.83738C23.4954 8.66853 23.1317 8.74646 22.9499 9.01922C22.781 9.29198 22.859 9.65566 23.1317 9.83749C23.4045 10.0063 23.7681 9.92841 23.95 9.64267Z" fill="#BED429"/>
<path d="M22.7801 15.8249L19.8188 14.6689C19.6759 14.8507 19.5071 14.9936 19.2992 15.0715C18.9875 15.2014 18.6368 15.2274 18.2991 15.0975C17.6237 14.8377 17.286 14.0714 17.5458 13.396C17.8056 12.7206 18.5719 12.3829 19.2473 12.6557C19.8058 12.8765 20.1305 13.435 20.0785 13.9935L22.4035 14.9027L20.4033 9.94109L18.442 8.99293C18.0653 9.42155 17.4289 9.56442 16.8964 9.30465C16.247 8.99293 15.9742 8.20064 16.2859 7.55121C16.5976 6.90179 17.3899 6.62903 18.0394 6.94076C18.3641 7.09662 18.5979 7.36938 18.7018 7.69409C18.7797 7.9019 18.7927 8.12271 18.7537 8.34351L20.0006 8.95397L18.6238 5.55099C18.403 5.57697 18.1822 5.53801 17.9744 5.44709C17.6627 5.3172 17.4029 5.05743 17.273 4.73272C17.0003 4.05732 17.338 3.291 18.0134 3.03124C18.6888 2.75848 19.4551 3.09618 19.7149 3.77158C19.9357 4.33008 19.7408 4.94054 19.2992 5.29122L21.7411 11.3438L22.4554 10.2138C22.2996 10.045 22.2086 9.85017 22.1567 9.62936C22.0788 9.30465 22.1307 8.94098 22.3255 8.64224C22.7152 8.03179 23.5205 7.84995 24.1309 8.22661C24.7414 8.61627 24.9232 9.42155 24.5466 10.032C24.2348 10.5386 23.6244 10.7464 23.0659 10.5905L22.0788 12.1621L23.9751 16.8639L25.17 14.9806C25.0142 14.8118 24.9232 14.6169 24.8713 14.3961C24.7934 14.0714 24.8453 13.7077 25.0401 13.409C25.4298 12.7985 26.2351 12.6167 26.8455 12.9934C27.456 13.383 27.6378 14.1883 27.2612 14.7988C26.9494 15.3053 26.339 15.5131 25.7805 15.3573L24.3128 17.6822L26.1052 22.1372H33.028C32.0929 19.9292 31.1837 17.7731 30.2875 15.656C29.9108 14.7598 29.5211 13.8246 29.1055 12.8505C28.6899 11.8764 28.2743 10.9022 27.8716 9.94109C27.469 8.97994 27.0793 8.04478 26.7156 7.14857C26.352 6.25237 26.0143 5.4341 25.7025 4.68077C25.5207 4.22617 25.2609 3.73261 24.9492 3.21307C24.6375 2.69354 24.2608 2.22595 23.8062 1.79733C23.3646 1.36871 22.8451 1.01803 22.2476 0.732281C21.6501 0.446535 20.9747 0.31665 20.2084 0.31665H7.96033V0.563431C8.31102 0.563431 8.67469 0.706304 9.05136 0.979061C9.42802 1.26481 9.7917 1.60251 10.1424 2.01814C10.4931 2.43377 10.8178 2.88836 11.1295 3.36894C11.4282 3.8625 11.701 4.3041 11.9218 4.69376L17.351 17.89C17.7926 18.7732 18.2991 19.5266 18.8966 20.15C19.4941 20.7735 20.1825 21.254 20.9877 21.6047C21.793 21.9424 22.7542 22.1242 23.8972 22.1242H25.3259L22.7801 15.8249Z" fill="#BED429"/>
<path d="M17.7438 7.58992C17.445 7.44705 17.0943 7.57693 16.9515 7.86268C16.8865 8.00555 16.8735 8.1744 16.9255 8.31728C16.9774 8.46015 17.0813 8.59003 17.2242 8.65497C17.523 8.79785 17.8736 8.66796 18.0165 8.38222C18.1594 8.09647 18.0295 7.7328 17.7438 7.58992Z" fill="#BED429"/>
<path d="M19.0027 13.331C18.8468 13.2661 18.6909 13.2791 18.5481 13.344C18.4052 13.409 18.2883 13.5129 18.2363 13.6687C18.1195 13.9675 18.2753 14.3181 18.574 14.435C18.8728 14.5519 19.2235 14.3961 19.3404 14.0973C19.4573 13.7986 19.3014 13.4609 19.0027 13.331Z" fill="#BED429"/>
<path d="M18.7578 3.70672C18.6149 3.64177 18.459 3.64177 18.3032 3.69373C18.0044 3.81062 17.8486 4.16131 17.9655 4.46005C18.0824 4.75878 18.4331 4.91464 18.7318 4.79775C19.0305 4.68085 19.1864 4.33016 19.0695 4.03143C19.0045 3.87557 18.8877 3.75867 18.7578 3.70672Z" fill="#BED429"/>
</svg>
