<svg width="66" height="67" viewBox="0 0 66 67" fill="none" xmlns="http://www.w3.org/2000/svg">
<path d="M5 33.1685C5 17.7045 17.536 5.16846 33 5.16846V5.16846C48.464 5.16846 61 17.7045 61 33.1685V33.1685C61 48.6324 48.464 61.1685 33 61.1685V61.1685C17.536 61.1685 5 48.6324 5 33.1685V33.1685Z" fill="#CAF2B8"/>
<path d="M19 29.1685C19 23.6456 23.4772 19.1685 29 19.1685H37C42.5228 19.1685 47 23.6456 47 29.1685V37.1685C47 42.6913 42.5228 47.1685 37 47.1685H29C23.4772 47.1685 19 42.6913 19 37.1685V29.1685Z" fill="#CAF2B8"/>
<path d="M39.2821 28.3717L39.5941 28.6334L39.2821 28.3717ZM39.2821 28.3717C39.2821 28.3717 39.2821 28.3717 39.2821 28.3717C39.3525 28.4308 39.4524 28.5146 39.5941 28.6334L39.2821 28.3717ZM31.4026 36.6913L34.6566 33.551C32.7454 35.8356 30.8617 38.0928 30.6463 38.3741L30.6181 38.4108L30.593 38.4497C30.555 38.5083 30.4719 38.5585 30.3825 38.5585C30.2738 38.5585 30.2035 38.512 30.1646 38.4561L27.7389 34.5103L29.7407 36.649L30.5502 37.514L31.4026 36.6913Z" fill="#89D32A" stroke="#5CBD15" stroke-width="2.33333"/>
<path d="M33 56.1685C20.2975 56.1685 10 45.871 10 33.1685H0C0 51.3939 14.7746 66.1685 33 66.1685V56.1685ZM56 33.1685C56 45.871 45.7025 56.1685 33 56.1685V66.1685C51.2254 66.1685 66 51.3939 66 33.1685H56ZM33 10.1685C45.7025 10.1685 56 20.4659 56 33.1685H66C66 14.9431 51.2254 0.168457 33 0.168457V10.1685ZM33 0.168457C14.7746 0.168457 0 14.9431 0 33.1685H10C10 20.4659 20.2975 10.1685 33 10.1685V0.168457Z" fill="#DBF5D4"/>
</svg>
