<svg width="16" height="16" viewBox="0 0 16 16" fill="none" xmlns="http://www.w3.org/2000/svg">
<g clip-path="url(#clip0_2335_23474)">
<path d="M8 16C12.4183 16 16 12.4183 16 8C16 3.58172 12.4183 0 8 0C3.58172 0 0 3.58172 0 8C0 12.4183 3.58172 16 8 16Z" fill="#F0F0F0"/>
<path d="M8.00013 -0.000732422C4.82844 -0.000732422 2.08795 1.84505 0.793945 4.52102H15.2063C13.9123 1.84505 11.1718 -0.000732422 8.00013 -0.000732422Z" fill="#338AF3"/>
<path d="M8.00038 15.999C11.172 15.999 13.9126 14.1533 15.2066 11.4773H0.794189C2.08819 14.1533 4.82869 15.999 8.00038 15.999Z" fill="#338AF3"/>
<path d="M10.3911 7.99993L9.41404 8.45953L9.93432 9.40574L8.87339 9.20278L8.73895 10.2745L7.99998 9.48627L7.26098 10.2745L7.12657 9.20278L6.06564 9.40571L6.58589 8.45949L5.60889 7.99993L6.58592 7.54034L6.06564 6.59415L7.12654 6.79709L7.26101 5.72534L7.99998 6.51359L8.73898 5.72534L8.87339 6.79709L9.93436 6.59415L9.41408 7.54037L10.3911 7.99993Z" fill="#FFDA44"/>
</g>
<defs>
<clipPath id="clip0_2335_23474">
<rect width="16" height="16" fill="white"/>
</clipPath>
</defs>
</svg>
