<?xml version="1.0" encoding="UTF-8"?>
<svg xmlns="http://www.w3.org/2000/svg" xmlns:xlink="http://www.w3.org/1999/xlink" width="30px" height="30px" viewBox="0 0 30 30" version="1.1">
<defs>
<clipPath id="clip1">
  <path d="M 9 12 L 21 12 L 21 21 L 9 21 Z M 9 12 "/>
</clipPath>
<clipPath id="clip2">
  <path d="M 20.984375 15 C 20.984375 18.304688 18.304688 20.984375 15 20.984375 C 11.695312 20.984375 9.015625 18.304688 9.015625 15 C 9.015625 11.695312 11.695312 9.015625 15 9.015625 C 18.304688 9.015625 20.984375 11.695312 20.984375 15 Z M 20.984375 15 "/>
</clipPath>
</defs>
<g id="surface1">
<path style=" stroke:none;fill-rule:nonzero;fill:rgb(0%,60.784314%,22.745098%);fill-opacity:1;" d="M 30 15 C 30 23.285156 23.285156 30 15 30 C 6.714844 30 0 23.285156 0 15 C 0 6.714844 6.714844 0 15 0 C 23.285156 0 30 6.714844 30 15 Z M 30 15 "/>
<path style=" stroke:none;fill-rule:nonzero;fill:rgb(0%,60.784314%,22.745098%);fill-opacity:1;" d="M 15 15 L 19.167969 15 L 19.167969 19.167969 L 15 19.167969 Z M 15 15 "/>
<path style=" stroke:none;fill-rule:nonzero;fill:rgb(99.607843%,87.45098%,0%);fill-opacity:1;" d="M 0.8125 15 L 15 24.058594 L 29.1875 15 L 15 5.941406 Z M 0.8125 15 "/>
<path style=" stroke:none;fill-rule:nonzero;fill:rgb(0%,15.294118%,46.27451%);fill-opacity:1;" d="M 20.984375 15 C 20.984375 18.304688 18.304688 20.984375 15 20.984375 C 11.695312 20.984375 9.015625 18.304688 9.015625 15 C 9.015625 11.695312 11.695312 9.015625 15 9.015625 C 18.304688 9.015625 20.984375 11.695312 20.984375 15 Z M 20.984375 15 "/>
<g clip-path="url(#clip1)" clip-rule="nonzero">
<g clip-path="url(#clip2)" clip-rule="nonzero">
<path style=" stroke:none;fill-rule:nonzero;fill:rgb(100%,100%,100%);fill-opacity:1;" d="M -2.949219 26.964844 C -2.949219 18.941406 3.558594 12.4375 11.582031 12.4375 C 19.605469 12.4375 26.109375 18.941406 26.109375 26.964844 L 25.253906 26.964844 C 25.253906 19.414062 19.132812 13.289062 11.582031 13.289062 C 4.027344 13.289062 -2.09375 19.414062 -2.09375 26.964844 Z M -2.949219 26.964844 "/>
</g>
</g>
<path style=" stroke:none;fill-rule:evenodd;fill:rgb(0%,60.784314%,22.745098%);fill-opacity:1;" d="M 9.898438 13.25 C 10.039062 13.234375 10.136719 13.09375 10.117188 12.9375 C 10.097656 12.78125 9.96875 12.667969 9.828125 12.6875 C 9.6875 12.703125 9.589844 12.84375 9.609375 13 C 9.628906 13.15625 9.757812 13.269531 9.898438 13.25 M 9.882812 13.144531 C 9.96875 13.136719 10.023438 13.046875 10.011719 12.949219 C 10 12.851562 9.921875 12.78125 9.839844 12.789062 C 9.757812 12.800781 9.703125 12.890625 9.714844 12.988281 C 9.726562 13.085938 9.800781 13.15625 9.882812 13.144531 "/>
<path style=" stroke:none;fill-rule:evenodd;fill:rgb(0%,60.784314%,22.745098%);fill-opacity:1;" d="M 10.363281 13.199219 L 10.46875 13.191406 L 10.453125 12.980469 L 10.679688 12.964844 C 10.777344 12.957031 10.851562 12.871094 10.847656 12.773438 C 10.839844 12.675781 10.753906 12.601562 10.65625 12.609375 L 10.332031 12.628906 Z M 10.445312 12.875 L 10.664062 12.859375 C 10.703125 12.859375 10.734375 12.824219 10.730469 12.78125 C 10.730469 12.742188 10.695312 12.710938 10.652344 12.714844 L 10.433594 12.730469 Z M 10.445312 12.875 "/>
<path style=" stroke:none;fill-rule:nonzero;fill:rgb(0%,60.784314%,22.745098%);fill-opacity:1;" d="M 10.84375 13.164062 C 10.839844 13.085938 10.828125 12.90625 10.703125 12.914062 L 10.550781 12.925781 C 10.730469 12.914062 10.742188 13.089844 10.746094 13.171875 "/>
<path style=" stroke:none;fill-rule:evenodd;fill:rgb(0%,60.784314%,22.745098%);fill-opacity:1;" d="M 11.082031 13.15625 L 11.351562 13.148438 C 11.488281 13.148438 11.59375 13.035156 11.59375 12.902344 L 11.589844 12.820312 C 11.589844 12.683594 11.476562 12.578125 11.34375 12.582031 L 11.074219 12.585938 Z M 11.1875 13.046875 L 11.34375 13.042969 C 11.429688 13.042969 11.496094 12.972656 11.496094 12.886719 L 11.492188 12.839844 C 11.492188 12.753906 11.421875 12.683594 11.335938 12.6875 L 11.179688 12.6875 Z M 11.1875 13.046875 "/>
<path style=" stroke:none;fill-rule:nonzero;fill:rgb(0%,60.784314%,22.745098%);fill-opacity:1;" d="M 11.808594 13.148438 L 12.320312 13.164062 L 12.324219 13.058594 L 11.910156 13.046875 L 11.914062 12.898438 L 12.238281 12.910156 L 12.242188 12.8125 L 11.917969 12.800781 L 11.921875 12.6875 L 12.3125 12.699219 L 12.316406 12.59375 L 11.828125 12.578125 Z M 11.808594 13.148438 "/>
<path style=" stroke:none;fill-rule:nonzero;fill:rgb(0%,60.784314%,22.745098%);fill-opacity:1;" d="M 12.53125 13.179688 L 12.628906 13.1875 L 12.660156 12.796875 L 12.742188 13.195312 L 12.832031 13.203125 L 12.976562 12.824219 L 12.945312 13.214844 L 13.042969 13.222656 L 13.089844 12.65625 L 12.949219 12.644531 L 12.800781 13.023438 L 12.722656 12.625 L 12.578125 12.609375 Z M 12.53125 13.179688 "/>
<path style=" stroke:none;fill-rule:nonzero;fill:rgb(0%,60.784314%,22.745098%);fill-opacity:1;" d="M 13.710938 13.3125 L 14.132812 13.382812 L 14.148438 13.289062 L 13.824219 13.230469 L 13.84375 13.105469 L 14.109375 13.148438 L 14.125 13.054688 L 13.863281 13.007812 L 13.878906 12.917969 L 14.191406 12.972656 L 14.207031 12.875 L 13.796875 12.804688 Z M 13.710938 13.3125 "/>
<path style=" stroke:none;fill-rule:evenodd;fill:rgb(0%,60.784314%,22.745098%);fill-opacity:1;" d="M 14.792969 13.523438 L 14.894531 13.550781 L 14.949219 13.347656 L 15.167969 13.402344 C 15.265625 13.425781 15.363281 13.371094 15.386719 13.273438 C 15.410156 13.179688 15.355469 13.082031 15.257812 13.054688 L 14.941406 12.972656 Z M 14.972656 13.242188 L 15.1875 13.296875 C 15.226562 13.308594 15.265625 13.285156 15.277344 13.246094 C 15.285156 13.207031 15.261719 13.167969 15.222656 13.15625 L 15.011719 13.101562 Z M 14.972656 13.242188 "/>
<path style=" stroke:none;fill-rule:evenodd;fill:rgb(0%,60.784314%,22.745098%);fill-opacity:1;" d="M 15.492188 13.710938 L 15.59375 13.742188 L 15.65625 13.539062 L 15.875 13.609375 C 15.96875 13.640625 16.070312 13.585938 16.097656 13.492188 C 16.128906 13.398438 16.074219 13.296875 15.980469 13.269531 L 15.671875 13.167969 Z M 15.6875 13.441406 L 15.898438 13.503906 C 15.9375 13.519531 15.976562 13.496094 15.988281 13.457031 C 16 13.417969 15.980469 13.378906 15.941406 13.367188 L 15.730469 13.300781 Z M 15.6875 13.441406 "/>
<path style=" stroke:none;fill-rule:nonzero;fill:rgb(0%,60.784314%,22.745098%);fill-opacity:1;" d="M 15.953125 13.855469 C 15.976562 13.777344 16.03125 13.609375 15.914062 13.570312 L 15.769531 13.523438 C 15.9375 13.578125 15.886719 13.75 15.859375 13.828125 "/>
<path style=" stroke:none;fill-rule:evenodd;fill:rgb(0%,60.784314%,22.745098%);fill-opacity:1;" d="M 16.421875 14.023438 C 16.554688 14.074219 16.703125 13.992188 16.761719 13.847656 C 16.816406 13.699219 16.753906 13.539062 16.621094 13.488281 C 16.488281 13.441406 16.335938 13.519531 16.28125 13.667969 C 16.226562 13.8125 16.289062 13.972656 16.421875 14.023438 M 16.457031 13.925781 C 16.535156 13.953125 16.625 13.902344 16.660156 13.808594 C 16.695312 13.714844 16.660156 13.617188 16.582031 13.589844 C 16.503906 13.558594 16.414062 13.609375 16.378906 13.703125 C 16.34375 13.796875 16.378906 13.894531 16.457031 13.925781 "/>
<path style=" stroke:none;fill-rule:evenodd;fill:rgb(0%,60.784314%,22.745098%);fill-opacity:1;" d="M 17.089844 14.292969 C 17.222656 14.351562 17.375 14.28125 17.441406 14.136719 C 17.503906 13.992188 17.449219 13.828125 17.316406 13.773438 C 17.1875 13.714844 17.03125 13.785156 16.96875 13.929688 C 16.90625 14.074219 16.960938 14.238281 17.089844 14.292969 M 17.132812 14.195312 C 17.210938 14.230469 17.304688 14.183594 17.34375 14.09375 C 17.382812 14.003906 17.351562 13.902344 17.277344 13.867188 C 17.199219 13.835938 17.105469 13.882812 17.066406 13.972656 C 17.027344 14.0625 17.058594 14.164062 17.132812 14.195312 "/>
<path style=" stroke:none;fill-rule:nonzero;fill:rgb(0%,60.784314%,22.745098%);fill-opacity:1;" d="M 17.242188 14.050781 L 17.441406 14.136719 L 17.40625 14.210938 L 17.210938 14.125 Z M 17.242188 14.050781 "/>
<path style=" stroke:none;fill-rule:nonzero;fill:rgb(0%,60.784314%,22.745098%);fill-opacity:1;" d="M 17.363281 14.101562 L 17.441406 14.136719 L 17.324219 14.394531 L 17.25 14.363281 Z M 17.363281 14.101562 "/>
<path style=" stroke:none;fill-rule:evenodd;fill:rgb(0%,60.784314%,22.745098%);fill-opacity:1;" d="M 17.515625 14.484375 L 17.613281 14.53125 L 17.707031 14.34375 L 17.910156 14.445312 C 18 14.488281 18.105469 14.453125 18.148438 14.363281 C 18.195312 14.277344 18.160156 14.167969 18.070312 14.125 L 17.777344 13.980469 Z M 17.753906 14.25 L 17.949219 14.347656 C 17.984375 14.363281 18.03125 14.351562 18.046875 14.3125 C 18.066406 14.277344 18.050781 14.234375 18.015625 14.214844 L 17.820312 14.117188 Z M 17.753906 14.25 "/>
<path style=" stroke:none;fill-rule:nonzero;fill:rgb(0%,60.784314%,22.745098%);fill-opacity:1;" d="M 17.949219 14.703125 C 17.988281 14.628906 18.066406 14.46875 17.957031 14.414062 L 17.820312 14.34375 C 17.980469 14.425781 17.898438 14.585938 17.863281 14.65625 "/>
<path style=" stroke:none;fill-rule:nonzero;fill:rgb(0%,60.784314%,22.745098%);fill-opacity:1;" d="M 18.160156 14.8125 L 18.609375 15.066406 L 18.660156 14.972656 L 18.300781 14.769531 L 18.371094 14.640625 L 18.65625 14.800781 L 18.703125 14.71875 L 18.417969 14.558594 L 18.476562 14.457031 L 18.816406 14.648438 L 18.867188 14.558594 L 18.441406 14.316406 Z M 18.160156 14.8125 "/>
<path style=" stroke:none;fill-rule:nonzero;fill:rgb(0%,60.784314%,22.745098%);fill-opacity:1;" d="M 18.992188 15.09375 C 18.960938 15.140625 18.992188 15.195312 19.0625 15.238281 C 19.132812 15.28125 19.179688 15.28125 19.199219 15.25 C 19.261719 15.152344 18.898438 15.007812 19.011719 14.835938 C 19.105469 14.691406 19.269531 14.804688 19.332031 14.84375 C 19.394531 14.882812 19.492188 14.984375 19.414062 15.101562 L 19.3125 15.035156 C 19.34375 14.984375 19.308594 14.933594 19.253906 14.902344 C 19.199219 14.867188 19.15625 14.851562 19.125 14.902344 C 19.070312 14.980469 19.425781 15.128906 19.316406 15.300781 C 19.238281 15.425781 19.097656 15.371094 19.003906 15.3125 C 18.925781 15.261719 18.808594 15.144531 18.886719 15.023438 Z M 18.992188 15.09375 "/>
<path style=" stroke:none;fill-rule:nonzero;fill:rgb(0%,60.784314%,22.745098%);fill-opacity:1;" d="M 19.605469 15.496094 C 19.570312 15.542969 19.601562 15.597656 19.664062 15.644531 C 19.730469 15.691406 19.777344 15.691406 19.800781 15.664062 C 19.867188 15.570312 19.515625 15.40625 19.636719 15.242188 C 19.738281 15.101562 19.894531 15.222656 19.957031 15.265625 C 20.015625 15.308594 20.109375 15.417969 20.027344 15.53125 L 19.925781 15.457031 C 19.960938 15.40625 19.925781 15.355469 19.875 15.320312 C 19.824219 15.28125 19.78125 15.265625 19.746094 15.3125 C 19.6875 15.390625 20.035156 15.558594 19.917969 15.722656 C 19.832031 15.84375 19.695312 15.78125 19.605469 15.714844 C 19.527344 15.664062 19.417969 15.539062 19.5 15.421875 Z M 19.605469 15.496094 "/>
<path style=" stroke:none;fill-rule:evenodd;fill:rgb(0%,60.784314%,22.745098%);fill-opacity:1;" d="M 20.183594 16.152344 C 20.292969 16.238281 20.460938 16.210938 20.5625 16.089844 C 20.660156 15.964844 20.648438 15.792969 20.539062 15.707031 C 20.425781 15.617188 20.257812 15.644531 20.160156 15.769531 C 20.0625 15.890625 20.070312 16.0625 20.183594 16.152344 M 20.25 16.070312 C 20.3125 16.121094 20.417969 16.101562 20.476562 16.023438 C 20.539062 15.945312 20.535156 15.839844 20.472656 15.789062 C 20.40625 15.738281 20.304688 15.757812 20.242188 15.835938 C 20.179688 15.914062 20.183594 16.015625 20.25 16.070312 "/>
<path style=" stroke:none;fill-rule:nonzero;fill:rgb(100%,100%,100%);fill-opacity:1;" d="M 10.117188 13.667969 L 10.035156 13.914062 L 10.160156 13.953125 "/>
<path style=" stroke:none;fill-rule:nonzero;fill:rgb(100%,100%,100%);fill-opacity:1;" d="M 10.117188 13.667969 L 10.195312 13.914062 L 10.074219 13.953125 "/>
<path style=" stroke:none;fill-rule:nonzero;fill:rgb(100%,100%,100%);fill-opacity:1;" d="M 10.359375 13.847656 L 10.105469 13.847656 L 10.105469 13.972656 "/>
<path style=" stroke:none;fill-rule:nonzero;fill:rgb(100%,100%,100%);fill-opacity:1;" d="M 10.359375 13.847656 L 10.152344 13.996094 L 10.078125 13.894531 "/>
<path style=" stroke:none;fill-rule:nonzero;fill:rgb(100%,100%,100%);fill-opacity:1;" d="M 9.871094 13.847656 L 10.078125 13.996094 L 10.15625 13.894531 "/>
<path style=" stroke:none;fill-rule:nonzero;fill:rgb(100%,100%,100%);fill-opacity:1;" d="M 9.871094 13.847656 L 10.128906 13.847656 L 10.128906 13.972656 "/>
<path style=" stroke:none;fill-rule:nonzero;fill:rgb(100%,100%,100%);fill-opacity:1;" d="M 10.265625 14.132812 L 10.1875 13.890625 L 10.066406 13.929688 "/>
<path style=" stroke:none;fill-rule:nonzero;fill:rgb(100%,100%,100%);fill-opacity:1;" d="M 10.265625 14.132812 L 10.058594 13.980469 L 10.136719 13.878906 "/>
<path style=" stroke:none;fill-rule:nonzero;fill:rgb(100%,100%,100%);fill-opacity:1;" d="M 9.964844 14.132812 L 10.171875 13.980469 L 10.097656 13.878906 "/>
<path style=" stroke:none;fill-rule:nonzero;fill:rgb(100%,100%,100%);fill-opacity:1;" d="M 9.964844 14.132812 L 10.042969 13.890625 L 10.167969 13.929688 "/>
<path style=" stroke:none;fill-rule:nonzero;fill:rgb(100%,100%,100%);fill-opacity:1;" d="M 10.644531 16.183594 L 10.566406 16.429688 L 10.6875 16.46875 "/>
<path style=" stroke:none;fill-rule:nonzero;fill:rgb(100%,100%,100%);fill-opacity:1;" d="M 10.644531 16.183594 L 10.722656 16.429688 L 10.601562 16.46875 "/>
<path style=" stroke:none;fill-rule:nonzero;fill:rgb(100%,100%,100%);fill-opacity:1;" d="M 10.890625 16.363281 L 10.632812 16.363281 L 10.632812 16.488281 "/>
<path style=" stroke:none;fill-rule:nonzero;fill:rgb(100%,100%,100%);fill-opacity:1;" d="M 10.890625 16.363281 L 10.683594 16.511719 L 10.605469 16.410156 "/>
<path style=" stroke:none;fill-rule:nonzero;fill:rgb(100%,100%,100%);fill-opacity:1;" d="M 10.402344 16.363281 L 10.609375 16.511719 L 10.683594 16.410156 "/>
<path style=" stroke:none;fill-rule:nonzero;fill:rgb(100%,100%,100%);fill-opacity:1;" d="M 10.402344 16.363281 L 10.65625 16.363281 L 10.65625 16.488281 "/>
<path style=" stroke:none;fill-rule:nonzero;fill:rgb(100%,100%,100%);fill-opacity:1;" d="M 10.796875 16.648438 L 10.71875 16.402344 L 10.59375 16.445312 "/>
<path style=" stroke:none;fill-rule:nonzero;fill:rgb(100%,100%,100%);fill-opacity:1;" d="M 10.796875 16.648438 L 10.589844 16.496094 L 10.664062 16.394531 "/>
<path style=" stroke:none;fill-rule:nonzero;fill:rgb(100%,100%,100%);fill-opacity:1;" d="M 10.496094 16.648438 L 10.703125 16.496094 L 10.625 16.394531 "/>
<path style=" stroke:none;fill-rule:nonzero;fill:rgb(100%,100%,100%);fill-opacity:1;" d="M 10.496094 16.648438 L 10.574219 16.402344 L 10.695312 16.445312 "/>
<path style=" stroke:none;fill-rule:nonzero;fill:rgb(100%,100%,100%);fill-opacity:1;" d="M 9.914062 16.765625 L 9.847656 16.96875 L 9.949219 17 "/>
<path style=" stroke:none;fill-rule:nonzero;fill:rgb(100%,100%,100%);fill-opacity:1;" d="M 9.914062 16.765625 L 9.980469 16.96875 L 9.878906 17 "/>
<path style=" stroke:none;fill-rule:nonzero;fill:rgb(100%,100%,100%);fill-opacity:1;" d="M 10.117188 16.910156 L 9.902344 16.910156 L 9.902344 17.019531 "/>
<path style=" stroke:none;fill-rule:nonzero;fill:rgb(100%,100%,100%);fill-opacity:1;" d="M 10.117188 16.910156 L 9.941406 17.039062 L 9.878906 16.949219 "/>
<path style=" stroke:none;fill-rule:nonzero;fill:rgb(100%,100%,100%);fill-opacity:1;" d="M 9.710938 16.910156 L 9.882812 17.039062 L 9.945312 16.949219 "/>
<path style=" stroke:none;fill-rule:nonzero;fill:rgb(100%,100%,100%);fill-opacity:1;" d="M 9.710938 16.910156 L 9.921875 16.910156 L 9.921875 17.019531 "/>
<path style=" stroke:none;fill-rule:nonzero;fill:rgb(100%,100%,100%);fill-opacity:1;" d="M 10.039062 17.152344 L 9.972656 16.949219 L 9.871094 16.980469 "/>
<path style=" stroke:none;fill-rule:nonzero;fill:rgb(100%,100%,100%);fill-opacity:1;" d="M 10.039062 17.152344 L 9.867188 17.023438 L 9.929688 16.9375 "/>
<path style=" stroke:none;fill-rule:nonzero;fill:rgb(100%,100%,100%);fill-opacity:1;" d="M 9.789062 17.152344 L 9.960938 17.023438 L 9.898438 16.9375 "/>
<path style=" stroke:none;fill-rule:nonzero;fill:rgb(100%,100%,100%);fill-opacity:1;" d="M 9.789062 17.152344 L 9.851562 16.949219 L 9.953125 16.980469 "/>
<path style=" stroke:none;fill-rule:nonzero;fill:rgb(100%,100%,100%);fill-opacity:1;" d="M 11.230469 15.953125 L 11.195312 16.070312 L 11.25 16.085938 "/>
<path style=" stroke:none;fill-rule:nonzero;fill:rgb(100%,100%,100%);fill-opacity:1;" d="M 11.230469 15.953125 L 11.269531 16.070312 L 11.210938 16.085938 "/>
<path style=" stroke:none;fill-rule:nonzero;fill:rgb(100%,100%,100%);fill-opacity:1;" d="M 11.347656 16.035156 L 11.226562 16.035156 L 11.226562 16.097656 "/>
<path style=" stroke:none;fill-rule:nonzero;fill:rgb(100%,100%,100%);fill-opacity:1;" d="M 11.347656 16.035156 L 11.25 16.109375 L 11.210938 16.058594 "/>
<path style=" stroke:none;fill-rule:nonzero;fill:rgb(100%,100%,100%);fill-opacity:1;" d="M 11.117188 16.035156 L 11.214844 16.109375 L 11.25 16.058594 "/>
<path style=" stroke:none;fill-rule:nonzero;fill:rgb(100%,100%,100%);fill-opacity:1;" d="M 11.117188 16.035156 L 11.238281 16.035156 L 11.238281 16.097656 "/>
<path style=" stroke:none;fill-rule:nonzero;fill:rgb(100%,100%,100%);fill-opacity:1;" d="M 11.304688 16.171875 L 11.265625 16.058594 L 11.207031 16.074219 "/>
<path style=" stroke:none;fill-rule:nonzero;fill:rgb(100%,100%,100%);fill-opacity:1;" d="M 11.304688 16.171875 L 11.203125 16.101562 L 11.242188 16.050781 "/>
<path style=" stroke:none;fill-rule:nonzero;fill:rgb(100%,100%,100%);fill-opacity:1;" d="M 11.160156 16.171875 L 11.257812 16.101562 L 11.222656 16.050781 "/>
<path style=" stroke:none;fill-rule:nonzero;fill:rgb(100%,100%,100%);fill-opacity:1;" d="M 11.160156 16.171875 L 11.199219 16.058594 L 11.253906 16.074219 "/>
<path style=" stroke:none;fill-rule:nonzero;fill:rgb(100%,100%,100%);fill-opacity:1;" d="M 11.890625 16.820312 L 11.824219 17.023438 L 11.925781 17.058594 "/>
<path style=" stroke:none;fill-rule:nonzero;fill:rgb(100%,100%,100%);fill-opacity:1;" d="M 11.890625 16.820312 L 11.957031 17.023438 L 11.855469 17.058594 "/>
<path style=" stroke:none;fill-rule:nonzero;fill:rgb(100%,100%,100%);fill-opacity:1;" d="M 12.09375 16.96875 L 11.878906 16.96875 L 11.878906 17.074219 "/>
<path style=" stroke:none;fill-rule:nonzero;fill:rgb(100%,100%,100%);fill-opacity:1;" d="M 12.09375 16.96875 L 11.921875 17.09375 L 11.859375 17.007812 "/>
<path style=" stroke:none;fill-rule:nonzero;fill:rgb(100%,100%,100%);fill-opacity:1;" d="M 11.6875 16.96875 L 11.859375 17.09375 L 11.921875 17.007812 "/>
<path style=" stroke:none;fill-rule:nonzero;fill:rgb(100%,100%,100%);fill-opacity:1;" d="M 11.6875 16.96875 L 11.902344 16.96875 L 11.902344 17.074219 "/>
<path style=" stroke:none;fill-rule:nonzero;fill:rgb(100%,100%,100%);fill-opacity:1;" d="M 12.015625 17.207031 L 11.949219 17.003906 L 11.847656 17.039062 "/>
<path style=" stroke:none;fill-rule:nonzero;fill:rgb(100%,100%,100%);fill-opacity:1;" d="M 12.015625 17.207031 L 11.84375 17.082031 L 11.90625 16.996094 "/>
<path style=" stroke:none;fill-rule:nonzero;fill:rgb(100%,100%,100%);fill-opacity:1;" d="M 11.765625 17.207031 L 11.9375 17.082031 L 11.875 16.996094 "/>
<path style=" stroke:none;fill-rule:nonzero;fill:rgb(100%,100%,100%);fill-opacity:1;" d="M 11.765625 17.207031 L 11.832031 17.003906 L 11.933594 17.039062 "/>
<path style=" stroke:none;fill-rule:nonzero;fill:rgb(100%,100%,100%);fill-opacity:1;" d="M 11.710938 17.457031 L 11.660156 17.621094 L 11.738281 17.648438 "/>
<path style=" stroke:none;fill-rule:nonzero;fill:rgb(100%,100%,100%);fill-opacity:1;" d="M 11.710938 17.457031 L 11.765625 17.621094 L 11.683594 17.648438 "/>
<path style=" stroke:none;fill-rule:nonzero;fill:rgb(100%,100%,100%);fill-opacity:1;" d="M 11.875 17.578125 L 11.703125 17.578125 L 11.703125 17.660156 "/>
<path style=" stroke:none;fill-rule:nonzero;fill:rgb(100%,100%,100%);fill-opacity:1;" d="M 11.875 17.578125 L 11.734375 17.675781 L 11.6875 17.609375 "/>
<path style=" stroke:none;fill-rule:nonzero;fill:rgb(100%,100%,100%);fill-opacity:1;" d="M 11.550781 17.578125 L 11.6875 17.675781 L 11.738281 17.609375 "/>
<path style=" stroke:none;fill-rule:nonzero;fill:rgb(100%,100%,100%);fill-opacity:1;" d="M 11.550781 17.578125 L 11.71875 17.578125 L 11.71875 17.660156 "/>
<path style=" stroke:none;fill-rule:nonzero;fill:rgb(100%,100%,100%);fill-opacity:1;" d="M 11.8125 17.765625 L 11.757812 17.605469 L 11.679688 17.632812 "/>
<path style=" stroke:none;fill-rule:nonzero;fill:rgb(100%,100%,100%);fill-opacity:1;" d="M 11.8125 17.765625 L 11.671875 17.667969 L 11.722656 17.597656 "/>
<path style=" stroke:none;fill-rule:nonzero;fill:rgb(100%,100%,100%);fill-opacity:1;" d="M 11.609375 17.765625 L 11.75 17.667969 L 11.699219 17.597656 "/>
<path style=" stroke:none;fill-rule:nonzero;fill:rgb(100%,100%,100%);fill-opacity:1;" d="M 11.609375 17.765625 L 11.664062 17.605469 L 11.746094 17.632812 "/>
<path style=" stroke:none;fill-rule:nonzero;fill:rgb(100%,100%,100%);fill-opacity:1;" d="M 16.855469 12.886719 L 16.777344 13.132812 L 16.898438 13.171875 "/>
<path style=" stroke:none;fill-rule:nonzero;fill:rgb(100%,100%,100%);fill-opacity:1;" d="M 16.855469 12.886719 L 16.933594 13.132812 L 16.8125 13.171875 "/>
<path style=" stroke:none;fill-rule:nonzero;fill:rgb(100%,100%,100%);fill-opacity:1;" d="M 17.101562 13.066406 L 16.84375 13.066406 L 16.84375 13.191406 "/>
<path style=" stroke:none;fill-rule:nonzero;fill:rgb(100%,100%,100%);fill-opacity:1;" d="M 17.101562 13.066406 L 16.890625 13.214844 L 16.816406 13.113281 "/>
<path style=" stroke:none;fill-rule:nonzero;fill:rgb(100%,100%,100%);fill-opacity:1;" d="M 16.613281 13.066406 L 16.820312 13.214844 L 16.894531 13.113281 "/>
<path style=" stroke:none;fill-rule:nonzero;fill:rgb(100%,100%,100%);fill-opacity:1;" d="M 16.613281 13.066406 L 16.867188 13.066406 L 16.867188 13.191406 "/>
<path style=" stroke:none;fill-rule:nonzero;fill:rgb(100%,100%,100%);fill-opacity:1;" d="M 17.007812 13.351562 L 16.925781 13.109375 L 16.804688 13.148438 "/>
<path style=" stroke:none;fill-rule:nonzero;fill:rgb(100%,100%,100%);fill-opacity:1;" d="M 17.007812 13.351562 L 16.800781 13.199219 L 16.875 13.097656 "/>
<path style=" stroke:none;fill-rule:nonzero;fill:rgb(100%,100%,100%);fill-opacity:1;" d="M 16.707031 13.351562 L 16.914062 13.199219 L 16.835938 13.097656 "/>
<path style=" stroke:none;fill-rule:nonzero;fill:rgb(100%,100%,100%);fill-opacity:1;" d="M 16.707031 13.351562 L 16.785156 13.109375 L 16.90625 13.148438 "/>
<path style=" stroke:none;fill-rule:nonzero;fill:rgb(100%,100%,100%);fill-opacity:1;" d="M 19.191406 16.84375 L 19.113281 17.085938 L 19.234375 17.128906 "/>
<path style=" stroke:none;fill-rule:nonzero;fill:rgb(100%,100%,100%);fill-opacity:1;" d="M 19.191406 16.84375 L 19.269531 17.085938 L 19.148438 17.128906 "/>
<path style=" stroke:none;fill-rule:nonzero;fill:rgb(100%,100%,100%);fill-opacity:1;" d="M 19.4375 17.019531 L 19.179688 17.019531 L 19.179688 17.148438 "/>
<path style=" stroke:none;fill-rule:nonzero;fill:rgb(100%,100%,100%);fill-opacity:1;" d="M 19.4375 17.019531 L 19.226562 17.171875 L 19.152344 17.066406 "/>
<path style=" stroke:none;fill-rule:nonzero;fill:rgb(100%,100%,100%);fill-opacity:1;" d="M 18.949219 17.019531 L 19.15625 17.171875 L 19.230469 17.066406 "/>
<path style=" stroke:none;fill-rule:nonzero;fill:rgb(100%,100%,100%);fill-opacity:1;" d="M 18.949219 17.019531 L 19.203125 17.019531 L 19.203125 17.148438 "/>
<path style=" stroke:none;fill-rule:nonzero;fill:rgb(100%,100%,100%);fill-opacity:1;" d="M 19.34375 17.308594 L 19.261719 17.0625 L 19.140625 17.101562 "/>
<path style=" stroke:none;fill-rule:nonzero;fill:rgb(100%,100%,100%);fill-opacity:1;" d="M 19.34375 17.308594 L 19.136719 17.15625 L 19.210938 17.054688 "/>
<path style=" stroke:none;fill-rule:nonzero;fill:rgb(100%,100%,100%);fill-opacity:1;" d="M 19.042969 17.308594 L 19.25 17.15625 L 19.171875 17.054688 "/>
<path style=" stroke:none;fill-rule:nonzero;fill:rgb(100%,100%,100%);fill-opacity:1;" d="M 19.042969 17.308594 L 19.121094 17.0625 L 19.242188 17.101562 "/>
<path style=" stroke:none;fill-rule:nonzero;fill:rgb(100%,100%,100%);fill-opacity:1;" d="M 20.023438 16.984375 L 19.96875 17.148438 L 20.050781 17.175781 "/>
<path style=" stroke:none;fill-rule:nonzero;fill:rgb(100%,100%,100%);fill-opacity:1;" d="M 20.023438 16.984375 L 20.074219 17.148438 L 19.992188 17.175781 "/>
<path style=" stroke:none;fill-rule:nonzero;fill:rgb(100%,100%,100%);fill-opacity:1;" d="M 20.183594 17.105469 L 20.015625 17.105469 L 20.015625 17.191406 "/>
<path style=" stroke:none;fill-rule:nonzero;fill:rgb(100%,100%,100%);fill-opacity:1;" d="M 20.183594 17.105469 L 20.046875 17.203125 L 19.996094 17.136719 "/>
<path style=" stroke:none;fill-rule:nonzero;fill:rgb(100%,100%,100%);fill-opacity:1;" d="M 19.859375 17.105469 L 19.996094 17.203125 L 20.046875 17.136719 "/>
<path style=" stroke:none;fill-rule:nonzero;fill:rgb(100%,100%,100%);fill-opacity:1;" d="M 19.859375 17.105469 L 20.03125 17.105469 L 20.03125 17.191406 "/>
<path style=" stroke:none;fill-rule:nonzero;fill:rgb(100%,100%,100%);fill-opacity:1;" d="M 20.121094 17.296875 L 20.070312 17.132812 L 19.988281 17.160156 "/>
<path style=" stroke:none;fill-rule:nonzero;fill:rgb(100%,100%,100%);fill-opacity:1;" d="M 20.121094 17.296875 L 19.984375 17.195312 L 20.035156 17.125 "/>
<path style=" stroke:none;fill-rule:nonzero;fill:rgb(100%,100%,100%);fill-opacity:1;" d="M 19.921875 17.296875 L 20.058594 17.195312 L 20.007812 17.125 "/>
<path style=" stroke:none;fill-rule:nonzero;fill:rgb(100%,100%,100%);fill-opacity:1;" d="M 19.921875 17.296875 L 19.972656 17.132812 L 20.054688 17.160156 "/>
<path style=" stroke:none;fill-rule:nonzero;fill:rgb(100%,100%,100%);fill-opacity:1;" d="M 19.4375 17.414062 L 19.371094 17.617188 L 19.472656 17.652344 "/>
<path style=" stroke:none;fill-rule:nonzero;fill:rgb(100%,100%,100%);fill-opacity:1;" d="M 19.4375 17.414062 L 19.503906 17.617188 L 19.402344 17.652344 "/>
<path style=" stroke:none;fill-rule:nonzero;fill:rgb(100%,100%,100%);fill-opacity:1;" d="M 19.640625 17.5625 L 19.425781 17.5625 L 19.425781 17.667969 "/>
<path style=" stroke:none;fill-rule:nonzero;fill:rgb(100%,100%,100%);fill-opacity:1;" d="M 19.640625 17.5625 L 19.464844 17.6875 L 19.402344 17.601562 "/>
<path style=" stroke:none;fill-rule:nonzero;fill:rgb(100%,100%,100%);fill-opacity:1;" d="M 19.234375 17.5625 L 19.40625 17.6875 L 19.46875 17.601562 "/>
<path style=" stroke:none;fill-rule:nonzero;fill:rgb(100%,100%,100%);fill-opacity:1;" d="M 19.234375 17.5625 L 19.445312 17.5625 L 19.445312 17.667969 "/>
<path style=" stroke:none;fill-rule:nonzero;fill:rgb(100%,100%,100%);fill-opacity:1;" d="M 19.5625 17.800781 L 19.496094 17.597656 L 19.394531 17.632812 "/>
<path style=" stroke:none;fill-rule:nonzero;fill:rgb(100%,100%,100%);fill-opacity:1;" d="M 19.5625 17.800781 L 19.390625 17.675781 L 19.453125 17.589844 "/>
<path style=" stroke:none;fill-rule:nonzero;fill:rgb(100%,100%,100%);fill-opacity:1;" d="M 19.308594 17.800781 L 19.484375 17.675781 L 19.421875 17.589844 "/>
<path style=" stroke:none;fill-rule:nonzero;fill:rgb(100%,100%,100%);fill-opacity:1;" d="M 19.308594 17.800781 L 19.375 17.597656 L 19.476562 17.632812 "/>
<path style=" stroke:none;fill-rule:nonzero;fill:rgb(100%,100%,100%);fill-opacity:1;" d="M 17.996094 18.667969 L 17.929688 18.871094 L 18.03125 18.90625 "/>
<path style=" stroke:none;fill-rule:nonzero;fill:rgb(100%,100%,100%);fill-opacity:1;" d="M 17.996094 18.667969 L 18.0625 18.871094 L 17.960938 18.90625 "/>
<path style=" stroke:none;fill-rule:nonzero;fill:rgb(100%,100%,100%);fill-opacity:1;" d="M 18.199219 18.816406 L 17.984375 18.816406 L 17.984375 18.921875 "/>
<path style=" stroke:none;fill-rule:nonzero;fill:rgb(100%,100%,100%);fill-opacity:1;" d="M 18.199219 18.816406 L 18.027344 18.941406 L 17.964844 18.855469 "/>
<path style=" stroke:none;fill-rule:nonzero;fill:rgb(100%,100%,100%);fill-opacity:1;" d="M 17.792969 18.816406 L 17.964844 18.941406 L 18.027344 18.855469 "/>
<path style=" stroke:none;fill-rule:nonzero;fill:rgb(100%,100%,100%);fill-opacity:1;" d="M 17.792969 18.816406 L 18.003906 18.816406 L 18.003906 18.921875 "/>
<path style=" stroke:none;fill-rule:nonzero;fill:rgb(100%,100%,100%);fill-opacity:1;" d="M 18.121094 19.054688 L 18.054688 18.851562 L 17.953125 18.886719 "/>
<path style=" stroke:none;fill-rule:nonzero;fill:rgb(100%,100%,100%);fill-opacity:1;" d="M 18.121094 19.054688 L 17.949219 18.929688 L 18.011719 18.84375 "/>
<path style=" stroke:none;fill-rule:nonzero;fill:rgb(100%,100%,100%);fill-opacity:1;" d="M 17.871094 19.054688 L 18.042969 18.929688 L 17.980469 18.84375 "/>
<path style=" stroke:none;fill-rule:nonzero;fill:rgb(100%,100%,100%);fill-opacity:1;" d="M 17.871094 19.054688 L 17.9375 18.851562 L 18.039062 18.886719 "/>
<path style=" stroke:none;fill-rule:nonzero;fill:rgb(100%,100%,100%);fill-opacity:1;" d="M 17.988281 19.3125 L 17.933594 19.476562 L 18.015625 19.503906 "/>
<path style=" stroke:none;fill-rule:nonzero;fill:rgb(100%,100%,100%);fill-opacity:1;" d="M 17.988281 19.3125 L 18.039062 19.476562 L 17.957031 19.503906 "/>
<path style=" stroke:none;fill-rule:nonzero;fill:rgb(100%,100%,100%);fill-opacity:1;" d="M 18.148438 19.433594 L 17.980469 19.433594 L 17.980469 19.515625 "/>
<path style=" stroke:none;fill-rule:nonzero;fill:rgb(100%,100%,100%);fill-opacity:1;" d="M 18.148438 19.433594 L 18.011719 19.53125 L 17.960938 19.464844 "/>
<path style=" stroke:none;fill-rule:nonzero;fill:rgb(100%,100%,100%);fill-opacity:1;" d="M 17.824219 19.433594 L 17.964844 19.53125 L 18.011719 19.464844 "/>
<path style=" stroke:none;fill-rule:nonzero;fill:rgb(100%,100%,100%);fill-opacity:1;" d="M 17.824219 19.433594 L 17.996094 19.433594 L 17.996094 19.515625 "/>
<path style=" stroke:none;fill-rule:nonzero;fill:rgb(100%,100%,100%);fill-opacity:1;" d="M 18.085938 19.625 L 18.035156 19.460938 L 17.953125 19.488281 "/>
<path style=" stroke:none;fill-rule:nonzero;fill:rgb(100%,100%,100%);fill-opacity:1;" d="M 18.085938 19.625 L 17.949219 19.523438 L 18 19.453125 "/>
<path style=" stroke:none;fill-rule:nonzero;fill:rgb(100%,100%,100%);fill-opacity:1;" d="M 17.886719 19.625 L 18.023438 19.523438 L 17.976562 19.453125 "/>
<path style=" stroke:none;fill-rule:nonzero;fill:rgb(100%,100%,100%);fill-opacity:1;" d="M 17.886719 19.625 L 17.941406 19.460938 L 18.019531 19.488281 "/>
<path style=" stroke:none;fill-rule:nonzero;fill:rgb(100%,100%,100%);fill-opacity:1;" d="M 18.589844 18.238281 L 18.535156 18.402344 L 18.617188 18.429688 "/>
<path style=" stroke:none;fill-rule:nonzero;fill:rgb(100%,100%,100%);fill-opacity:1;" d="M 18.589844 18.238281 L 18.640625 18.402344 L 18.5625 18.429688 "/>
<path style=" stroke:none;fill-rule:nonzero;fill:rgb(100%,100%,100%);fill-opacity:1;" d="M 18.753906 18.359375 L 18.582031 18.359375 L 18.582031 18.441406 "/>
<path style=" stroke:none;fill-rule:nonzero;fill:rgb(100%,100%,100%);fill-opacity:1;" d="M 18.753906 18.359375 L 18.613281 18.457031 L 18.5625 18.390625 "/>
<path style=" stroke:none;fill-rule:nonzero;fill:rgb(100%,100%,100%);fill-opacity:1;" d="M 18.425781 18.359375 L 18.566406 18.457031 L 18.617188 18.390625 "/>
<path style=" stroke:none;fill-rule:nonzero;fill:rgb(100%,100%,100%);fill-opacity:1;" d="M 18.425781 18.359375 L 18.597656 18.359375 L 18.597656 18.441406 "/>
<path style=" stroke:none;fill-rule:nonzero;fill:rgb(100%,100%,100%);fill-opacity:1;" d="M 18.691406 18.546875 L 18.636719 18.386719 L 18.554688 18.414062 "/>
<path style=" stroke:none;fill-rule:nonzero;fill:rgb(100%,100%,100%);fill-opacity:1;" d="M 18.691406 18.546875 L 18.550781 18.449219 L 18.601562 18.378906 "/>
<path style=" stroke:none;fill-rule:nonzero;fill:rgb(100%,100%,100%);fill-opacity:1;" d="M 18.488281 18.546875 L 18.628906 18.449219 L 18.578125 18.378906 "/>
<path style=" stroke:none;fill-rule:nonzero;fill:rgb(100%,100%,100%);fill-opacity:1;" d="M 18.488281 18.546875 L 18.542969 18.386719 L 18.625 18.414062 "/>
<path style=" stroke:none;fill-rule:nonzero;fill:rgb(100%,100%,100%);fill-opacity:1;" d="M 19.070312 17.894531 L 19.003906 18.097656 L 19.105469 18.132812 "/>
<path style=" stroke:none;fill-rule:nonzero;fill:rgb(100%,100%,100%);fill-opacity:1;" d="M 19.070312 17.894531 L 19.136719 18.097656 L 19.035156 18.132812 "/>
<path style=" stroke:none;fill-rule:nonzero;fill:rgb(100%,100%,100%);fill-opacity:1;" d="M 19.273438 18.042969 L 19.058594 18.042969 L 19.058594 18.148438 "/>
<path style=" stroke:none;fill-rule:nonzero;fill:rgb(100%,100%,100%);fill-opacity:1;" d="M 19.273438 18.042969 L 19.101562 18.167969 L 19.039062 18.082031 "/>
<path style=" stroke:none;fill-rule:nonzero;fill:rgb(100%,100%,100%);fill-opacity:1;" d="M 18.867188 18.042969 L 19.039062 18.167969 L 19.101562 18.082031 "/>
<path style=" stroke:none;fill-rule:nonzero;fill:rgb(100%,100%,100%);fill-opacity:1;" d="M 18.867188 18.042969 L 19.082031 18.042969 L 19.082031 18.148438 "/>
<path style=" stroke:none;fill-rule:nonzero;fill:rgb(100%,100%,100%);fill-opacity:1;" d="M 19.195312 18.28125 L 19.128906 18.078125 L 19.027344 18.113281 "/>
<path style=" stroke:none;fill-rule:nonzero;fill:rgb(100%,100%,100%);fill-opacity:1;" d="M 19.195312 18.28125 L 19.023438 18.15625 L 19.085938 18.070312 "/>
<path style=" stroke:none;fill-rule:nonzero;fill:rgb(100%,100%,100%);fill-opacity:1;" d="M 18.945312 18.28125 L 19.117188 18.15625 L 19.054688 18.070312 "/>
<path style=" stroke:none;fill-rule:nonzero;fill:rgb(100%,100%,100%);fill-opacity:1;" d="M 18.945312 18.28125 L 19.011719 18.078125 L 19.113281 18.113281 "/>
<path style=" stroke:none;fill-rule:nonzero;fill:rgb(100%,100%,100%);fill-opacity:1;" d="M 17.972656 18.125 L 17.917969 18.289062 L 18 18.316406 "/>
<path style=" stroke:none;fill-rule:nonzero;fill:rgb(100%,100%,100%);fill-opacity:1;" d="M 17.972656 18.125 L 18.023438 18.289062 L 17.941406 18.316406 "/>
<path style=" stroke:none;fill-rule:nonzero;fill:rgb(100%,100%,100%);fill-opacity:1;" d="M 18.132812 18.242188 L 17.960938 18.242188 L 17.960938 18.328125 "/>
<path style=" stroke:none;fill-rule:nonzero;fill:rgb(100%,100%,100%);fill-opacity:1;" d="M 18.132812 18.242188 L 17.996094 18.34375 L 17.945312 18.273438 "/>
<path style=" stroke:none;fill-rule:nonzero;fill:rgb(100%,100%,100%);fill-opacity:1;" d="M 17.808594 18.242188 L 17.945312 18.34375 L 17.996094 18.273438 "/>
<path style=" stroke:none;fill-rule:nonzero;fill:rgb(100%,100%,100%);fill-opacity:1;" d="M 17.808594 18.242188 L 17.980469 18.242188 L 17.980469 18.328125 "/>
<path style=" stroke:none;fill-rule:nonzero;fill:rgb(100%,100%,100%);fill-opacity:1;" d="M 18.070312 18.433594 L 18.019531 18.273438 L 17.9375 18.296875 "/>
<path style=" stroke:none;fill-rule:nonzero;fill:rgb(100%,100%,100%);fill-opacity:1;" d="M 18.070312 18.433594 L 17.933594 18.335938 L 17.984375 18.265625 "/>
<path style=" stroke:none;fill-rule:nonzero;fill:rgb(100%,100%,100%);fill-opacity:1;" d="M 17.871094 18.433594 L 18.007812 18.335938 L 17.957031 18.265625 "/>
<path style=" stroke:none;fill-rule:nonzero;fill:rgb(100%,100%,100%);fill-opacity:1;" d="M 17.871094 18.433594 L 17.921875 18.273438 L 18.003906 18.296875 "/>
<path style=" stroke:none;fill-rule:nonzero;fill:rgb(100%,100%,100%);fill-opacity:1;" d="M 12.722656 15.03125 L 12.65625 15.234375 L 12.757812 15.265625 "/>
<path style=" stroke:none;fill-rule:nonzero;fill:rgb(100%,100%,100%);fill-opacity:1;" d="M 12.722656 15.03125 L 12.785156 15.234375 L 12.683594 15.265625 "/>
<path style=" stroke:none;fill-rule:nonzero;fill:rgb(100%,100%,100%);fill-opacity:1;" d="M 12.925781 15.179688 L 12.710938 15.179688 L 12.710938 15.285156 "/>
<path style=" stroke:none;fill-rule:nonzero;fill:rgb(100%,100%,100%);fill-opacity:1;" d="M 12.925781 15.179688 L 12.75 15.304688 L 12.6875 15.21875 "/>
<path style=" stroke:none;fill-rule:nonzero;fill:rgb(100%,100%,100%);fill-opacity:1;" d="M 12.519531 15.179688 L 12.691406 15.304688 L 12.753906 15.21875 "/>
<path style=" stroke:none;fill-rule:nonzero;fill:rgb(100%,100%,100%);fill-opacity:1;" d="M 12.519531 15.179688 L 12.730469 15.179688 L 12.730469 15.285156 "/>
<path style=" stroke:none;fill-rule:nonzero;fill:rgb(100%,100%,100%);fill-opacity:1;" d="M 12.847656 15.417969 L 12.78125 15.214844 L 12.679688 15.246094 "/>
<path style=" stroke:none;fill-rule:nonzero;fill:rgb(100%,100%,100%);fill-opacity:1;" d="M 12.847656 15.417969 L 12.671875 15.292969 L 12.738281 15.203125 "/>
<path style=" stroke:none;fill-rule:nonzero;fill:rgb(100%,100%,100%);fill-opacity:1;" d="M 12.59375 15.417969 L 12.769531 15.292969 L 12.707031 15.203125 "/>
<path style=" stroke:none;fill-rule:nonzero;fill:rgb(100%,100%,100%);fill-opacity:1;" d="M 12.59375 15.417969 L 12.660156 15.214844 L 12.761719 15.246094 "/>
<path style=" stroke:none;fill-rule:nonzero;fill:rgb(100%,100%,100%);fill-opacity:1;" d="M 16.628906 14.527344 L 16.574219 14.691406 L 16.65625 14.71875 "/>
<path style=" stroke:none;fill-rule:nonzero;fill:rgb(100%,100%,100%);fill-opacity:1;" d="M 16.628906 14.527344 L 16.679688 14.691406 L 16.597656 14.71875 "/>
<path style=" stroke:none;fill-rule:nonzero;fill:rgb(100%,100%,100%);fill-opacity:1;" d="M 16.789062 14.644531 L 16.621094 14.644531 L 16.621094 14.730469 "/>
<path style=" stroke:none;fill-rule:nonzero;fill:rgb(100%,100%,100%);fill-opacity:1;" d="M 16.789062 14.644531 L 16.652344 14.746094 L 16.601562 14.675781 "/>
<path style=" stroke:none;fill-rule:nonzero;fill:rgb(100%,100%,100%);fill-opacity:1;" d="M 16.464844 14.644531 L 16.605469 14.746094 L 16.652344 14.675781 "/>
<path style=" stroke:none;fill-rule:nonzero;fill:rgb(100%,100%,100%);fill-opacity:1;" d="M 16.464844 14.644531 L 16.636719 14.644531 L 16.636719 14.730469 "/>
<path style=" stroke:none;fill-rule:nonzero;fill:rgb(100%,100%,100%);fill-opacity:1;" d="M 16.726562 14.835938 L 16.675781 14.675781 L 16.59375 14.699219 "/>
<path style=" stroke:none;fill-rule:nonzero;fill:rgb(100%,100%,100%);fill-opacity:1;" d="M 16.726562 14.835938 L 16.589844 14.738281 L 16.640625 14.667969 "/>
<path style=" stroke:none;fill-rule:nonzero;fill:rgb(100%,100%,100%);fill-opacity:1;" d="M 16.527344 14.835938 L 16.664062 14.738281 L 16.617188 14.667969 "/>
<path style=" stroke:none;fill-rule:nonzero;fill:rgb(100%,100%,100%);fill-opacity:1;" d="M 16.527344 14.835938 L 16.582031 14.675781 L 16.660156 14.699219 "/>
<path style=" stroke:none;fill-rule:nonzero;fill:rgb(100%,100%,100%);fill-opacity:1;" d="M 15 17.429688 L 14.921875 17.671875 L 15.042969 17.714844 "/>
<path style=" stroke:none;fill-rule:nonzero;fill:rgb(100%,100%,100%);fill-opacity:1;" d="M 15 17.429688 L 15.078125 17.671875 L 14.957031 17.714844 "/>
<path style=" stroke:none;fill-rule:nonzero;fill:rgb(100%,100%,100%);fill-opacity:1;" d="M 15.242188 17.605469 L 14.988281 17.605469 L 14.988281 17.734375 "/>
<path style=" stroke:none;fill-rule:nonzero;fill:rgb(100%,100%,100%);fill-opacity:1;" d="M 15.242188 17.605469 L 15.035156 17.757812 L 14.960938 17.652344 "/>
<path style=" stroke:none;fill-rule:nonzero;fill:rgb(100%,100%,100%);fill-opacity:1;" d="M 14.757812 17.605469 L 14.964844 17.757812 L 15.039062 17.652344 "/>
<path style=" stroke:none;fill-rule:nonzero;fill:rgb(100%,100%,100%);fill-opacity:1;" d="M 14.757812 17.605469 L 15.011719 17.605469 L 15.011719 17.734375 "/>
<path style=" stroke:none;fill-rule:nonzero;fill:rgb(100%,100%,100%);fill-opacity:1;" d="M 15.152344 17.894531 L 15.070312 17.648438 L 14.949219 17.6875 "/>
<path style=" stroke:none;fill-rule:nonzero;fill:rgb(100%,100%,100%);fill-opacity:1;" d="M 15.152344 17.894531 L 14.941406 17.742188 L 15.019531 17.640625 "/>
<path style=" stroke:none;fill-rule:nonzero;fill:rgb(100%,100%,100%);fill-opacity:1;" d="M 14.847656 17.894531 L 15.058594 17.742188 L 14.980469 17.640625 "/>
<path style=" stroke:none;fill-rule:nonzero;fill:rgb(100%,100%,100%);fill-opacity:1;" d="M 14.847656 17.894531 L 14.929688 17.648438 L 15.050781 17.6875 "/>
<path style=" stroke:none;fill-rule:nonzero;fill:rgb(100%,100%,100%);fill-opacity:1;" d="M 15.691406 16.285156 L 15.625 16.488281 L 15.726562 16.519531 "/>
<path style=" stroke:none;fill-rule:nonzero;fill:rgb(100%,100%,100%);fill-opacity:1;" d="M 15.691406 16.285156 L 15.757812 16.488281 L 15.65625 16.519531 "/>
<path style=" stroke:none;fill-rule:nonzero;fill:rgb(100%,100%,100%);fill-opacity:1;" d="M 15.894531 16.433594 L 15.679688 16.433594 L 15.679688 16.539062 "/>
<path style=" stroke:none;fill-rule:nonzero;fill:rgb(100%,100%,100%);fill-opacity:1;" d="M 15.894531 16.433594 L 15.722656 16.558594 L 15.660156 16.472656 "/>
<path style=" stroke:none;fill-rule:nonzero;fill:rgb(100%,100%,100%);fill-opacity:1;" d="M 15.488281 16.433594 L 15.660156 16.558594 L 15.722656 16.472656 "/>
<path style=" stroke:none;fill-rule:nonzero;fill:rgb(100%,100%,100%);fill-opacity:1;" d="M 15.488281 16.433594 L 15.703125 16.433594 L 15.703125 16.539062 "/>
<path style=" stroke:none;fill-rule:nonzero;fill:rgb(100%,100%,100%);fill-opacity:1;" d="M 15.816406 16.671875 L 15.75 16.46875 L 15.648438 16.5 "/>
<path style=" stroke:none;fill-rule:nonzero;fill:rgb(100%,100%,100%);fill-opacity:1;" d="M 15.816406 16.671875 L 15.644531 16.546875 L 15.707031 16.457031 "/>
<path style=" stroke:none;fill-rule:nonzero;fill:rgb(100%,100%,100%);fill-opacity:1;" d="M 15.566406 16.671875 L 15.738281 16.546875 L 15.675781 16.457031 "/>
<path style=" stroke:none;fill-rule:nonzero;fill:rgb(100%,100%,100%);fill-opacity:1;" d="M 15.566406 16.671875 L 15.632812 16.46875 L 15.734375 16.5 "/>
<path style=" stroke:none;fill-rule:nonzero;fill:rgb(100%,100%,100%);fill-opacity:1;" d="M 15 15.746094 L 14.933594 15.949219 L 15.035156 15.984375 "/>
<path style=" stroke:none;fill-rule:nonzero;fill:rgb(100%,100%,100%);fill-opacity:1;" d="M 15 15.746094 L 15.066406 15.949219 L 14.964844 15.984375 "/>
<path style=" stroke:none;fill-rule:nonzero;fill:rgb(100%,100%,100%);fill-opacity:1;" d="M 15.203125 15.894531 L 14.988281 15.894531 L 14.988281 16 "/>
<path style=" stroke:none;fill-rule:nonzero;fill:rgb(100%,100%,100%);fill-opacity:1;" d="M 15.203125 15.894531 L 15.03125 16.019531 L 14.96875 15.933594 "/>
<path style=" stroke:none;fill-rule:nonzero;fill:rgb(100%,100%,100%);fill-opacity:1;" d="M 14.796875 15.894531 L 14.96875 16.019531 L 15.03125 15.933594 "/>
<path style=" stroke:none;fill-rule:nonzero;fill:rgb(100%,100%,100%);fill-opacity:1;" d="M 14.796875 15.894531 L 15.011719 15.894531 L 15.011719 16 "/>
<path style=" stroke:none;fill-rule:nonzero;fill:rgb(100%,100%,100%);fill-opacity:1;" d="M 15.125 16.132812 L 15.058594 15.929688 L 14.957031 15.964844 "/>
<path style=" stroke:none;fill-rule:nonzero;fill:rgb(100%,100%,100%);fill-opacity:1;" d="M 15.125 16.132812 L 14.953125 16.007812 L 15.015625 15.921875 "/>
<path style=" stroke:none;fill-rule:nonzero;fill:rgb(100%,100%,100%);fill-opacity:1;" d="M 14.875 16.132812 L 15.046875 16.007812 L 14.984375 15.921875 "/>
<path style=" stroke:none;fill-rule:nonzero;fill:rgb(100%,100%,100%);fill-opacity:1;" d="M 14.875 16.132812 L 14.941406 15.929688 L 15.042969 15.964844 "/>
<path style=" stroke:none;fill-rule:nonzero;fill:rgb(100%,100%,100%);fill-opacity:1;" d="M 14.398438 16.328125 L 14.34375 16.488281 L 14.425781 16.515625 "/>
<path style=" stroke:none;fill-rule:nonzero;fill:rgb(100%,100%,100%);fill-opacity:1;" d="M 14.398438 16.328125 L 14.449219 16.488281 L 14.371094 16.515625 "/>
<path style=" stroke:none;fill-rule:nonzero;fill:rgb(100%,100%,100%);fill-opacity:1;" d="M 14.558594 16.445312 L 14.390625 16.445312 L 14.390625 16.53125 "/>
<path style=" stroke:none;fill-rule:nonzero;fill:rgb(100%,100%,100%);fill-opacity:1;" d="M 14.558594 16.445312 L 14.421875 16.546875 L 14.371094 16.476562 "/>
<path style=" stroke:none;fill-rule:nonzero;fill:rgb(100%,100%,100%);fill-opacity:1;" d="M 14.234375 16.445312 L 14.375 16.546875 L 14.421875 16.476562 "/>
<path style=" stroke:none;fill-rule:nonzero;fill:rgb(100%,100%,100%);fill-opacity:1;" d="M 14.234375 16.445312 L 14.40625 16.445312 L 14.40625 16.53125 "/>
<path style=" stroke:none;fill-rule:nonzero;fill:rgb(100%,100%,100%);fill-opacity:1;" d="M 14.5 16.636719 L 14.445312 16.472656 L 14.363281 16.5 "/>
<path style=" stroke:none;fill-rule:nonzero;fill:rgb(100%,100%,100%);fill-opacity:1;" d="M 14.5 16.636719 L 14.359375 16.535156 L 14.410156 16.464844 "/>
<path style=" stroke:none;fill-rule:nonzero;fill:rgb(100%,100%,100%);fill-opacity:1;" d="M 14.296875 16.636719 L 14.433594 16.535156 L 14.386719 16.464844 "/>
<path style=" stroke:none;fill-rule:nonzero;fill:rgb(100%,100%,100%);fill-opacity:1;" d="M 14.296875 16.636719 L 14.351562 16.472656 L 14.429688 16.5 "/>
<path style=" stroke:none;fill-rule:nonzero;fill:rgb(100%,100%,100%);fill-opacity:1;" d="M 14.699219 16.789062 L 14.660156 16.90625 L 14.71875 16.925781 "/>
<path style=" stroke:none;fill-rule:nonzero;fill:rgb(100%,100%,100%);fill-opacity:1;" d="M 14.699219 16.789062 L 14.738281 16.90625 L 14.679688 16.925781 "/>
<path style=" stroke:none;fill-rule:nonzero;fill:rgb(100%,100%,100%);fill-opacity:1;" d="M 14.816406 16.875 L 14.691406 16.875 L 14.691406 16.9375 "/>
<path style=" stroke:none;fill-rule:nonzero;fill:rgb(100%,100%,100%);fill-opacity:1;" d="M 14.816406 16.875 L 14.714844 16.945312 L 14.679688 16.898438 "/>
<path style=" stroke:none;fill-rule:nonzero;fill:rgb(100%,100%,100%);fill-opacity:1;" d="M 14.582031 16.875 L 14.679688 16.945312 L 14.71875 16.898438 "/>
<path style=" stroke:none;fill-rule:nonzero;fill:rgb(100%,100%,100%);fill-opacity:1;" d="M 14.582031 16.875 L 14.703125 16.875 L 14.703125 16.9375 "/>
<path style=" stroke:none;fill-rule:nonzero;fill:rgb(100%,100%,100%);fill-opacity:1;" d="M 14.769531 17.011719 L 14.734375 16.894531 L 14.675781 16.914062 "/>
<path style=" stroke:none;fill-rule:nonzero;fill:rgb(100%,100%,100%);fill-opacity:1;" d="M 14.769531 17.011719 L 14.671875 16.941406 L 14.707031 16.890625 "/>
<path style=" stroke:none;fill-rule:nonzero;fill:rgb(100%,100%,100%);fill-opacity:1;" d="M 14.628906 17.011719 L 14.726562 16.941406 L 14.691406 16.890625 "/>
<path style=" stroke:none;fill-rule:nonzero;fill:rgb(100%,100%,100%);fill-opacity:1;" d="M 14.628906 17.011719 L 14.664062 16.894531 L 14.722656 16.914062 "/>
<path style=" stroke:none;fill-rule:nonzero;fill:rgb(100%,100%,100%);fill-opacity:1;" d="M 16.789062 18.816406 L 16.726562 19.019531 L 16.828125 19.050781 "/>
<path style=" stroke:none;fill-rule:nonzero;fill:rgb(100%,100%,100%);fill-opacity:1;" d="M 16.789062 18.816406 L 16.855469 19.019531 L 16.753906 19.050781 "/>
<path style=" stroke:none;fill-rule:nonzero;fill:rgb(100%,100%,100%);fill-opacity:1;" d="M 16.992188 18.964844 L 16.78125 18.964844 L 16.78125 19.070312 "/>
<path style=" stroke:none;fill-rule:nonzero;fill:rgb(100%,100%,100%);fill-opacity:1;" d="M 16.992188 18.964844 L 16.820312 19.089844 L 16.757812 19.003906 "/>
<path style=" stroke:none;fill-rule:nonzero;fill:rgb(100%,100%,100%);fill-opacity:1;" d="M 16.585938 18.964844 L 16.761719 19.089844 L 16.824219 19.003906 "/>
<path style=" stroke:none;fill-rule:nonzero;fill:rgb(100%,100%,100%);fill-opacity:1;" d="M 16.585938 18.964844 L 16.800781 18.964844 L 16.800781 19.070312 "/>
<path style=" stroke:none;fill-rule:nonzero;fill:rgb(100%,100%,100%);fill-opacity:1;" d="M 16.917969 19.203125 L 16.851562 19 L 16.75 19.03125 "/>
<path style=" stroke:none;fill-rule:nonzero;fill:rgb(100%,100%,100%);fill-opacity:1;" d="M 16.917969 19.203125 L 16.742188 19.078125 L 16.804688 18.988281 "/>
<path style=" stroke:none;fill-rule:nonzero;fill:rgb(100%,100%,100%);fill-opacity:1;" d="M 16.664062 19.203125 L 16.839844 19.078125 L 16.773438 18.988281 "/>
<path style=" stroke:none;fill-rule:nonzero;fill:rgb(100%,100%,100%);fill-opacity:1;" d="M 16.664062 19.203125 L 16.730469 19 L 16.832031 19.03125 "/>
<path style=" stroke:none;fill-rule:nonzero;fill:rgb(100%,100%,100%);fill-opacity:1;" d="M 17.304688 18.328125 L 17.25 18.492188 L 17.332031 18.519531 "/>
<path style=" stroke:none;fill-rule:nonzero;fill:rgb(100%,100%,100%);fill-opacity:1;" d="M 17.304688 18.328125 L 17.355469 18.492188 L 17.273438 18.519531 "/>
<path style=" stroke:none;fill-rule:nonzero;fill:rgb(100%,100%,100%);fill-opacity:1;" d="M 17.464844 18.445312 L 17.296875 18.445312 L 17.296875 18.53125 "/>
<path style=" stroke:none;fill-rule:nonzero;fill:rgb(100%,100%,100%);fill-opacity:1;" d="M 17.464844 18.445312 L 17.328125 18.546875 L 17.277344 18.476562 "/>
<path style=" stroke:none;fill-rule:nonzero;fill:rgb(100%,100%,100%);fill-opacity:1;" d="M 17.140625 18.445312 L 17.277344 18.546875 L 17.328125 18.476562 "/>
<path style=" stroke:none;fill-rule:nonzero;fill:rgb(100%,100%,100%);fill-opacity:1;" d="M 17.140625 18.445312 L 17.3125 18.445312 L 17.3125 18.53125 "/>
<path style=" stroke:none;fill-rule:nonzero;fill:rgb(100%,100%,100%);fill-opacity:1;" d="M 17.402344 18.636719 L 17.351562 18.476562 L 17.269531 18.503906 "/>
<path style=" stroke:none;fill-rule:nonzero;fill:rgb(100%,100%,100%);fill-opacity:1;" d="M 17.402344 18.636719 L 17.265625 18.539062 L 17.316406 18.46875 "/>
<path style=" stroke:none;fill-rule:nonzero;fill:rgb(100%,100%,100%);fill-opacity:1;" d="M 17.203125 18.636719 L 17.339844 18.539062 L 17.292969 18.46875 "/>
<path style=" stroke:none;fill-rule:nonzero;fill:rgb(100%,100%,100%);fill-opacity:1;" d="M 17.203125 18.636719 L 17.253906 18.476562 L 17.335938 18.503906 "/>
<path style=" stroke:none;fill-rule:nonzero;fill:rgb(100%,100%,100%);fill-opacity:1;" d="M 16.320312 18.183594 L 16.265625 18.34375 L 16.347656 18.371094 "/>
<path style=" stroke:none;fill-rule:nonzero;fill:rgb(100%,100%,100%);fill-opacity:1;" d="M 16.320312 18.183594 L 16.371094 18.34375 L 16.289062 18.371094 "/>
<path style=" stroke:none;fill-rule:nonzero;fill:rgb(100%,100%,100%);fill-opacity:1;" d="M 16.480469 18.300781 L 16.308594 18.300781 L 16.308594 18.386719 "/>
<path style=" stroke:none;fill-rule:nonzero;fill:rgb(100%,100%,100%);fill-opacity:1;" d="M 16.480469 18.300781 L 16.34375 18.402344 L 16.292969 18.332031 "/>
<path style=" stroke:none;fill-rule:nonzero;fill:rgb(100%,100%,100%);fill-opacity:1;" d="M 16.15625 18.300781 L 16.292969 18.402344 L 16.34375 18.332031 "/>
<path style=" stroke:none;fill-rule:nonzero;fill:rgb(100%,100%,100%);fill-opacity:1;" d="M 16.15625 18.300781 L 16.328125 18.300781 L 16.328125 18.386719 "/>
<path style=" stroke:none;fill-rule:nonzero;fill:rgb(100%,100%,100%);fill-opacity:1;" d="M 16.417969 18.492188 L 16.367188 18.328125 L 16.285156 18.355469 "/>
<path style=" stroke:none;fill-rule:nonzero;fill:rgb(100%,100%,100%);fill-opacity:1;" d="M 16.417969 18.492188 L 16.28125 18.390625 L 16.332031 18.320312 "/>
<path style=" stroke:none;fill-rule:nonzero;fill:rgb(100%,100%,100%);fill-opacity:1;" d="M 16.21875 18.492188 L 16.355469 18.390625 L 16.304688 18.320312 "/>
<path style=" stroke:none;fill-rule:nonzero;fill:rgb(100%,100%,100%);fill-opacity:1;" d="M 16.21875 18.492188 L 16.269531 18.328125 L 16.351562 18.355469 "/>
<path style=" stroke:none;fill-rule:nonzero;fill:rgb(100%,100%,100%);fill-opacity:1;" d="M 12.597656 17.917969 L 12.519531 18.160156 L 12.640625 18.203125 "/>
<path style=" stroke:none;fill-rule:nonzero;fill:rgb(100%,100%,100%);fill-opacity:1;" d="M 12.597656 17.917969 L 12.679688 18.160156 L 12.554688 18.203125 "/>
<path style=" stroke:none;fill-rule:nonzero;fill:rgb(100%,100%,100%);fill-opacity:1;" d="M 12.84375 18.09375 L 12.585938 18.09375 L 12.585938 18.222656 "/>
<path style=" stroke:none;fill-rule:nonzero;fill:rgb(100%,100%,100%);fill-opacity:1;" d="M 12.84375 18.09375 L 12.636719 18.246094 L 12.558594 18.140625 "/>
<path style=" stroke:none;fill-rule:nonzero;fill:rgb(100%,100%,100%);fill-opacity:1;" d="M 12.355469 18.09375 L 12.5625 18.246094 L 12.636719 18.140625 "/>
<path style=" stroke:none;fill-rule:nonzero;fill:rgb(100%,100%,100%);fill-opacity:1;" d="M 12.355469 18.09375 L 12.613281 18.09375 L 12.613281 18.222656 "/>
<path style=" stroke:none;fill-rule:nonzero;fill:rgb(100%,100%,100%);fill-opacity:1;" d="M 12.75 18.382812 L 12.671875 18.136719 L 12.546875 18.175781 "/>
<path style=" stroke:none;fill-rule:nonzero;fill:rgb(100%,100%,100%);fill-opacity:1;" d="M 12.75 18.382812 L 12.542969 18.230469 L 12.617188 18.128906 "/>
<path style=" stroke:none;fill-rule:nonzero;fill:rgb(100%,100%,100%);fill-opacity:1;" d="M 12.449219 18.382812 L 12.65625 18.230469 L 12.582031 18.128906 "/>
<path style=" stroke:none;fill-rule:nonzero;fill:rgb(100%,100%,100%);fill-opacity:1;" d="M 12.449219 18.382812 L 12.527344 18.136719 L 12.648438 18.175781 "/>
<path style=" stroke:none;fill-rule:nonzero;fill:rgb(100%,100%,100%);fill-opacity:1;" d="M 15 19.59375 L 14.972656 19.675781 L 15.015625 19.6875 "/>
<path style=" stroke:none;fill-rule:nonzero;fill:rgb(100%,100%,100%);fill-opacity:1;" d="M 15 19.59375 L 15.027344 19.675781 L 14.984375 19.6875 "/>
<path style=" stroke:none;fill-rule:nonzero;fill:rgb(100%,100%,100%);fill-opacity:1;" d="M 15.082031 19.652344 L 14.996094 19.652344 L 14.996094 19.695312 "/>
<path style=" stroke:none;fill-rule:nonzero;fill:rgb(100%,100%,100%);fill-opacity:1;" d="M 15.082031 19.652344 L 15.011719 19.703125 L 14.988281 19.667969 "/>
<path style=" stroke:none;fill-rule:nonzero;fill:rgb(100%,100%,100%);fill-opacity:1;" d="M 14.917969 19.652344 L 14.988281 19.703125 L 15.011719 19.667969 "/>
<path style=" stroke:none;fill-rule:nonzero;fill:rgb(100%,100%,100%);fill-opacity:1;" d="M 14.917969 19.652344 L 15.003906 19.652344 L 15.003906 19.695312 "/>
<path style=" stroke:none;fill-rule:nonzero;fill:rgb(100%,100%,100%);fill-opacity:1;" d="M 15.050781 19.75 L 15.023438 19.667969 L 14.984375 19.679688 "/>
<path style=" stroke:none;fill-rule:nonzero;fill:rgb(100%,100%,100%);fill-opacity:1;" d="M 15.050781 19.75 L 14.980469 19.699219 L 15.007812 19.664062 "/>
<path style=" stroke:none;fill-rule:nonzero;fill:rgb(100%,100%,100%);fill-opacity:1;" d="M 14.949219 19.75 L 15.019531 19.699219 L 14.992188 19.664062 "/>
<path style=" stroke:none;fill-rule:nonzero;fill:rgb(100%,100%,100%);fill-opacity:1;" d="M 14.949219 19.75 L 14.976562 19.667969 L 15.015625 19.679688 "/>
</g>
</svg>
