<svg width="82" height="77" viewBox="0 0 82 77" fill="none" xmlns="http://www.w3.org/2000/svg">
<g clip-path="url(#clip0_2195_21816)">
<mask id="mask0_2195_21816" style="mask-type:alpha" maskUnits="userSpaceOnUse" x="0" y="0" width="42" height="41">
<path d="M0.619507 0H41.5351V40.8951H0.619507V0Z" fill="white"/>
</mask>
<g mask="url(#mask0_2195_21816)">
<path fill-rule="evenodd" clip-rule="evenodd" d="M41.5351 20.458C41.5351 31.7562 32.3761 40.9156 21.0775 40.9156C9.77891 40.9156 0.619507 31.7562 0.619507 20.458C0.619507 9.1594 9.77891 0 21.0775 0C32.3761 0 41.5351 9.1594 41.5351 20.458Z" fill="#E88136"/>
</g>
<path fill-rule="evenodd" clip-rule="evenodd" d="M29.6365 8.99003C29.4807 8.9873 29.3262 8.98382 29.1663 8.98382C27.2376 8.98382 25.7845 8.96099 24.4336 9.82506C22.2688 11.2098 22.6801 13.3046 22.6801 17.6253C24.9864 17.2211 28.5609 16.4859 29.729 15.1202C30.3341 14.413 30.5764 11.9994 30.5566 9.96105L24.0728 16.1039L29.6365 8.99003Z" fill="#FFFFFE"/>
<path fill-rule="evenodd" clip-rule="evenodd" d="M29.6365 18.1632C29.4807 18.1604 29.3262 18.1573 29.1663 18.1573C27.2376 18.1573 25.7845 18.1341 24.4336 18.9985C22.2688 20.383 22.6801 22.4781 22.6801 26.7988C24.9864 26.3949 28.5609 25.6593 29.729 24.2937C30.3341 23.5861 30.5764 21.1729 30.5566 19.1345L24.0728 25.2773L29.6365 18.1632Z" fill="#FFFFFE"/>
<path fill-rule="evenodd" clip-rule="evenodd" d="M29.6365 27.3344C29.4807 27.3317 29.3262 27.3282 29.1663 27.3282C27.2376 27.3282 25.7845 27.3054 24.4336 28.1691C22.2688 29.5539 22.6801 31.649 22.6801 35.9693C24.9864 35.5658 28.5609 34.8299 29.729 33.4642C30.3341 32.757 30.5764 30.3438 30.5566 28.3054L24.0728 34.4482L29.6365 27.3344Z" fill="#FFFFFE"/>
<path fill-rule="evenodd" clip-rule="evenodd" d="M12.5177 8.99003C12.6735 8.9873 12.828 8.98382 12.9879 8.98382C14.9166 8.98382 16.3697 8.96099 17.721 9.82506C19.8854 11.2098 19.4741 13.3046 19.4741 17.6253C17.1678 17.2211 13.5933 16.4859 12.4251 15.1202C11.82 14.413 11.5778 11.9994 11.598 9.96105L18.0814 16.1039L12.5177 8.99003Z" fill="#FFFFFE"/>
<path fill-rule="evenodd" clip-rule="evenodd" d="M12.5177 18.1632C12.6735 18.1604 12.828 18.1573 12.9879 18.1573C14.9166 18.1573 16.3697 18.1341 17.721 18.9985C19.8854 20.383 19.4741 22.4781 19.4741 26.7988C17.1678 26.3949 13.5933 25.6593 12.4251 24.2937C11.82 23.5861 11.5778 21.1729 11.598 19.1345L18.0814 25.2773L12.5177 18.1632Z" fill="#FFFFFE"/>
<path fill-rule="evenodd" clip-rule="evenodd" d="M12.5177 27.3344C12.6735 27.3317 12.828 27.3282 12.9879 27.3282C14.9166 27.3282 16.3697 27.3054 17.721 28.1691C19.8854 29.5539 19.4741 31.649 19.4741 35.9693C17.1678 35.5658 13.5933 34.8299 12.4251 33.4642C11.82 32.757 11.5778 30.3438 11.598 28.3054L18.0814 34.4482L12.5177 27.3344Z" fill="#FFFFFE"/>
<path fill-rule="evenodd" clip-rule="evenodd" d="M21.0606 9.87329C20.6881 9.87329 20.3861 10.1709 20.3861 10.5382V39.4387C20.3861 39.8057 20.6881 40.1036 21.0606 40.1036C21.433 40.1036 21.7354 39.8057 21.7354 39.4387V10.5382C21.7354 10.1709 21.433 9.87329 21.0606 9.87329Z" fill="#FFFFFE"/>
<path fill-rule="evenodd" clip-rule="evenodd" d="M21.0624 9.04232L20.4474 0.812256C20.3449 0.911339 20.242 1.00974 20.1385 1.11361C18.8867 2.36513 17.9286 3.29344 17.6126 4.73083C17.1062 7.03469 18.2617 8.39896 21.0661 11.2034L21.0624 9.04232Z" fill="#FFFFFE"/>
<path fill-rule="evenodd" clip-rule="evenodd" d="M21.0665 9.04232L21.592 0.812256C21.6945 0.911339 21.7974 1.00974 21.9009 1.11361C23.1527 2.36513 24.1108 3.29344 24.4268 4.73083C24.9332 7.03469 23.8706 8.39896 21.0665 11.2034V9.04232Z" fill="#FFFFFE"/>
</g>
<g clip-path="url(#clip1_2195_21816)">
<mask id="mask1_2195_21816" style="mask-type:alpha" maskUnits="userSpaceOnUse" x="20" y="16" width="42" height="41">
<path d="M20.8586 16.0413H61.8176V56.9797H20.8586V16.0413Z" fill="white"/>
</mask>
<g mask="url(#mask1_2195_21816)">
<path fill-rule="evenodd" clip-rule="evenodd" d="M61.8176 36.5209C61.8176 47.8311 52.6489 57.0002 41.3383 57.0002C30.0278 57.0002 20.8586 47.8311 20.8586 36.5209C20.8586 25.2104 30.0278 16.0413 41.3383 16.0413C52.6489 16.0413 61.8176 25.2104 61.8176 36.5209Z" fill="url(#paint0_linear_2195_21816)"/>
</g>
<path fill-rule="evenodd" clip-rule="evenodd" d="M37.0753 21.4041H38.1417C38.3284 21.1411 38.5617 20.914 38.8305 20.7358C38.2074 20.2597 37.8031 19.5117 37.8031 18.6689V18.4535C37.8031 18.3467 37.8113 18.2421 37.824 18.1388H37.0753C36.2322 18.1388 35.5464 18.8246 35.5464 19.6677V19.8749C35.5464 20.718 36.2322 21.4041 37.0753 21.4041Z" fill="#FEF0CB"/>
<path fill-rule="evenodd" clip-rule="evenodd" d="M36.1297 25.6699H37.9893C38.1671 25.4599 38.3737 25.2752 38.609 25.1295C38.0296 24.652 37.6596 23.929 37.6596 23.1208V22.906C37.6596 22.7339 37.6811 22.5674 37.7133 22.4049H36.1297C35.2866 22.4049 34.6005 23.0907 34.6005 23.9334V24.141C34.6005 24.9845 35.2866 25.6699 36.1297 25.6699Z" fill="#FEF0CB"/>
<path fill-rule="evenodd" clip-rule="evenodd" d="M35.4526 29.9365H38.1624C38.2521 29.8489 38.3458 29.7658 38.447 29.6919C37.7972 29.2182 37.3727 28.4538 37.3727 27.5905V27.3415C37.3727 27.1096 37.4035 26.8849 37.4609 26.6711H35.4526C34.6094 26.6711 33.9233 27.3569 33.9233 28.2V28.4073C33.9233 29.2504 34.6094 29.9365 35.4526 29.9365Z" fill="#FEF0CB"/>
<path fill-rule="evenodd" clip-rule="evenodd" d="M35.1002 34.2025H38.0526C38.1897 34.2025 38.32 34.1782 38.4469 34.1447C37.7971 33.671 37.3726 32.9065 37.3726 32.0426V31.7943C37.3726 31.4933 37.427 31.206 37.5214 30.9371H35.1002C34.2571 30.9371 33.5713 31.6232 33.5713 32.466V32.6733C33.5713 33.5167 34.2571 34.2025 35.1002 34.2025Z" fill="#FEF0CB"/>
<path fill-rule="evenodd" clip-rule="evenodd" d="M36.145 38.0099C36.3291 38.1622 36.51 38.3099 36.6902 38.4566H37.9828C38.0163 38.4566 38.0488 38.4604 38.0816 38.4618C38.1398 38.459 38.1952 38.446 38.2513 38.4375C37.7136 37.9604 37.3712 37.2688 37.3712 36.4951V36.2464C37.3712 35.8747 37.4536 35.523 37.5952 35.2032H34.8409C34.4742 35.2032 34.1421 35.3383 33.8784 35.5545C34.2266 36.2663 34.9233 36.9999 36.145 38.0099Z" fill="#FEF0CB"/>
<path fill-rule="evenodd" clip-rule="evenodd" d="M43.8459 20.7358C44.1148 20.914 44.348 21.1411 44.5348 21.4041H45.1655C46.0086 21.4041 46.6944 20.718 46.6944 19.8749V19.6677C46.6944 18.8246 46.0086 18.1388 45.1655 18.1388H44.8525C44.8652 18.2421 44.8737 18.3467 44.8737 18.4535V18.6689C44.8737 19.5117 44.4691 20.2597 43.8459 20.7358Z" fill="#FFFFFE"/>
<path fill-rule="evenodd" clip-rule="evenodd" d="M45.1655 22.4049H44.9614C44.9935 22.5674 45.0154 22.7339 45.0154 22.906V23.1208C45.0154 23.929 44.6453 24.652 44.0659 25.1295C44.3009 25.2752 44.5078 25.4599 44.6857 25.6699H46.1095C46.9526 25.6699 47.6384 24.9845 47.6384 24.141V23.9334C47.6384 23.0907 46.9526 22.4049 46.1095 22.4049H45.1655Z" fill="#FFFFFE"/>
<path fill-rule="evenodd" clip-rule="evenodd" d="M46.1088 26.6711H45.2154C45.2729 26.8849 45.3037 27.1096 45.3037 27.3415V27.5905C45.3037 28.4538 44.8789 29.2182 44.229 29.6919C44.3306 29.7658 44.424 29.8489 44.5136 29.9365H47.2238C48.0666 29.9365 48.7523 29.2504 48.7523 28.4073V28.2C48.7523 27.3569 48.0666 26.6711 47.2238 26.6711H46.1088Z" fill="#FFFFFE"/>
<path fill-rule="evenodd" clip-rule="evenodd" d="M49.105 32.466C49.105 31.6232 48.4189 30.9371 47.5761 30.9371H45.1549C45.2493 31.206 45.3037 31.4933 45.3037 31.7943V32.0426C45.3037 32.9065 44.8789 33.671 44.2294 34.1447C44.3556 34.1782 44.4862 34.2025 44.6234 34.2025H47.5761C48.4189 34.2025 49.105 33.5167 49.105 32.6733V32.466Z" fill="#FFFFFE"/>
<path fill-rule="evenodd" clip-rule="evenodd" d="M44.4247 38.4375C44.4811 38.446 44.5362 38.459 44.5943 38.4618C44.6272 38.4604 44.66 38.4566 44.6932 38.4566H46.0011C46.1789 38.3106 46.3578 38.1639 46.5394 38.0123C47.7554 36.9996 48.4476 36.2646 48.7927 35.5501C48.5297 35.3366 48.1993 35.2032 47.8351 35.2032H45.081C45.2223 35.523 45.3051 35.8747 45.3051 36.2464V36.4951C45.3051 37.2688 44.9627 37.9604 44.4247 38.4375Z" fill="#FFFFFE"/>
<path fill-rule="evenodd" clip-rule="evenodd" d="M40.4052 20.2703H42.272C43.1551 20.2703 43.8734 19.5521 43.8734 18.6693V18.4538C43.8734 17.571 43.1551 16.8524 42.272 16.8524H40.4052C39.5224 16.8524 38.8038 17.571 38.8038 18.4538V18.6693C38.8038 19.5521 39.5224 20.2703 40.4052 20.2703Z" fill="#FFFFFE"/>
<path fill-rule="evenodd" clip-rule="evenodd" d="M40.2643 24.723H42.414C43.2971 24.723 44.0153 24.0044 44.0153 23.121V22.9062C44.0153 22.0227 43.2971 21.3044 42.414 21.3044H40.2643C39.3812 21.3044 38.6626 22.0227 38.6626 22.9062V23.121C38.6626 24.0044 39.3812 24.723 40.2643 24.723Z" fill="#FFFFFE"/>
<path fill-rule="evenodd" clip-rule="evenodd" d="M38.3728 27.5906C38.3728 28.4734 39.0911 29.1916 39.9742 29.1916H42.7019C43.5853 29.1916 44.3039 28.4734 44.3039 27.5906V27.3416C44.3039 26.4588 43.5853 25.7402 42.7019 25.7402H39.9742C39.0911 25.7402 38.3728 26.4588 38.3728 27.3416V27.5906Z" fill="#FFFFFE"/>
<path fill-rule="evenodd" clip-rule="evenodd" d="M38.3728 32.0426C38.3728 32.9254 39.0911 33.644 39.9742 33.644H42.7019C43.5853 33.644 44.3039 32.9254 44.3039 32.0426V31.7943C44.3039 30.9109 43.5853 30.1923 42.7019 30.1923H39.9742C39.0911 30.1923 38.3728 30.9109 38.3728 31.7943V32.0426Z" fill="#FFFFFE"/>
<path fill-rule="evenodd" clip-rule="evenodd" d="M38.3728 36.4952C38.3728 37.3503 39.0483 38.0449 39.8928 38.0884C39.9201 38.0877 39.9468 38.0842 39.9742 38.0842H42.7019C42.7296 38.0842 42.7562 38.0877 42.7836 38.0884C43.6284 38.0449 44.3039 37.3503 44.3039 36.4952V36.2465C44.3039 35.3634 43.5853 34.6451 42.7019 34.6451H39.9742C39.0911 34.6451 38.3728 35.3634 38.3728 36.2465V36.4952Z" fill="#FFFFFE"/>
<path fill-rule="evenodd" clip-rule="evenodd" d="M40.7058 41.581C40.9387 41.7575 41.1548 41.9217 41.3618 42.0793C41.5612 41.9264 41.7729 41.7647 41.9962 41.594L42.0687 41.5389C42.6837 41.0703 43.3736 40.5443 44.1199 39.9608C43.8654 39.4693 43.3678 39.1235 42.7832 39.0934C42.7559 39.0924 42.7299 39.0852 42.7015 39.0852H39.9738C39.9461 39.0852 39.9201 39.0924 39.8924 39.0934C39.314 39.1232 38.8212 39.4621 38.564 39.9451C39.3222 40.5337 40.0227 41.0638 40.6466 41.5362L40.7058 41.581Z" fill="#FFFFFE"/>
<path fill-rule="evenodd" clip-rule="evenodd" d="M35.7301 50.2103C35.7472 47.7795 37.3072 45.306 40.367 42.8574L40.3968 42.8338C39.2428 41.9595 37.1732 40.3725 35.4038 38.9097C33.4721 37.3124 32.4251 36.1013 32.4251 34.2789C32.4251 34.1849 32.3379 34.1083 32.2298 34.1083C32.1217 34.1083 32.0342 34.1849 32.0342 34.2789V42.0806L34.7786 44.8931L32.0342 43.2972V46.4661C32.0342 48.7068 33.5278 50.1378 35.1422 51.3496C35.4298 51.5658 35.723 51.7905 36.0171 52.0176C35.8228 51.4338 35.7257 50.8308 35.7301 50.2103Z" fill="#FEF0CB"/>
<path fill-rule="evenodd" clip-rule="evenodd" d="M50.5462 43.4142C49.9815 43.8937 49.3976 44.3322 48.8087 44.7573C47.6379 45.6083 46.3973 46.3762 45.2577 47.1847C44.0715 48.0118 42.9449 48.8514 41.9486 49.8683C41.4561 50.3752 40.995 50.9187 40.6304 51.5258C40.2682 52.1291 39.9901 52.8063 39.9689 53.5283C39.9292 52.8067 40.1529 52.0884 40.4731 51.4396C40.7949 50.7863 41.2207 50.1898 41.6818 49.6285C42.6053 48.5101 43.7148 47.5312 44.809 46.6248C45.9455 45.6894 47.0927 44.863 48.1803 43.9457C48.7231 43.4918 49.2553 43.028 49.7509 42.542C50.0649 42.2315 50.3656 41.9086 50.632 41.5796V34.2789C50.632 34.1849 50.5451 34.1083 50.4381 34.1083C50.3307 34.1083 50.2441 34.1849 50.2441 34.2789C50.2441 36.1013 49.2047 37.3124 47.2863 38.9097C45.5744 40.3349 44.0237 41.5173 42.7777 42.4675C42.1422 42.9521 41.5932 43.3704 41.1811 43.7018L41.0973 43.7692C38.3258 45.9873 36.9132 48.1571 36.8984 50.2189C36.8879 51.771 37.6883 53.2191 39.2777 54.5223C39.4767 54.6854 41.1602 56.123 41.177 56.1373C41.2142 56.1691 41.2635 56.1856 41.3121 56.1856C41.3569 56.1856 41.4017 56.1719 41.4379 56.1449C41.4728 56.1185 44.9632 53.5006 47.5531 51.3445C49.1756 49.9935 50.632 48.6038 50.632 46.4661V43.3386C50.6033 43.3636 50.5752 43.3896 50.5462 43.4142Z" fill="#FFFFFE"/>
</g>
<g clip-path="url(#clip2_2195_21816)">
<mask id="mask2_2195_21816" style="mask-type:alpha" maskUnits="userSpaceOnUse" x="40" y="35" width="42" height="42">
<path d="M40.3369 35.0847H81.2959V76.0232H40.3369V35.0847Z" fill="white"/>
</mask>
<g mask="url(#mask2_2195_21816)">
<path fill-rule="evenodd" clip-rule="evenodd" d="M81.2959 55.5644C81.2959 66.8746 72.1271 76.0437 60.8166 76.0437C49.506 76.0437 40.3369 66.8746 40.3369 55.5644C40.3369 44.2538 49.506 35.0847 60.8166 35.0847C72.1271 35.0847 81.2959 44.2538 81.2959 55.5644Z" fill="#43A747"/>
</g>
<path fill-rule="evenodd" clip-rule="evenodd" d="M66.0795 55.5699C68.1552 53.0515 70.1161 51.0859 70.1161 47.904C70.1161 45.9571 69.5169 44.1512 68.4942 42.6576H68.4956C68.4754 42.6285 68.4531 42.5998 68.4326 42.5707C68.2938 42.3734 68.1498 42.1798 67.9962 41.9937C67.9959 41.993 67.9955 41.9923 67.9948 41.9917C67.9931 41.9899 67.9918 41.9882 67.99 41.9862C65.3492 38.6921 60.802 35.9032 60.802 35.9032C60.802 35.9032 56.2393 38.7181 53.6074 42.032C53.4658 42.2051 53.3317 42.3846 53.2031 42.5683C53.1816 42.5981 53.159 42.6278 53.1378 42.6576H53.1395C52.1168 44.1512 51.5176 45.9571 51.5176 47.904C51.5176 51.0859 53.7589 53.3929 55.5539 55.5699C53.6966 57.8297 51.5176 60.0535 51.5176 63.2354C51.5176 65.1823 52.1168 66.9882 53.1395 68.4821H53.1378C53.159 68.5119 53.1816 68.5413 53.2031 68.5711C53.3317 68.7544 53.4658 68.9343 53.6074 69.1077C56.2393 72.4213 60.802 75.2365 60.802 75.2365C60.802 75.2365 65.3492 72.4473 67.99 69.1532C67.9918 69.1515 67.9931 69.1494 67.9948 69.1477C67.9955 69.1471 67.9959 69.1464 67.9962 69.1457C68.1498 68.9596 68.2938 68.7664 68.4326 68.569C68.4531 68.54 68.4754 68.5112 68.4956 68.4821H68.4942C69.5169 66.9882 70.1161 65.1823 70.1161 63.2354C70.1161 60.0535 67.9069 57.7366 66.0795 55.5699Z" fill="#CFE5C4"/>
<path fill-rule="evenodd" clip-rule="evenodd" d="M60.8009 75.2365C60.8009 75.2365 65.3482 72.4473 67.989 69.1532C67.9907 69.1515 67.9921 69.1494 67.9938 69.1477C67.9945 69.1471 67.9948 69.1464 67.9951 69.1457C68.1487 68.9596 68.2927 68.7664 68.4316 68.569C68.4521 68.54 68.4743 68.5112 68.4945 68.4821H68.4931C69.5158 66.9882 70.115 65.1823 70.115 63.2354C70.115 60.0535 67.9059 57.7366 66.0784 55.5699C68.1542 53.0515 70.115 51.0859 70.115 47.904C70.115 45.9571 69.5158 44.1512 68.4931 42.6576H68.4945C68.4743 42.6285 68.4521 42.5998 68.4316 42.5707C68.2927 42.3734 68.1487 42.1798 67.9951 41.9937C67.9948 41.993 67.9945 41.9923 67.9938 41.9917C67.9921 41.9899 67.9907 41.9882 67.989 41.9862C65.3482 38.6921 60.8009 35.9032 60.8009 35.9032" fill="#FFFFFE"/>
<path fill-rule="evenodd" clip-rule="evenodd" d="M65.4406 64.403C65.3661 64.7488 65.26 65.0915 65.114 65.4209C64.9683 65.7592 64.7894 66.0407 64.552 66.3943L63.0813 68.5012C62.5967 69.2226 62.1178 69.9531 61.6947 70.7244C61.4844 71.1109 61.2809 71.5022 61.1088 71.9123C61.023 72.1161 60.9518 72.3295 60.8906 72.5433C60.8595 72.6497 60.8448 72.7643 60.8229 72.8717C60.8164 72.9103 60.8171 72.9503 60.8171 72.99C60.8167 72.9503 60.8174 72.9103 60.8109 72.8717C60.789 72.7643 60.7747 72.6497 60.7432 72.5433C60.682 72.3295 60.6108 72.1161 60.525 71.9123C60.3533 71.5022 60.1491 71.1109 59.9391 70.7244C59.516 69.9531 59.0372 69.2226 58.5529 68.5012L57.0818 66.3943C56.8444 66.0407 56.6652 65.7592 56.5198 65.4209C56.3738 65.0915 56.2678 64.7488 56.1932 64.403C56.1197 64.0565 56.0848 63.7043 56.0899 63.3533L56.0967 63.091L56.1214 62.8824L56.1669 62.67L56.2329 62.4541C56.4377 61.8724 56.8472 61.2444 57.34 60.6294C57.8301 60.01 58.3873 59.3837 58.9599 58.7305C59.0355 58.6436 59.0929 58.579 59.1801 58.4712C59.2701 58.3522 59.3679 58.2386 59.4476 58.1114C59.6128 57.8621 59.7606 57.5984 59.8727 57.3196C60.1029 56.7652 60.2285 56.1653 60.2274 55.564C60.2223 54.963 60.1002 54.3634 59.8676 53.809C59.7537 53.5309 59.606 53.2683 59.4414 53.0182C59.3573 52.8958 59.2632 52.7761 59.1747 52.6608L58.964 52.4129C58.3952 51.7503 57.8397 51.1128 57.3274 50.4879C56.8133 49.8623 56.3957 49.2611 56.2185 48.7124C56.1262 48.4248 56.0855 48.1587 56.0861 47.7859C56.081 47.4346 56.1162 47.082 56.1894 46.7359C56.2647 46.3897 56.3693 46.0463 56.5168 45.7166C56.5527 45.6342 56.5917 45.5524 56.6334 45.4717C56.6778 45.3859 56.7049 45.3311 56.7627 45.235L56.9087 45.0011L56.9805 44.8834L58.5484 42.6346C59.0331 41.9143 59.5122 41.184 59.9364 40.4131C60.1474 40.0276 60.3512 39.6364 60.5243 39.2273L60.6447 38.9167L60.7435 38.5969C60.776 38.4909 60.7897 38.3756 60.812 38.2686C60.8174 38.2381 60.8157 38.206 60.8171 38.1745C60.8181 38.206 60.8164 38.2381 60.8222 38.2686C60.8441 38.3756 60.8578 38.4909 60.8903 38.5969L60.9891 38.9167L61.1095 39.2273C61.2826 39.6364 61.4864 40.0276 61.6975 40.4131C62.1216 41.184 62.6008 41.9143 63.0851 42.6346L64.6529 44.8834L64.7251 45.0011L64.8712 45.235C64.929 45.3311 64.956 45.3859 65.0004 45.4717C65.0422 45.5524 65.0812 45.6342 65.1174 45.7166C65.2645 46.0463 65.3691 46.3897 65.4444 46.7359C65.5176 47.082 65.5528 47.4346 65.5477 47.7859C65.5484 48.1587 65.5077 48.4248 65.4153 48.7124C65.2378 49.2611 64.8205 49.8623 64.3061 50.4879C63.7941 51.1128 63.239 51.7503 62.6699 52.4129L62.4592 52.6608C62.3706 52.7761 62.2765 52.8958 62.1924 53.0182C62.0279 53.2683 61.8801 53.5309 61.7662 53.809C61.5336 54.3634 61.4112 54.963 61.4064 55.564C61.4054 56.1653 61.5309 56.7652 61.7611 57.3196C61.8733 57.5984 62.021 57.8621 62.1866 58.1114C62.2659 58.2386 62.3637 58.3522 62.4537 58.4712C62.5409 58.579 62.5984 58.6436 62.674 58.7305C63.2465 59.3837 63.8037 60.01 64.2938 60.6294C64.7867 61.2444 65.1961 61.8724 65.401 62.4541L65.467 62.67L65.5125 62.8824L65.5371 63.091L65.5439 63.3533C65.5491 63.7043 65.5142 64.0565 65.4406 64.403ZM67.7425 62.6556C67.7274 62.5143 67.7138 62.3707 67.6929 62.2305C67.6659 62.0943 67.6406 61.9548 67.6081 61.8204C67.3358 60.7416 66.7944 59.9019 66.2714 59.1426C65.7379 58.385 65.166 57.7181 64.6355 57.059L64.4436 56.8247C64.408 56.77 64.3612 56.7234 64.3301 56.6663C64.2613 56.5569 64.1967 56.4443 64.1525 56.3233C64.0571 56.0842 64.0062 55.826 64.0086 55.5674C64.0082 55.3088 64.0575 55.0506 64.1536 54.8115C64.1994 54.6904 64.2634 54.5782 64.3311 54.4678L64.4467 54.308L64.6461 54.0607C65.1667 53.3989 65.7283 52.734 66.2598 51.9969C66.5262 51.6269 66.7927 51.238 67.0393 50.7971C67.2866 50.359 67.5024 49.8497 67.6286 49.2977C67.7562 48.7542 67.777 48.1515 67.7216 47.6672C67.6724 47.1603 67.566 46.6592 67.4073 46.179C67.2517 45.6971 67.0314 45.2398 66.7711 44.814C66.7061 44.7073 66.6381 44.603 66.5669 44.5007C66.4999 44.4036 66.4093 44.2791 66.345 44.199L66.1066 43.9165L65.9858 43.777L65.8815 43.6679C65.2758 43.019 64.668 42.4259 64.0646 41.8175C63.4586 41.2141 62.8614 40.6081 62.2782 39.9893C61.9872 39.6798 61.7064 39.3617 61.4474 39.0289C61.182 38.6985 60.9296 38.3579 60.8171 37.9375C60.7042 38.3579 60.4521 38.6985 60.1864 39.0289C59.9275 39.3617 59.6467 39.6798 59.3556 39.9893C58.7724 40.6081 58.1753 41.2141 57.5692 41.8175C56.9658 42.4259 56.3581 43.019 55.7523 43.6679L55.648 43.777L55.5273 43.9165L55.2889 44.199C55.2246 44.2791 55.1339 44.4036 55.0669 44.5007C54.9957 44.603 54.9277 44.7073 54.8627 44.814C54.6024 45.2398 54.3822 45.6971 54.2265 46.179C54.0678 46.6592 53.9615 47.1603 53.9122 47.6672C53.8568 48.1515 53.8777 48.7542 54.0056 49.2977C54.1314 49.8497 54.3473 50.359 54.5945 50.7971C54.8412 51.238 55.1076 51.6269 55.374 51.9969C55.9055 52.734 56.4672 53.3989 56.9877 54.0607L57.1871 54.308L57.3027 54.4678C57.3701 54.5782 57.4344 54.6904 57.4806 54.8115C57.5764 55.0506 57.6256 55.3088 57.6253 55.5674C57.6277 55.826 57.5767 56.0842 57.4813 56.3233C57.4368 56.4443 57.3725 56.5569 57.3038 56.6663C57.2726 56.7234 57.2258 56.77 57.1902 56.8247L56.9983 57.059C56.4678 57.7181 55.8956 58.385 55.3624 59.1426C54.8398 59.9019 54.298 60.7416 54.0258 61.8204C53.9933 61.9548 53.968 62.0943 53.9409 62.2305C53.9201 62.3707 53.9064 62.5143 53.8913 62.6556C53.8848 62.8003 53.8838 62.9463 53.8824 63.0907C53.8896 63.2182 53.893 63.3455 53.9084 63.4724C53.9577 63.9799 54.0641 64.481 54.2231 64.9619C54.3791 65.4435 54.5987 65.9018 54.8596 66.3273C55.1127 66.7521 55.4506 67.1594 55.7499 67.4741C56.3574 68.1236 56.9648 68.7146 57.5685 69.3235C58.1749 69.9254 58.7718 70.5318 59.3546 71.1502C59.6453 71.4604 59.9271 71.7775 60.1847 72.1113C60.4501 72.4421 60.7035 72.7821 60.815 73.2027C60.8147 73.1812 60.8161 73.1576 60.8171 73.135C60.8178 73.1576 60.8191 73.1812 60.8188 73.2027C60.9306 72.7821 61.1841 72.4421 61.4492 72.1113C61.7067 71.7775 61.9889 71.4604 62.2793 71.1502C62.8621 70.5318 63.4593 69.9254 64.0653 69.3235C64.669 68.7146 65.2765 68.1236 65.8842 67.4741C66.1832 67.1594 66.5214 66.7521 66.7742 66.3273C67.0352 65.9018 67.2548 65.4435 67.4107 64.9619C67.5694 64.481 67.6761 63.9799 67.7254 63.4724C67.7404 63.3455 67.7442 63.2182 67.7514 63.0907C67.7504 62.9463 67.749 62.8003 67.7425 62.6556Z" fill="#43A747"/>
<path fill-rule="evenodd" clip-rule="evenodd" d="M60.8173 73.3137C60.8252 72.0154 57.8995 68.6587 56.7599 67.0327C56.752 67.0214 56.7438 67.0101 56.7359 66.9988C56.662 66.8965 56.5875 66.784 56.5078 66.6554C56.5016 66.6455 56.4674 66.5921 56.4674 66.5921C55.8702 65.6009 55.5542 64.4404 55.5542 63.2355C55.5542 61.7121 56.4418 60.4028 57.9033 58.4269C58.0859 58.1799 58.2679 57.934 58.4467 57.6874C59.3353 56.4633 59.3511 54.6953 58.4614 53.4719C58.2897 53.2349 58.1129 52.9968 57.934 52.756C56.7103 51.1058 55.5542 49.5471 55.5542 47.9037C55.5542 46.697 55.8706 45.5355 56.4691 44.5436C56.4691 44.5436 56.4989 44.4981 56.5078 44.4837C56.5878 44.3551 56.6627 44.2416 56.7373 44.1376C56.7448 44.127 56.7523 44.1164 56.7599 44.1061C57.8992 42.4805 60.8266 39.1977 60.8173 37.9103C60.8266 39.1977 63.7092 42.4586 64.8509 44.0719C64.856 44.0795 64.8786 44.1113 64.8851 44.1202C64.9607 44.2238 65.0397 44.3432 65.1276 44.4851C65.1344 44.4964 65.1666 44.5467 65.1666 44.5467C65.7641 45.5379 66.0798 46.6984 66.0798 47.9037C66.0798 49.4698 65.3321 50.5496 63.7759 52.6514C63.5833 52.912 63.3877 53.1767 63.1907 53.4473C62.2888 54.6882 62.2905 56.4818 63.2047 57.7107C63.3381 57.8902 63.4739 58.0705 63.6107 58.2525C64.8806 59.9404 66.0798 61.5346 66.0798 63.2355C66.0798 64.4418 65.7631 65.6044 65.1642 66.5966C65.1642 66.5966 65.1344 66.6428 65.1276 66.6537C65.0397 66.7956 64.9607 66.915 64.8851 67.0187C64.8786 67.0282 64.856 67.0594 64.8509 67.0669C63.7578 68.6118 60.8252 72.0154 60.8173 73.3137Z" fill="#CFE5C4"/>
<path fill-rule="evenodd" clip-rule="evenodd" d="M60.817 37.9103C60.8263 39.1977 63.7089 42.4586 64.8506 44.0719C64.8557 44.0795 64.8783 44.1113 64.8848 44.1202C64.9604 44.2238 65.0394 44.3432 65.1273 44.4851C65.1341 44.4964 65.1663 44.5467 65.1663 44.5467C65.7638 45.5379 66.0795 46.6984 66.0795 47.9037C66.0795 49.4698 65.3318 50.5496 63.7756 52.6514C63.583 52.912 63.3874 53.1767 63.1904 53.4473C62.2884 54.6882 62.2901 56.4818 63.2044 57.7107C63.3378 57.8902 63.4736 58.0705 63.6104 58.2525C64.8803 59.9404 66.0795 61.5346 66.0795 63.2355C66.0795 64.4418 65.7628 65.6044 65.1639 66.5966C65.1639 66.5966 65.1341 66.6428 65.1273 66.6537C65.0394 66.7956 64.9604 66.915 64.8848 67.0187C64.8783 67.0282 64.8557 67.0594 64.8506 67.0669C63.7574 68.6118 60.8249 72.0154 60.817 73.3137" fill="#FFFFFE"/>
<path fill-rule="evenodd" clip-rule="evenodd" d="M60.7264 51.0822L58.3658 48.0467C58.3312 48.0026 58.3312 47.9393 58.3658 47.8949L60.7264 44.8594C60.773 44.7992 60.8615 44.7992 60.9081 44.8594L63.2687 47.8949C63.3033 47.9393 63.3033 48.0026 63.2687 48.0467L60.9081 51.0822C60.8615 51.1421 60.773 51.1421 60.7264 51.0822Z" fill="#43A747"/>
<path fill-rule="evenodd" clip-rule="evenodd" d="M60.7264 66.2037L58.3658 63.1682C58.3312 63.1241 58.3312 63.0612 58.3658 63.0167L60.7264 59.9812C60.773 59.921 60.8615 59.921 60.9081 59.9812L63.2687 63.0167C63.3033 63.0612 63.3033 63.1241 63.2687 63.1682L60.9081 66.2037C60.8615 66.2639 60.773 66.2639 60.7264 66.2037Z" fill="#43A747"/>
</g>
<defs>
<linearGradient id="paint0_linear_2195_21816" x1="30.2644" y1="17.8379" x2="54.2065" y2="52.7249" gradientUnits="userSpaceOnUse">
<stop stop-color="#F6BF4C"/>
<stop offset="1" stop-color="#E7B03D"/>
</linearGradient>
<clipPath id="clip0_2195_21816">
<rect width="41" height="41" fill="white" transform="translate(0.619507)"/>
</clipPath>
<clipPath id="clip1_2195_21816">
<rect width="41.0435" height="41.0435" fill="white" transform="translate(20.8586 15.9565)"/>
</clipPath>
<clipPath id="clip2_2195_21816">
<rect width="41.0435" height="41.0435" fill="white" transform="translate(40.3369 35)"/>
</clipPath>
</defs>
</svg>
