<svg width="57" height="56" viewBox="0 0 57 56" fill="none" xmlns="http://www.w3.org/2000/svg">
<path d="M4.3335 28C4.3335 14.7452 15.0787 4 28.3335 4C41.5883 4 52.3335 14.7452 52.3335 28C52.3335 41.2548 41.5883 52 28.3335 52C15.0787 52 4.3335 41.2548 4.3335 28Z" fill="#CAF2B8"/>
<path d="M23.3335 27V23C23.3335 21.6739 23.8603 20.4021 24.798 19.4645C25.7356 18.5268 27.0074 18 28.3335 18C29.6596 18 30.9313 18.5268 31.869 19.4645C32.8067 20.4021 33.3335 21.6739 33.3335 23V27M21.3335 27H35.3335C36.4381 27 37.3335 27.8954 37.3335 29V36C37.3335 37.1046 36.4381 38 35.3335 38H21.3335C20.2289 38 19.3335 37.1046 19.3335 36V29C19.3335 27.8954 20.2289 27 21.3335 27Z" stroke="#5CBD15" stroke-width="2" stroke-linecap="round" stroke-linejoin="round"/>
<path d="M28.3335 48C17.2878 48 8.3335 39.0457 8.3335 28H0.333496C0.333496 43.464 12.8695 56 28.3335 56V48ZM48.3335 28C48.3335 39.0457 39.3792 48 28.3335 48V56C43.7975 56 56.3335 43.464 56.3335 28H48.3335ZM28.3335 8C39.3792 8 48.3335 16.9543 48.3335 28H56.3335C56.3335 12.536 43.7975 0 28.3335 0V8ZM28.3335 0C12.8695 0 0.333496 12.536 0.333496 28H8.3335C8.3335 16.9543 17.2878 8 28.3335 8V0Z" fill="#DBF5D4"/>
</svg>
