<svg width="56" height="56" viewBox="0 0 56 56" fill="none" xmlns="http://www.w3.org/2000/svg">
<path d="M4 28C4 14.7452 14.7452 4 28 4C41.2548 4 52 14.7452 52 28C52 41.2548 41.2548 52 28 52C14.7452 52 4 41.2548 4 28Z" fill="#CAF2B8"/>
<path d="M28 17V39M33 21H25.5C24.5717 21 23.6815 21.3687 23.0251 22.0251C22.3687 22.6815 22 23.5717 22 24.5C22 25.4283 22.3687 26.3185 23.0251 26.9749C23.6815 27.6313 24.5717 28 25.5 28H30.5C31.4283 28 32.3185 28.3687 32.9749 29.0251C33.6313 29.6815 34 30.5717 34 31.5C34 32.4283 33.6313 33.3185 32.9749 33.9749C32.3185 34.6313 31.4283 35 30.5 35H22" stroke="#5CBD15" stroke-width="2" stroke-linecap="round" stroke-linejoin="round"/>
<path d="M28 48C16.9543 48 8 39.0457 8 28H0C0 43.464 12.536 56 28 56V48ZM48 28C48 39.0457 39.0457 48 28 48V56C43.464 56 56 43.464 56 28H48ZM28 8C39.0457 8 48 16.9543 48 28H56C56 12.536 43.464 0 28 0V8ZM28 0C12.536 0 0 12.536 0 28H8C8 16.9543 16.9543 8 28 8V0Z" fill="#DBF5D4"/>
</svg>
