<svg width="56" height="57" viewBox="0 0 56 57" fill="none" xmlns="http://www.w3.org/2000/svg">
<path d="M4 28.0435C4 14.7886 14.7452 4.04346 28 4.04346C41.2548 4.04346 52 14.7886 52 28.0435C52 41.2983 41.2548 52.0435 28 52.0435C14.7452 52.0435 4 41.2983 4 28.0435Z" fill="#CAF2B8"/>
<path d="M17 28.0435C17 28.0435 21 20.0435 28 20.0435C35 20.0435 39 28.0435 39 28.0435C39 28.0435 35 36.0435 28 36.0435C21 36.0435 17 28.0435 17 28.0435Z" stroke="#5CBD15" stroke-width="2" stroke-linecap="round" stroke-linejoin="round"/>
<path d="M28 31.0435C29.6569 31.0435 31 29.7003 31 28.0435C31 26.3866 29.6569 25.0435 28 25.0435C26.3431 25.0435 25 26.3866 25 28.0435C25 29.7003 26.3431 31.0435 28 31.0435Z" stroke="#5CBD15" stroke-width="2" stroke-linecap="round" stroke-linejoin="round"/>
<path d="M28 48.0435C16.9543 48.0435 8 39.0892 8 28.0435H0C0 43.5074 12.536 56.0435 28 56.0435V48.0435ZM48 28.0435C48 39.0892 39.0457 48.0435 28 48.0435V56.0435C43.464 56.0435 56 43.5074 56 28.0435H48ZM28 8.04346C39.0457 8.04346 48 16.9978 48 28.0435H56C56 12.5795 43.464 0.043457 28 0.043457V8.04346ZM28 0.043457C12.536 0.043457 0 12.5795 0 28.0435H8C8 16.9978 16.9543 8.04346 28 8.04346V0.043457Z" fill="#DBF5D4"/>
</svg>
