<svg width="32" height="32" viewBox="0 0 32 32" fill="none" xmlns="http://www.w3.org/2000/svg">
<mask id="mask0_2195_21783" style="mask-type:alpha" maskUnits="userSpaceOnUse" x="0" y="0" width="32" height="32">
<path d="M0 0H32V32H0V0Z" fill="white"/>
</mask>
<g mask="url(#mask0_2195_21783)">
<path fill-rule="evenodd" clip-rule="evenodd" d="M32 16.0082C32 24.8489 24.8367 32.016 16.0001 32.016C7.16354 32.016 0 24.8489 0 16.0082C0 7.16713 7.16354 0 16.0001 0C24.8367 0 32 7.16713 32 16.0082Z" fill="#F6BF4C"/>
</g>
<path fill-rule="evenodd" clip-rule="evenodd" d="M17.9675 3.67084C18.1778 3.8104 18.3601 3.98792 18.506 4.19351H18.9985C19.6571 4.19351 20.1932 3.6572 20.1932 2.99818V2.83564C20.1932 2.17715 19.6571 1.64111 18.9985 1.64111H18.7542C18.7641 1.72159 18.7705 1.8034 18.7705 1.88708V2.05524C18.7705 2.71399 18.4544 3.29895 17.9675 3.67084Z" fill="#FFFFFE"/>
<path fill-rule="evenodd" clip-rule="evenodd" d="M18.9966 4.97583H18.8373C18.8624 5.10309 18.8792 5.23302 18.8792 5.3675V5.53566C18.8792 6.16714 18.5901 6.73232 18.1375 7.10581C18.3213 7.21944 18.483 7.36407 18.6219 7.52823H19.7341C20.3928 7.52823 20.9285 6.99219 20.9285 6.33317V6.17089C20.9285 5.51187 20.3928 4.97583 19.7341 4.97583H18.9966Z" fill="#FFFFFE"/>
<path fill-rule="evenodd" clip-rule="evenodd" d="M19.7346 8.31055H19.0366C19.0815 8.47764 19.1056 8.65329 19.1056 8.83455V9.02892C19.1056 9.70398 18.7739 10.3015 18.2662 10.6718C18.3453 10.7295 18.4185 10.7945 18.4886 10.8629H20.6057C21.2644 10.8629 21.8002 10.3266 21.8002 9.66762V9.50534C21.8002 8.84658 21.2644 8.31055 20.6057 8.31055H19.7346Z" fill="#FFFFFE"/>
<path fill-rule="evenodd" clip-rule="evenodd" d="M22.0754 12.8403C22.0754 12.1815 21.5396 11.6455 20.881 11.6455H18.9893C19.0633 11.8554 19.1056 12.0802 19.1056 12.3155V12.5096C19.1056 13.1846 18.7739 13.7824 18.2662 14.1525C18.3651 14.1789 18.4672 14.1979 18.5741 14.1979H20.881C21.5396 14.1979 22.0754 13.6619 22.0754 13.0026V12.8403Z" fill="#FFFFFE"/>
<path fill-rule="evenodd" clip-rule="evenodd" d="M18.4185 17.5075C18.4628 17.5147 18.5056 17.5246 18.5513 17.527C18.5769 17.526 18.6023 17.523 18.6282 17.523H19.6501C19.789 17.4089 19.9288 17.2942 20.0707 17.1757C21.0209 16.3841 21.5615 15.8096 21.8311 15.2511C21.6259 15.0842 21.3677 14.98 21.0831 14.98H18.9312C19.0419 15.23 19.1063 15.5045 19.1063 15.7954V15.9895C19.1063 16.5942 18.8388 17.1351 18.4185 17.5075Z" fill="#FFFFFE"/>
<path fill-rule="evenodd" clip-rule="evenodd" d="M15.2775 3.30713H16.7357C17.4257 3.30713 17.9871 2.7457 17.9871 2.0554V1.88723C17.9871 1.19693 17.4257 0.635498 16.7357 0.635498H15.2775C14.5875 0.635498 14.0261 1.19693 14.0261 1.88723V2.0554C14.0261 2.7457 14.5875 3.30713 15.2775 3.30713Z" fill="#FFFFFE"/>
<path fill-rule="evenodd" clip-rule="evenodd" d="M15.1663 6.78763H16.8457C17.5357 6.78763 18.0971 6.22619 18.0971 5.53562V5.36746C18.0971 4.67716 17.5357 4.11572 16.8457 4.11572H15.1663C14.4763 4.11572 13.9149 4.67716 13.9149 5.36746V5.53562C13.9149 6.22619 14.4763 6.78763 15.1663 6.78763Z" fill="#FFFFFE"/>
<path fill-rule="evenodd" clip-rule="evenodd" d="M13.6904 9.02911C13.6904 9.71941 14.2516 10.2808 14.9415 10.2808H17.0726C17.7625 10.2808 18.324 9.71941 18.324 9.02911V8.83474C18.324 8.14471 17.7625 7.58301 17.0726 7.58301H14.9415C14.2516 7.58301 13.6904 8.14471 13.6904 8.83474V9.02911Z" fill="#FFFFFE"/>
<path fill-rule="evenodd" clip-rule="evenodd" d="M13.6904 12.5094C13.6904 13.1994 14.2516 13.7611 14.9415 13.7611H17.0726C17.7625 13.7611 18.324 13.1994 18.324 12.5094V12.3153C18.324 11.6247 17.7625 11.063 17.0726 11.063H14.9415C14.2516 11.063 13.6904 11.6247 13.6904 12.3153V12.5094Z" fill="#FFFFFE"/>
<path fill-rule="evenodd" clip-rule="evenodd" d="M13.6904 15.9896C13.6904 16.6582 14.2179 17.2012 14.8777 17.2351C14.8993 17.2343 14.9202 17.2319 14.9415 17.2319H17.0726C17.094 17.2319 17.1151 17.2343 17.1365 17.2351C17.7962 17.2012 18.324 16.6582 18.324 15.9896V15.7955C18.324 15.1052 17.7625 14.5435 17.0726 14.5435H14.9415C14.2516 14.5435 13.6904 15.1052 13.6904 15.7955V15.9896Z" fill="#FFFFFE"/>
<path fill-rule="evenodd" clip-rule="evenodd" d="M15.5137 19.9648C15.6957 20.1025 15.8646 20.2311 16.0263 20.3543C16.1821 20.2348 16.3475 20.1083 16.5222 19.9749L16.5789 19.9319C17.0593 19.5656 17.5983 19.1544 18.1814 18.6983C17.9823 18.3142 17.5938 18.0439 17.1371 18.0203C17.1154 18.0193 17.0951 18.0139 17.0732 18.0139H14.9422C14.9203 18.0139 14.8999 18.0193 14.8783 18.0203C14.4267 18.0436 14.0416 18.3083 13.8407 18.686C14.4331 19.1461 14.9801 19.5605 15.4675 19.9295L15.5137 19.9648Z" fill="#FFFFFE"/>
<path fill-rule="evenodd" clip-rule="evenodd" d="M14.0342 3.67084C13.8239 3.8104 13.6417 3.98792 13.4958 4.19351H13.0031C12.3444 4.19351 11.8086 3.6572 11.8086 2.99818V2.83564C11.8086 2.17715 12.3444 1.64111 13.0031 1.64111H13.2476C13.2379 1.72159 13.2313 1.8034 13.2313 1.88708V2.05524C13.2313 2.71399 13.5474 3.29895 14.0342 3.67084Z" fill="#FFFFFE"/>
<path fill-rule="evenodd" clip-rule="evenodd" d="M13.0063 4.97583H13.1658C13.141 5.10309 13.1239 5.23302 13.1239 5.3675V5.53566C13.1239 6.16714 13.413 6.73232 13.8657 7.10581C13.6818 7.21944 13.5204 7.36407 13.3815 7.52823H12.269C11.6104 7.52823 11.0746 6.99219 11.0746 6.33317V6.17089C11.0746 5.51187 11.6104 4.97583 12.269 4.97583H13.0063Z" fill="#FFFFFE"/>
<path fill-rule="evenodd" clip-rule="evenodd" d="M12.2675 8.31055H12.9655C12.9206 8.47764 12.8962 8.65329 12.8962 8.83455V9.02892C12.8962 9.70398 13.2281 10.3015 13.7358 10.6718C13.6567 10.7295 13.5835 10.7945 13.5135 10.8629H11.3964C10.7377 10.8629 10.2019 10.3266 10.2019 9.66762V9.50534C10.2019 8.84658 10.7377 8.31055 11.3964 8.31055H12.2675Z" fill="#FFFFFE"/>
<path fill-rule="evenodd" clip-rule="evenodd" d="M9.92664 12.8403C9.92664 12.1815 10.4624 11.6455 11.1211 11.6455H13.0127C12.939 11.8554 12.8962 12.0802 12.8962 12.3155V12.5096C12.8962 13.1846 13.2281 13.7824 13.7358 14.1525C13.6369 14.1789 13.5351 14.1979 13.428 14.1979H11.1211C10.4624 14.1979 9.92664 13.6619 9.92664 13.0026V12.8403Z" fill="#FFFFFE"/>
<path fill-rule="evenodd" clip-rule="evenodd" d="M13.583 17.5075C13.5392 17.5147 13.4962 17.5246 13.4507 17.527C13.4248 17.526 13.3994 17.523 13.3735 17.523H12.3517C12.2127 17.4089 12.073 17.2942 11.9311 17.1757C10.9809 16.3841 10.4403 15.8096 10.1707 15.2511C10.3761 15.0842 10.6343 14.98 10.9189 14.98H13.0705C12.9599 15.23 12.8952 15.5045 12.8952 15.7954V15.9895C12.8952 16.5942 13.1629 17.1351 13.583 17.5075Z" fill="#FFFFFE"/>
<path fill-rule="evenodd" clip-rule="evenodd" d="M11.6253 26.7103C11.6387 24.8102 12.8575 22.8762 15.248 20.9628L15.2712 20.9443C14.3697 20.261 12.7527 19.0202 11.3704 17.877C9.8609 16.6285 9.04322 15.7556 9.04322 14.3312C9.04322 14.2574 8.97481 14.1978 8.89037 14.1978C8.8062 14.1978 8.73779 14.2574 8.73779 14.3312V20.3556L10.8819 22.5538L8.73779 21.3063V23.7833C8.73779 25.535 9.90473 26.6531 11.1657 27.6008C11.3905 27.7698 11.6197 27.9452 11.8493 28.1224C11.6975 27.6663 11.6219 27.1953 11.6253 26.7103Z" fill="#FFFFFE"/>
<path fill-rule="evenodd" clip-rule="evenodd" d="M23.1994 21.398C22.7579 21.7729 22.3021 22.1156 21.8417 22.4477C20.927 23.1128 19.9581 23.7133 19.0677 24.3453C18.141 24.9918 17.2605 25.6481 16.4821 26.4427C16.0973 26.8392 15.7374 27.264 15.4525 27.7383C15.1693 28.2101 14.9523 28.7395 14.9357 29.3036C14.9047 28.7398 15.0792 28.1781 15.3293 27.6712C15.5808 27.1602 15.9135 26.6943 16.2737 26.2555C16.9954 25.3813 17.862 24.6161 18.7168 23.9077C19.6048 23.1765 20.501 22.5305 21.3511 21.8135C21.7751 21.4587 22.1906 21.0962 22.5778 20.7163C22.8234 20.4735 23.0583 20.2212 23.2662 19.9637V14.3312C23.2662 14.2574 23.1986 14.1978 23.115 14.1978C23.031 14.1978 22.9632 14.2574 22.9632 14.3312C22.9632 15.7556 22.1514 16.6285 20.6525 17.877C19.3149 18.9911 18.1033 19.9153 17.1301 20.6577C16.6336 21.0369 16.2047 21.3638 15.8825 21.6229L15.817 21.6756C13.6517 23.4091 12.5481 25.1051 12.5368 26.7167C12.5284 27.9302 13.1539 29.0619 14.3957 30.0808C14.5509 30.2083 15.8664 31.3317 15.8793 31.343C15.9087 31.3681 15.9469 31.3809 15.9851 31.3809C16.0198 31.3809 16.0548 31.3702 16.0834 31.3491C16.1107 31.3285 18.8376 29.2819 20.861 27.5968C22.1284 26.5408 23.2662 25.4546 23.2662 23.7833V21.3387C23.244 21.3585 23.2218 21.3785 23.1994 21.398Z" fill="#FFFFFE"/>
</svg>
