<svg width="163" height="26" viewBox="0 0 163 26" fill="none" xmlns="http://www.w3.org/2000/svg">
<path d="M55.0198 20.5676L55.057 20.5428C55.0941 20.5181 55.1189 20.4933 55.1313 20.4438C55.156 20.3694 55.1684 20.2951 55.1684 20.2208V7.73675C55.1684 7.65005 55.156 7.58813 55.1313 7.5262C55.1065 7.47666 55.0817 7.43951 55.0198 7.38997L54.9827 7.3652C54.9579 7.34043 54.9207 7.31566 54.8836 7.31566C54.7721 7.29089 54.7102 7.29089 54.673 7.29089H53.0258C52.8648 7.29089 52.7905 7.30327 52.7657 7.30327C52.7534 7.30327 52.741 7.31566 52.741 7.31566C52.741 7.31566 52.7038 7.35281 52.6667 7.45189C52.6171 7.56336 52.5676 7.71198 52.4933 7.88537L51.9483 9.60688L51.5149 8.98763C51.3291 8.72755 51.1185 8.46746 50.8708 8.24453C50.6231 8.0216 50.3507 7.82344 50.0534 7.66244C49.7562 7.50143 49.4094 7.3652 49.0502 7.2785C48.6911 7.17942 48.2824 7.12988 47.8613 7.12988C46.9076 7.12988 46.0035 7.30327 45.1737 7.66244C44.3439 8.00922 43.6132 8.50462 42.994 9.12387C42.3747 9.74312 41.8917 10.4738 41.5326 11.316C41.1734 12.1458 41 13.0623 41 14.0407C41 14.6847 41.0867 15.3164 41.2477 15.8985C41.4087 16.4929 41.644 17.0503 41.9413 17.558C42.2385 18.0658 42.5977 18.5365 43.0064 18.9576C43.4151 19.3786 43.8857 19.7378 44.3935 20.035C44.9013 20.3323 45.4462 20.5676 46.0283 20.7286C46.6104 20.8896 47.2297 20.9763 47.8613 20.9763C48.2081 20.9763 48.5425 20.9392 48.8645 20.8525C49.1865 20.7658 49.4961 20.6543 49.781 20.5181C50.0658 20.3818 50.3259 20.2208 50.5612 20.035C50.7965 19.8493 51.0195 19.6635 51.2052 19.4777L51.6511 19.0319L51.9607 20.1217C51.9979 20.2456 52.0474 20.3447 52.0846 20.4561C52.1093 20.5304 52.1465 20.58 52.1713 20.6295C52.196 20.6543 52.2208 20.6791 52.258 20.6915C52.2827 20.7038 52.357 20.7286 52.4933 20.7286H54.6854C54.7226 20.7286 54.7969 20.7286 54.896 20.7038C54.9331 20.6915 54.9703 20.6791 54.995 20.6543L55.0198 20.5676ZM51.4034 15.5269C51.2052 15.9975 50.9328 16.4062 50.586 16.753C50.2392 17.0998 49.8305 17.3723 49.3599 17.5704C48.8892 17.7686 48.3815 17.8677 47.8365 17.8677C47.304 17.8677 46.8086 17.7686 46.3627 17.558C45.9292 17.3599 45.5453 17.075 45.2233 16.7283C44.9137 16.3815 44.666 15.9728 44.505 15.5021C44.3439 15.0439 44.2573 14.5361 44.2573 14.0036C44.2573 13.4958 44.3439 12.988 44.505 12.5297C44.666 12.0591 44.9137 11.638 45.2233 11.2789C45.5329 10.9197 45.9168 10.6225 46.3627 10.4119C46.8086 10.2014 47.304 10.0899 47.8365 10.0899C48.3815 10.0899 48.9016 10.2014 49.3723 10.3995C49.8429 10.6101 50.2516 10.8949 50.5984 11.2541C50.9451 11.6133 51.2176 12.0343 51.4158 12.505C51.6139 12.9756 51.713 13.4834 51.713 14.0036C51.7006 14.5609 51.6016 15.0687 51.4034 15.5269Z" fill="white"/>
<path d="M69.2272 21.9919C69.5863 21.1373 69.7597 20.1465 69.7597 19.0566V7.7739C69.7597 7.69959 69.7473 7.63767 69.7226 7.58813C69.6978 7.53859 69.6606 7.48905 69.6235 7.46428C69.574 7.42712 69.512 7.38997 69.4501 7.3652C69.3882 7.34043 69.3263 7.32804 69.2643 7.32804H67.6171C67.4809 7.32804 67.419 7.34043 67.3942 7.35281C67.3447 7.37758 67.3199 7.38997 67.3075 7.40235C67.2827 7.43951 67.2456 7.48905 67.2332 7.55097C67.196 7.65005 67.1589 7.76152 67.1093 7.88537L66.5892 9.52019L66.1557 8.98763C65.9451 8.72755 65.7098 8.47985 65.4745 8.24453C65.2392 8.0216 64.9667 7.82344 64.6819 7.66244C64.397 7.50143 64.075 7.3652 63.7282 7.26612C63.3815 7.16704 62.9975 7.12988 62.5764 7.12988C61.6352 7.12988 60.7558 7.30327 59.9508 7.66244C59.1458 8.00922 58.4522 8.50462 57.8701 9.12387C57.288 9.74312 56.8174 10.4738 56.4954 11.3036C56.161 12.1334 56 13.0499 56 14.0159C56 14.982 56.161 15.8737 56.4954 16.6787C56.8174 17.4714 57.288 18.1773 57.8577 18.747C58.4398 19.3167 59.1458 19.775 59.9384 20.097C60.7435 20.419 61.6228 20.58 62.5764 20.58C62.9851 20.58 63.3443 20.5304 63.6539 20.4314C63.9635 20.3323 64.236 20.2084 64.4837 20.0474C64.7314 19.8864 64.9544 19.7007 65.1649 19.5025C65.3754 19.2919 65.5984 19.0566 65.8089 18.8337L66.4529 18.1525V19.2424C66.4529 19.2548 66.4529 19.2548 66.4529 19.2672C66.4653 19.3043 66.4653 19.3539 66.4653 19.4034V19.552C66.4653 19.7502 66.4529 19.9484 66.4405 20.1341C66.4282 20.3323 66.3786 20.5304 66.3291 20.7038C66.2176 21.0878 66.0318 21.4222 65.747 21.7194C65.4869 21.9919 65.1773 22.2396 64.8305 22.4254C64.4837 22.6111 64.1122 22.7597 63.7282 22.8588C63.3443 22.9579 62.9604 23.0074 62.6012 23.0074C62.3907 23.0074 62.1553 22.9951 61.9076 22.9827C61.6352 22.9579 61.3627 22.9208 61.0902 22.8464C60.8178 22.7845 60.5453 22.6854 60.2852 22.574C60.0127 22.4501 59.7774 22.2891 59.5669 22.091C59.3192 21.9176 59.2201 21.9052 59.1953 21.9052C59.1582 21.9052 59.1334 21.9176 59.1086 21.93C59.0715 21.9547 58.9972 22.0043 58.9105 22.1033L57.8701 23.54C57.7834 23.6762 57.7339 23.8001 57.7339 23.9116C57.7339 23.9859 57.7463 24.0602 57.7958 24.1221C57.8454 24.2088 57.9073 24.2707 57.9816 24.3326L58.0064 24.3574C58.3036 24.6175 58.6628 24.8652 59.0591 25.0634C59.4678 25.2739 59.8889 25.4473 60.3224 25.5711C60.7558 25.7074 61.2017 25.8065 61.6352 25.8808C62.0686 25.9427 62.4897 25.9798 62.8613 25.9798C63.8397 25.9798 64.7686 25.8188 65.6108 25.5092C66.4529 25.1996 67.196 24.7537 67.8029 24.1716C68.3726 23.5648 68.868 22.8464 69.2272 21.9919ZM66.6759 14.2265C66.6511 14.7343 66.5272 15.2173 66.3291 15.6631C66.1185 16.0966 65.8461 16.4929 65.4993 16.8149C65.1525 17.137 64.7438 17.397 64.2856 17.5828C63.8273 17.7686 63.3319 17.8553 62.8117 17.8553C62.2792 17.8553 61.7838 17.7562 61.3503 17.558C60.9045 17.3599 60.5329 17.0874 60.2109 16.7406C59.9013 16.3939 59.6536 15.9852 59.4926 15.5145C59.3316 15.0563 59.2449 14.5485 59.2449 14.0159C59.2449 13.5082 59.3316 13.0004 59.4926 12.5421C59.6536 12.0715 59.9013 11.6504 60.2109 11.3036C60.5205 10.9445 60.9045 10.6596 61.3379 10.4491C61.7838 10.2385 62.2792 10.1271 62.8117 10.1271C63.3319 10.1271 63.8273 10.2261 64.2979 10.4243C64.7562 10.6225 65.1649 10.8949 65.4993 11.2293C65.8337 11.5637 66.1185 11.96 66.3291 12.4059C66.5396 12.8518 66.6511 13.3224 66.6759 13.8302V13.8425V14.2265Z" fill="white"/>
<path d="M83.3786 8.75827C83.3786 8.6468 83.2795 8.53534 83.0814 8.42387L83.0442 8.3991C82.7222 8.16379 82.425 7.96563 82.1649 7.79224C81.9048 7.63123 81.6447 7.495 81.3846 7.38353C81.1245 7.28445 80.8521 7.19776 80.5672 7.14822C80.2824 7.09868 79.9356 7.06152 79.564 7.06152C79.2297 7.06152 78.9324 7.11106 78.6723 7.21014C78.3999 7.30922 77.8549 7.60646 77.632 7.77985C76.7898 8.44864 76.2325 9.34036 76.2325 9.34036C76.2325 9.34036 75.6628 7.80462 75.5885 7.656C75.5265 7.53215 75.4646 7.42069 75.3779 7.34638C75.3655 7.33399 75.316 7.28445 75.1921 7.28445H73.5202C73.4582 7.28445 73.3839 7.29684 73.3096 7.32161C73.2477 7.34638 73.1858 7.37115 73.1362 7.4083C73.0991 7.44546 73.0619 7.48261 73.0372 7.53215C73.0124 7.58169 73 7.656 73 7.73031V20.1277C73 20.4869 73.1238 20.6107 73.4954 20.6107H75.9848C76.1829 20.6107 76.3316 20.5736 76.3935 20.5116C76.4802 20.4249 76.4926 20.2515 76.4926 20.1277V12.0031L76.5421 11.9164C76.7031 11.6564 76.8641 11.421 77.0251 11.1981C77.1985 10.9752 77.3843 10.7646 77.5824 10.6036C77.793 10.4302 78.0283 10.294 78.2884 10.1949C78.5485 10.0958 78.8457 10.0463 79.1801 10.0463C79.6507 10.0463 80.0842 10.133 80.4558 10.3064C80.8025 10.4674 81.1493 10.7027 81.4837 11.0247C81.5952 11.0743 81.6943 11.0866 81.781 11.0866C81.8924 11.0866 82.041 11.0619 82.2144 10.8266L83.2176 9.11743C83.3662 8.93166 83.3786 8.80781 83.3786 8.75827Z" fill="white"/>
<path d="M94.8029 18.8644C95.2116 18.4557 95.5831 17.9851 95.8804 17.4773C96.1776 16.9695 96.413 16.4122 96.574 15.8177C96.735 15.2232 96.8217 14.604 96.8217 13.96C96.8217 12.9939 96.6359 12.0774 96.2767 11.2477C95.9176 10.4179 95.4221 9.67476 94.8029 9.05551C94.1836 8.43626 93.4529 7.95324 92.6108 7.59408C91.781 7.2473 90.8769 7.06152 89.9232 7.06152C89.2792 7.06152 88.6599 7.14822 88.0655 7.30922C87.471 7.47023 86.9137 7.70554 86.4059 7.9904C85.8981 8.28764 85.4275 8.6468 85.0188 9.05551C84.5977 9.4766 84.2385 9.93484 83.9413 10.4426C83.644 10.9504 83.4087 11.5077 83.2477 12.1022C83.0867 12.6967 83 13.3159 83 13.96C83 14.604 83.0867 15.2232 83.2477 15.8177C83.4087 16.4122 83.644 16.9695 83.9413 17.4773C84.2385 17.9851 84.5977 18.4557 85.0188 18.8644C85.4275 19.2855 85.8981 19.6447 86.4059 19.9419C86.9137 20.2392 87.471 20.4745 88.0655 20.6355C88.6599 20.7965 89.2792 20.8832 89.9232 20.8832C90.5548 20.8832 91.1741 20.7965 91.7562 20.6355C92.3383 20.4745 92.8956 20.2392 93.4034 19.9419C93.9236 19.6323 94.3942 19.2731 94.8029 18.8644ZM93.1557 15.4338C92.9947 15.9044 92.7594 16.3131 92.4621 16.6599C92.1649 17.0067 91.781 17.2915 91.3475 17.4897C90.914 17.6878 90.4186 17.7993 89.8861 17.7993C89.3411 17.7993 88.8333 17.7002 88.3999 17.4897C87.954 17.2915 87.5824 17.0067 87.2728 16.6599C86.9632 16.3131 86.7279 15.9044 86.5545 15.4338C86.3935 14.9755 86.3068 14.4677 86.3068 13.9352C86.3068 13.4274 86.3935 12.9196 86.5545 12.4614C86.7155 11.9908 86.9632 11.5697 87.2604 11.2105C87.5701 10.8513 87.954 10.5541 88.3875 10.3435C88.8333 10.133 89.3287 10.0215 89.8861 10.0215C90.4186 10.0215 90.914 10.133 91.3475 10.3435C91.781 10.5541 92.1525 10.8513 92.4621 11.2105C92.7594 11.5697 92.9947 11.9908 93.1433 12.4614C93.3043 12.932 93.3786 13.415 93.3786 13.9352C93.391 14.4801 93.3167 14.9755 93.1557 15.4338Z" fill="white"/>
<path d="M104.741 10.9971C104.815 10.9228 104.852 10.7866 104.852 10.576V8.43343C104.852 8.26004 104.815 8.13619 104.741 8.07426C104.691 8.02472 104.604 7.9628 104.419 7.9628H102.524L102.536 4.54454C102.536 4.35876 102.511 4.21014 102.449 4.11106C102.437 4.08629 102.363 4.06152 102.226 4.06152H102.127H102.115L99.6256 4.92847C99.3903 5.01517 99.2045 5.11425 99.0807 5.20094C99.0559 5.21333 99.0064 5.26287 99.0064 5.42387L98.994 7.97518H97.483C97.1239 7.97518 97 8.08665 97 8.44581V10.5884C97 11.0343 97.1734 11.1086 97.483 11.1086H98.994L99.0064 20.8308C99.0064 21.19 99.1178 21.3138 99.4894 21.3138H101.991C102.189 21.3138 102.326 21.2767 102.425 21.19C102.449 21.1652 102.548 21.0785 102.548 20.8308L102.536 11.1086H104.431C104.604 11.0962 104.691 11.0343 104.741 10.9971Z" fill="white"/>
<path d="M118.803 18.8644C119.212 18.4557 119.583 17.9851 119.88 17.4773C120.178 16.9695 120.413 16.4122 120.574 15.8177C120.735 15.2232 120.822 14.604 120.822 13.96C120.822 12.9939 120.636 12.0774 120.277 11.2477C119.918 10.4179 119.422 9.67476 118.803 9.05551C118.184 8.43626 117.453 7.95324 116.611 7.59408C115.781 7.2473 114.877 7.06152 113.923 7.06152C113.279 7.06152 112.66 7.14822 112.065 7.30922C111.471 7.47023 110.914 7.70554 110.406 7.9904C109.898 8.28764 109.427 8.6468 109.019 9.05551C108.598 9.4766 108.238 9.93484 107.941 10.4426C107.644 10.9504 107.409 11.5077 107.248 12.1022C107.087 12.6967 107 13.3159 107 13.96C107 14.604 107.087 15.2232 107.248 15.8177C107.409 16.4122 107.644 16.9695 107.941 17.4773C108.238 17.9851 108.598 18.4557 109.019 18.8644C109.44 19.2855 109.898 19.6447 110.406 19.9419C110.914 20.2392 111.471 20.4745 112.065 20.6355C112.66 20.7965 113.279 20.8832 113.923 20.8832C114.555 20.8832 115.174 20.7965 115.756 20.6355C116.338 20.4745 116.896 20.2392 117.403 19.9419C117.924 19.6323 118.382 19.2731 118.803 18.8644ZM117.156 15.4338C116.995 15.9044 116.759 16.3131 116.462 16.6599C116.165 17.0067 115.781 17.2915 115.347 17.4897C114.914 17.6878 114.419 17.7993 113.886 17.7993C113.341 17.7993 112.833 17.7002 112.4 17.4897C111.954 17.2915 111.582 17.0067 111.273 16.6599C110.963 16.3131 110.728 15.9044 110.554 15.4338C110.393 14.9755 110.307 14.4677 110.307 13.9352C110.307 13.4274 110.393 12.9196 110.554 12.4614C110.715 11.9908 110.963 11.5697 111.26 11.2105C111.57 10.8513 111.954 10.5541 112.387 10.3435C112.833 10.133 113.329 10.0215 113.886 10.0215C114.419 10.0215 114.914 10.133 115.347 10.3435C115.781 10.5541 116.153 10.8513 116.462 11.2105C116.759 11.5697 116.995 11.9908 117.143 12.4614C117.304 12.932 117.379 13.4274 117.379 13.9352C117.391 14.4801 117.317 14.9755 117.156 15.4338Z" fill="white"/>
<path d="M131.078 20.1404C131.227 20.351 131.326 20.4501 131.388 20.512C131.45 20.5615 131.487 20.5615 131.499 20.5615H135.24C135.401 20.5615 135.413 20.4253 135.388 20.3634C135.363 20.3138 135.326 20.2519 135.264 20.19L129.332 12.5484L134.1 7.50774C134.174 7.42104 134.199 7.38389 134.199 7.3715C134.199 7.3715 134.199 7.35912 134.199 7.33435C134.199 7.28481 134.187 7.27242 134.187 7.27242C134.187 7.27242 134.137 7.23527 133.964 7.23527H130.558C130.397 7.23527 130.273 7.29719 130.149 7.43343L125.505 12.5856V3.42069C125.505 3.37115 125.493 3.32161 125.48 3.25968C125.468 3.22253 125.455 3.19776 125.431 3.1606C125.406 3.13583 125.381 3.11106 125.332 3.08629C125.307 3.07391 125.257 3.06152 125.158 3.06152H122.508C122.285 3.06152 122.173 3.08629 122.124 3.09868C122.062 3.12345 122.037 3.14822 122.037 3.14822C122.025 3.1606 122.025 3.17299 122.012 3.22253C122 3.32161 122 3.42069 122 3.54454V20.19C122 20.2024 122.012 20.2271 122.025 20.2519C122.037 20.3014 122.074 20.3634 122.111 20.4253C122.136 20.4748 122.186 20.5244 122.248 20.5615C122.272 20.5739 122.297 20.5987 122.372 20.5987H125.158C125.232 20.5987 125.294 20.5863 125.319 20.5615C125.369 20.5244 125.406 20.4872 125.443 20.4377C125.48 20.3881 125.493 20.3262 125.505 20.2767C125.517 20.1776 125.53 20.128 125.53 20.1157V16.3878L127.177 14.6786L131.078 20.1404Z" fill="white"/>
<path d="M148.066 14.282C148.079 14.0467 148.079 13.737 148.079 13.3531C148.079 12.7958 148.004 12.2508 147.843 11.7307C147.682 11.2105 147.459 10.7027 147.174 10.2445C146.89 9.78622 146.543 9.35275 146.146 8.95643C145.75 8.56011 145.304 8.22571 144.834 7.95324C144.351 7.68077 143.843 7.45784 143.298 7.29684C142.753 7.14822 142.196 7.06152 141.614 7.06152C140.982 7.06152 140.375 7.14822 139.805 7.30922C139.236 7.47023 138.703 7.71793 138.208 8.01517C137.725 8.31241 137.279 8.68396 136.883 9.10505C136.486 9.52614 136.152 9.99677 135.867 10.5046C135.594 11.0123 135.372 11.5573 135.223 12.127C135.074 12.6967 135 13.3036 135 13.9228C135 14.9012 135.186 15.8301 135.57 16.6599C135.941 17.5021 136.461 18.2328 137.105 18.852C137.749 19.4713 138.505 19.9667 139.36 20.3135C140.214 20.6602 141.131 20.846 142.084 20.846C142.939 20.846 143.756 20.685 144.524 20.3754C145.292 20.0534 145.998 19.6075 146.605 19.0378L146.642 19.013C146.729 18.9511 146.791 18.8892 146.852 18.8025C146.877 18.7777 146.902 18.7282 146.902 18.6415C146.902 18.592 146.902 18.5548 146.877 18.5053C146.877 18.5053 146.865 18.4681 146.791 18.3814L145.626 17.0686C145.527 16.9695 145.428 16.8828 145.354 16.8333C145.317 16.8085 145.292 16.7961 145.267 16.7961C145.23 16.7961 145.205 16.8085 145.18 16.8209C145.131 16.8457 145.057 16.8952 144.945 16.9943C144.797 17.1429 144.586 17.2915 144.351 17.4278C144.115 17.564 143.855 17.6755 143.57 17.7745C143.298 17.8736 143.001 17.9479 142.703 18.0099C142.406 18.0718 142.097 18.0966 141.812 18.0966C141.49 18.0966 141.143 18.047 140.784 17.9603C140.412 17.8736 140.053 17.7126 139.731 17.5021C139.397 17.2915 139.099 16.9943 138.852 16.6475C138.592 16.2883 138.418 15.8301 138.344 15.3099L138.282 14.8765H146.691C147.125 14.8765 147.459 14.8517 147.67 14.8021C147.769 14.7774 147.905 14.7278 147.967 14.6535C148.029 14.5792 148.066 14.4554 148.066 14.282ZM138.257 12.4862L138.505 11.9536C138.629 11.6811 138.802 11.4087 139.013 11.1362C139.223 10.8761 139.446 10.6284 139.706 10.4179C139.966 10.2073 140.251 10.0339 140.548 9.91007C140.858 9.77384 141.193 9.71191 141.527 9.71191C141.96 9.71191 142.357 9.77384 142.691 9.8853C143.025 9.99677 143.335 10.1702 143.595 10.3807C143.855 10.5789 144.078 10.8266 144.289 11.099C144.475 11.3591 144.66 11.644 144.821 11.9412L145.119 12.4862H138.257Z" fill="white"/>
<path d="M159.252 20.5364C159.252 20.5364 159.338 20.5983 159.648 20.5983H162.212C162.311 20.5983 162.447 20.5859 162.509 20.5116C162.571 20.4373 162.608 20.3011 162.608 20.1153V12.8577C162.608 12.0527 162.496 11.2848 162.261 10.5789C162.038 9.87292 161.704 9.25367 161.27 8.7335C160.849 8.21333 160.317 7.80462 159.71 7.50738C159.103 7.21014 158.397 7.06152 157.617 7.06152C157.059 7.06152 156.552 7.12345 156.106 7.2473C155.66 7.37115 155.251 7.50738 154.917 7.70554C153.579 8.53534 153.158 9.84815 153.158 9.84815L152.688 7.87893C152.65 7.77985 152.613 7.68077 152.588 7.59408C152.564 7.53215 152.527 7.47023 152.489 7.42069C152.452 7.38353 152.415 7.34638 152.366 7.32161C152.328 7.29684 152.266 7.28445 152.192 7.28445H150.52C150.446 7.28445 150.372 7.29684 150.285 7.30922C150.248 7.32161 150.198 7.33399 150.161 7.37115L150.173 7.38353C150.124 7.42069 150.087 7.45784 150.05 7.51977C150.012 7.58169 150 7.656 150 7.73031V20.1277C150 20.2887 150.037 20.4125 150.111 20.4992C150.173 20.5736 150.322 20.6107 150.52 20.6107H153.022C153.096 20.6107 153.171 20.5983 153.22 20.5859C153.27 20.5736 153.319 20.5488 153.381 20.5116C153.393 20.4992 153.431 20.4745 153.455 20.4002C153.493 20.3135 153.505 20.2392 153.505 20.1525V12.9196C153.53 12.5357 153.641 12.1641 153.827 11.8421C154 11.5201 154.223 11.2477 154.483 11C154.743 10.7646 155.041 10.5789 155.35 10.4426C156.044 10.1454 156.725 10.1825 157.369 10.455C157.703 10.5912 158.013 10.7894 158.286 11.0371C158.558 11.2848 158.769 11.5697 158.942 11.8917C159.115 12.2261 159.202 12.5852 159.202 12.9568V20.1772C159.202 20.4621 159.252 20.5364 159.252 20.5364Z" fill="white"/>
<path d="M10.4653 21.4221C10.936 20.9267 11.357 20.3075 11.7038 19.6015L14.1932 13.5329L10.713 5.06152H10.3415C9.74699 5.06152 9.22682 5.17299 8.79335 5.38353C8.3351 5.60646 7.92639 5.87893 7.57961 6.21333C7.23283 6.54772 6.92321 6.93166 6.67551 7.34036C6.41543 7.76145 6.21727 8.17016 6.05626 8.54171C5.79618 9.17334 5.51132 9.8669 5.17693 10.6719C4.8673 11.4274 4.53291 12.2448 4.17374 13.0994C3.81458 13.9663 3.45541 14.8209 3.10863 15.6259C2.74947 16.4681 2.40269 17.2855 2.08068 18.0534C1.3995 19.6758 0.705945 21.323 0 22.9702H6.48974C7.40623 22.9702 8.18648 22.834 8.81811 22.5615C9.44975 22.3014 9.99469 21.9175 10.4653 21.4221Z" fill="#3E6733"/>
<path d="M26.0384 13.8731C26.1251 13.7369 26.1374 13.5882 26.1127 13.452C26.0755 13.3158 26.0012 13.1795 25.865 13.1052C25.6049 12.9442 25.2581 13.0185 25.0847 13.2786C24.9237 13.5387 24.998 13.8855 25.2581 14.0589C25.5306 14.2199 25.8774 14.1332 26.0384 13.8731Z" fill="#BED429"/>
<path d="M23.0384 8.8731C23.1251 8.73686 23.1374 8.58824 23.1127 8.45201C23.0755 8.31577 23.0012 8.17954 22.865 8.10523C22.6049 7.94422 22.2581 8.01853 22.0847 8.27862C21.9237 8.5387 21.998 8.88548 22.2581 9.05887C22.5182 9.21988 22.865 9.14557 23.0384 8.8731Z" fill="#BED429"/>
<path d="M22.1313 14.8082L19.3075 13.7059C19.1713 13.8793 19.0103 14.0156 18.8121 14.0899C18.5149 14.2137 18.1805 14.2385 17.8585 14.1146C17.2144 13.8669 16.8924 13.1362 17.1401 12.4922C17.3878 11.8482 18.1185 11.5262 18.7626 11.7863C19.2951 11.9968 19.6047 12.5294 19.5552 13.0619L21.7721 13.9289L19.8648 9.19779L17.9947 8.29368C17.6355 8.70239 17.0287 8.83862 16.5209 8.59092C15.9016 8.29368 15.6415 7.5382 15.9388 6.91895C16.236 6.2997 16.9915 6.03962 17.6108 6.33686C17.9204 6.48548 18.1433 6.74556 18.2424 7.05519C18.3167 7.25335 18.3291 7.46389 18.2919 7.67444L19.4809 8.25653L18.1681 5.01166C17.9575 5.03643 17.747 4.99928 17.5488 4.91258C17.2516 4.78873 17.0039 4.54103 16.88 4.23141C16.62 3.58739 16.942 2.85667 17.586 2.60897C18.23 2.34889 18.9607 2.6709 19.2084 3.31492C19.419 3.84747 19.2332 4.42957 18.8121 4.76396L21.1405 10.5354L21.8217 9.45787C21.673 9.29687 21.5863 9.11109 21.5368 8.90055C21.4625 8.59092 21.512 8.24414 21.6978 7.95929C22.0694 7.3772 22.8372 7.20381 23.4193 7.56297C24.0014 7.93452 24.1748 8.70239 23.8156 9.28448C23.5184 9.7675 22.9363 9.96566 22.4037 9.81704L21.4625 11.3156L23.2707 15.799L24.4101 14.0032C24.2615 13.8422 24.1748 13.6564 24.1253 13.4458C24.051 13.1362 24.1005 12.7894 24.2863 12.5046C24.6578 11.9225 25.4257 11.7491 26.0078 12.1083C26.5899 12.4798 26.7633 13.2477 26.4041 13.8298C26.1069 14.3128 25.5248 14.511 24.9922 14.3623L23.5927 16.5792L25.3018 20.8273H31.903C31.0113 18.7219 30.1444 16.6659 29.2898 14.6472C28.9306 13.7926 28.5591 12.9009 28.1628 11.972C27.7664 11.0432 27.3701 10.1143 26.9862 9.19779C26.6023 8.2813 26.2307 7.38958 25.8839 6.53502C25.5371 5.68045 25.2151 4.9002 24.9179 4.18187C24.7445 3.74839 24.4968 3.27776 24.1996 2.78236C23.9023 2.28696 23.5432 1.8411 23.1097 1.4324C22.6886 1.02369 22.1932 0.689298 21.6235 0.416828C21.0538 0.144358 20.4098 0.0205078 19.679 0.0205078H8V0.255823C8.33439 0.255823 8.68117 0.392058 9.04034 0.652143C9.3995 0.924613 9.74628 1.24662 10.0807 1.64294C10.4151 2.03926 10.7247 2.47274 11.0219 2.93098C11.3068 3.40161 11.5669 3.8227 11.7774 4.19425L16.9543 16.7774C17.3754 17.6196 17.8585 18.3379 18.4282 18.9324C18.9979 19.5269 19.6543 19.9851 20.4221 20.3195C21.19 20.6415 22.1065 20.8149 23.1964 20.8149H24.5587L22.1313 14.8082Z" fill="#BED429"/>
<path d="M17.8108 7.05571C17.526 6.91948 17.1916 7.04333 17.0553 7.3158C16.9934 7.45203 16.981 7.61304 17.0306 7.74927C17.0801 7.88551 17.1792 8.00936 17.3154 8.07128C17.6003 8.20752 17.9347 8.08367 18.0709 7.8112C18.2071 7.53873 18.0833 7.19195 17.8108 7.05571Z" fill="#BED429"/>
<path d="M18.7679 12.0407C18.6192 11.9788 18.4706 11.9912 18.3344 12.0531C18.1982 12.115 18.0867 12.2141 18.0372 12.3627C17.9257 12.6476 18.0743 12.982 18.3592 13.0934C18.644 13.2049 18.9784 13.0563 19.0899 12.7714C19.2013 12.4866 19.0527 12.1646 18.7679 12.0407Z" fill="#BED429"/>
<path d="M18.7926 3.04812C18.6564 2.9862 18.5078 2.9862 18.3592 3.03574C18.0743 3.1472 17.9257 3.4816 18.0372 3.76645C18.1486 4.05131 18.483 4.19993 18.7679 4.08846C19.0527 3.977 19.2013 3.6426 19.0899 3.35775C19.028 3.20913 18.9165 3.09766 18.7926 3.04812Z" fill="#BED429"/>
</svg>
