<svg width="24" height="24" viewBox="0 0 24 24" fill="none" xmlns="http://www.w3.org/2000/svg">
<path fill-rule="evenodd" clip-rule="evenodd" d="M6.44366 0.913327C7.20015 0.4908 8.07195 0.25 9 0.25C9.92805 0.25 10.7999 0.4908 11.5563 0.913327L12.1098 0.359835C12.2563 0.213388 12.4937 0.213388 12.6402 0.359835C12.7866 0.506281 12.7866 0.743719 12.6402 0.890165L12.1959 1.33446C13.4449 2.29419 14.25 3.80307 14.25 5.5H3.75C3.75 3.80307 4.55509 2.29419 5.80413 1.33446L5.35983 0.890165C5.21339 0.743719 5.21339 0.506281 5.35983 0.359835C5.50628 0.213388 5.74372 0.213388 5.89017 0.359835L6.44366 0.913327ZM7.5 3.25C7.5 3.66421 7.16421 4 6.75 4C6.33579 4 6 3.66421 6 3.25C6 2.83579 6.33579 2.5 6.75 2.5C7.16421 2.5 7.5 2.83579 7.5 3.25ZM11.25 4C11.6642 4 12 3.66421 12 3.25C12 2.83579 11.6642 2.5 11.25 2.5C10.8358 2.5 10.5 2.83579 10.5 3.25C10.5 3.66421 10.8358 4 11.25 4Z" fill="#87C527"/>
<path d="M0.75 7.375C0.75 6.75368 1.25368 6.25 1.875 6.25C2.49632 6.25 3 6.75368 3 7.375V11.875C3 12.4963 2.49632 13 1.875 13C1.25368 13 0.75 12.4963 0.75 11.875V7.375Z" fill="#87C527"/>
<path d="M6 16V18.625C6 19.2463 6.50368 19.75 7.125 19.75C7.74632 19.75 8.25 19.2463 8.25 18.625V16H9.75V18.625C9.75 19.2463 10.2537 19.75 10.875 19.75C11.4963 19.75 12 19.2463 12 18.625V16H12.75C13.5784 16 14.25 15.3284 14.25 14.5V6.25H3.75V14.5C3.75 15.3284 4.42157 16 5.25 16H6Z" fill="#87C527"/>
<path d="M15 7.375C15 6.75368 15.5037 6.25 16.125 6.25C16.7463 6.25 17.25 6.75368 17.25 7.375V11.875C17.25 12.4963 16.7463 13 16.125 13C15.5037 13 15 12.4963 15 11.875V7.375Z" fill="#87C527"/>
</svg>
