<svg width="133" height="44" viewBox="0 0 133 44" fill="none" xmlns="http://www.w3.org/2000/svg">
<rect x="1.45001" y="0.5" width="131" height="43" rx="6.5" fill="black"/>
<path d="M90.6285 21.1211V23.6413H89.0488V25.2939H90.6285V30.9094C90.6285 32.8269 91.4959 33.5939 93.6782 33.5939C94.0617 33.5939 94.4269 33.5482 94.7465 33.4935V31.859C94.4725 31.8864 94.2991 31.9047 93.9977 31.9047C93.0207 31.9047 92.5916 31.4481 92.5916 30.4072V25.2939H94.7465V23.6413H92.5916V21.1211H90.6285Z" fill="white"/>
<path d="M100.306 33.7309C103.209 33.7309 104.99 31.786 104.99 28.5628C104.99 25.3579 103.2 23.4039 100.306 23.4039C97.4021 23.4039 95.6124 25.3579 95.6124 28.5628C95.6124 31.786 97.393 33.7309 100.306 33.7309ZM100.306 31.9869C98.5982 31.9869 97.6395 30.7359 97.6395 28.5628C97.6395 26.4079 98.5982 25.1479 100.306 25.1479C102.004 25.1479 102.972 26.4079 102.972 28.5628C102.972 30.7268 102.004 31.9869 100.306 31.9869Z" fill="white"/>
<path d="M106.513 33.5391H108.476V27.668C108.476 26.2709 109.526 25.3305 111.015 25.3305C111.362 25.3305 111.946 25.3944 112.11 25.4492V23.5134C111.9 23.4586 111.526 23.4312 111.234 23.4312C109.937 23.4312 108.832 24.1435 108.549 25.1205H108.403V23.5956H106.513V33.5391Z" fill="white"/>
<path d="M116.985 25.0748C118.437 25.0748 119.386 26.0883 119.432 27.6497H114.41C114.52 26.0975 115.533 25.0748 116.985 25.0748ZM119.423 30.8546C119.058 31.6308 118.245 32.0599 117.058 32.0599C115.487 32.0599 114.474 30.9551 114.41 29.2111V29.1015H121.432V28.4167C121.432 25.2939 119.761 23.4039 116.994 23.4039C114.191 23.4039 112.41 25.4218 112.41 28.5993C112.41 31.7769 114.154 33.7309 117.003 33.7309C119.277 33.7309 120.865 32.6352 121.313 30.8546H119.423Z" fill="white"/>
<path d="M77.7545 29.8671C77.9059 32.3088 79.9407 33.8703 82.9691 33.8703C86.2057 33.8703 88.231 32.2331 88.231 29.6211C88.231 27.5674 87.0764 26.4317 84.2751 25.7787L82.7704 25.4096C80.9912 24.9932 80.2719 24.4349 80.2719 23.4601C80.2719 22.2298 81.3886 21.4254 83.0637 21.4254C84.6537 21.4254 85.7515 22.2109 85.9502 23.4696H88.0133C87.8903 21.1698 85.865 19.5515 83.0921 19.5515C80.111 19.5515 78.1236 21.1698 78.1236 23.602C78.1236 25.6084 79.2498 26.8008 81.7199 27.3781L83.4802 27.804C85.2878 28.2299 86.0827 28.8545 86.0827 29.8955C86.0827 31.1069 84.8335 31.987 83.13 31.987C81.3035 31.987 80.0353 31.1637 79.8555 29.8671H77.7545Z" fill="white"/>
<path d="M57.4184 23.4312C56.0671 23.4312 54.8983 24.1069 54.2957 25.2392H54.1496V23.5956H52.2595V36.8445H54.2226V32.0325H54.3779C54.8983 33.0826 56.0214 33.7035 57.4367 33.7035C59.9477 33.7035 61.5456 31.7221 61.5456 28.5628C61.5456 25.4035 59.9477 23.4312 57.4184 23.4312ZM56.8615 31.9412C55.2179 31.9412 54.1861 30.6446 54.1861 28.5719C54.1861 26.4901 55.2179 25.1935 56.8706 25.1935C58.5324 25.1935 59.5277 26.4627 59.5277 28.5628C59.5277 30.672 58.5324 31.9412 56.8615 31.9412Z" fill="white"/>
<path d="M68.4149 23.4312C67.0636 23.4312 65.8948 24.1069 65.2922 25.2392H65.1461V23.5956H63.256V36.8445H65.2191V32.0325H65.3743C65.8948 33.0826 67.0179 33.7035 68.4332 33.7035C70.9442 33.7035 72.5421 31.7221 72.5421 28.5628C72.5421 25.4035 70.9442 23.4312 68.4149 23.4312ZM67.8579 31.9412C66.2144 31.9412 65.1826 30.6446 65.1826 28.5719C65.1826 26.4901 66.2144 25.1935 67.8671 25.1935C69.5289 25.1935 70.5241 26.4627 70.5241 28.5628C70.5241 30.672 69.5289 31.9412 67.8579 31.9412Z" fill="white"/>
<path d="M48.7373 33.5391H50.9897L46.059 19.8827H43.7782L38.8476 33.5391H41.0243L42.2829 29.9144H47.4881L48.7373 33.5391ZM44.8098 22.3623H44.9707L46.9486 28.1352H42.8224L44.8098 22.3623Z" fill="white"/>
<path d="M40.1663 9.58208V16.17H42.5448C44.508 16.17 45.6448 14.9602 45.6448 12.8555C45.6448 10.7828 44.4989 9.58208 42.5448 9.58208H40.1663ZM41.1889 10.5134H42.4307C43.7958 10.5134 44.6039 11.3809 44.6039 12.8692C44.6039 14.3803 43.8095 15.2386 42.4307 15.2386H41.1889V10.5134Z" fill="white"/>
<path d="M49.1264 16.2659C50.5782 16.2659 51.4684 15.2934 51.4684 13.6818C51.4684 12.0794 50.5736 11.1024 49.1264 11.1024C47.6746 11.1024 46.7797 12.0794 46.7797 13.6818C46.7797 15.2934 47.67 16.2659 49.1264 16.2659ZM49.1264 15.3939C48.2726 15.3939 47.7933 14.7684 47.7933 13.6818C47.7933 12.6044 48.2726 11.9744 49.1264 11.9744C49.9755 11.9744 50.4595 12.6044 50.4595 13.6818C50.4595 14.7638 49.9755 15.3939 49.1264 15.3939Z" fill="white"/>
<path d="M59.0498 11.1982H58.0682L57.1825 14.9921H57.1049L56.0823 11.1982H55.1418L54.1191 14.9921H54.0461L53.1558 11.1982H52.1606L53.5302 16.17H54.5391L55.5618 12.5085H55.6394L56.6666 16.17H57.6847L59.0498 11.1982Z" fill="white"/>
<path d="M60.1802 16.17H61.1618V13.2618C61.1618 12.4857 61.6229 12.0018 62.3488 12.0018C63.0747 12.0018 63.4216 12.399 63.4216 13.1979V16.17H64.4032V12.9514C64.4032 11.7689 63.7914 11.1024 62.682 11.1024C61.9333 11.1024 61.4402 11.4356 61.1983 11.9881H61.1252V11.1982H60.1802V16.17Z" fill="white"/>
<path d="M65.9491 16.17H66.9306V9.25793H65.9491V16.17Z" fill="white"/>
<path d="M70.6222 16.2659C72.074 16.2659 72.9643 15.2934 72.9643 13.6818C72.9643 12.0794 72.0695 11.1024 70.6222 11.1024C69.1704 11.1024 68.2756 12.0794 68.2756 13.6818C68.2756 15.2934 69.1659 16.2659 70.6222 16.2659ZM70.6222 15.3939C69.7685 15.3939 69.2891 14.7684 69.2891 13.6818C69.2891 12.6044 69.7685 11.9744 70.6222 11.9744C71.4714 11.9744 71.9553 12.6044 71.9553 13.6818C71.9553 14.7638 71.4714 15.3939 70.6222 15.3939Z" fill="white"/>
<path d="M75.8889 15.4258C75.3548 15.4258 74.9667 15.1656 74.9667 14.7182C74.9667 14.2799 75.2771 14.0471 75.962 14.0014L77.1764 13.9238V14.3393C77.1764 14.9556 76.6285 15.4258 75.8889 15.4258ZM75.6378 16.2522C76.2907 16.2522 76.834 15.9691 77.1307 15.4715H77.2083V16.17H78.1534V12.7733C78.1534 11.7233 77.4503 11.1024 76.2039 11.1024C75.0763 11.1024 74.2728 11.6502 74.1723 12.504H75.1219C75.2315 12.1524 75.6104 11.9515 76.1583 11.9515C76.8294 11.9515 77.1764 12.2483 77.1764 12.7733V13.2025L75.8296 13.2801C74.6471 13.3531 73.9806 13.869 73.9806 14.7638C73.9806 15.6724 74.6791 16.2522 75.6378 16.2522Z" fill="white"/>
<path d="M81.4843 16.2522C82.1691 16.2522 82.7489 15.928 83.0457 15.3847H83.1233V16.17H84.0638V9.25793H83.0822V11.9881H83.0092C82.7398 11.4402 82.1646 11.1161 81.4843 11.1161C80.2288 11.1161 79.4207 12.1113 79.4207 13.6818C79.4207 15.2569 80.2197 16.2522 81.4843 16.2522ZM81.7628 11.9972C82.5846 11.9972 83.1005 12.65 83.1005 13.6864C83.1005 14.7273 82.5891 15.371 81.7628 15.371C80.9319 15.371 80.4343 14.7365 80.4343 13.6818C80.4343 12.6364 80.9365 11.9972 81.7628 11.9972Z" fill="white"/>
<path d="M90.4289 16.2659C91.8807 16.2659 92.771 15.2934 92.771 13.6818C92.771 12.0794 91.8761 11.1024 90.4289 11.1024C88.9771 11.1024 88.0823 12.0794 88.0823 13.6818C88.0823 15.2934 88.9725 16.2659 90.4289 16.2659ZM90.4289 15.3939C89.5752 15.3939 89.0958 14.7684 89.0958 13.6818C89.0958 12.6044 89.5752 11.9744 90.4289 11.9744C91.2781 11.9744 91.762 12.6044 91.762 13.6818C91.762 14.7638 91.2781 15.3939 90.4289 15.3939Z" fill="white"/>
<path d="M94.0703 16.17H95.0519V13.2618C95.0519 12.4857 95.513 12.0018 96.2389 12.0018C96.9648 12.0018 97.3117 12.399 97.3117 13.1979V16.17H98.2933V12.9514C98.2933 11.7689 97.6815 11.1024 96.5721 11.1024C95.8234 11.1024 95.3303 11.4356 95.0884 11.9881H95.0153V11.1982H94.0703V16.17Z" fill="white"/>
<path d="M102.814 9.96101V11.2211H102.024V12.0474H102.814V14.8552C102.814 15.8139 103.248 16.1974 104.339 16.1974C104.531 16.1974 104.713 16.1746 104.873 16.1472V15.33C104.736 15.3437 104.649 15.3528 104.499 15.3528C104.01 15.3528 103.796 15.1245 103.796 14.6041V12.0474H104.873V11.2211H103.796V9.96101H102.814Z" fill="white"/>
<path d="M106.191 16.17H107.172V13.2664C107.172 12.5131 107.62 12.0063 108.423 12.0063C109.117 12.0063 109.487 12.4081 109.487 13.2025V16.17H110.468V12.9605C110.468 11.7781 109.816 11.1069 108.756 11.1069C108.008 11.1069 107.483 11.4402 107.241 11.9972H107.163V9.25793H106.191V16.17Z" fill="white"/>
<path d="M114.009 11.9378C114.735 11.9378 115.21 12.4446 115.233 13.2253H112.722C112.777 12.4492 113.283 11.9378 114.009 11.9378ZM115.228 14.8278C115.046 15.2158 114.639 15.4304 114.046 15.4304C113.261 15.4304 112.754 14.878 112.722 14.006V13.9512H116.233V13.6088C116.233 12.0474 115.397 11.1024 114.014 11.1024C112.612 11.1024 111.722 12.1113 111.722 13.7001C111.722 15.2889 112.594 16.2659 114.018 16.2659C115.155 16.2659 115.95 15.718 116.173 14.8278H115.228Z" fill="white"/>
<path d="M28.1959 22.3309C28.2197 20.4818 29.2128 18.7322 30.7881 17.7637C29.7943 16.3443 28.1297 15.4444 26.3978 15.3902C24.5507 15.1963 22.7599 16.4955 21.8186 16.4955C20.8592 16.4955 19.4099 15.4095 17.8493 15.4416C15.8151 15.5073 13.9188 16.6638 12.9291 18.4422C10.8017 22.1255 12.3885 27.5386 14.4264 30.5159C15.446 31.9738 16.6376 33.6023 18.1968 33.5445C19.7226 33.4813 20.2924 32.5716 22.1341 32.5716C23.9588 32.5716 24.4934 33.5445 26.0842 33.5078C27.7215 33.4813 28.753 32.0435 29.7368 30.5718C30.4694 29.533 31.0331 28.3849 31.4071 27.17C29.483 26.3562 28.1981 24.42 28.1959 22.3309Z" fill="white"/>
<path d="M25.1911 13.4322C26.0837 12.3606 26.5235 10.9832 26.417 9.59253C25.0532 9.73577 23.7934 10.3876 22.8887 11.4181C22.004 12.425 21.5436 13.7781 21.6306 15.1156C22.9949 15.1297 24.3362 14.4955 25.1911 13.4322Z" fill="white"/>
<rect x="1.45001" y="0.5" width="131" height="43" rx="6.5" stroke="#A6A6A6"/>
</svg>
