<svg width="57" height="56" viewBox="0 0 57 56" fill="none" xmlns="http://www.w3.org/2000/svg">
<path d="M4.75 28C4.75 14.7452 15.4952 4 28.75 4C42.0048 4 52.75 14.7452 52.75 28C52.75 41.2548 42.0048 52 28.75 52C15.4952 52 4.75 41.2548 4.75 28Z" fill="#CAF2B8"/>
<path d="M28.75 22V28L32.75 30M38.75 28C38.75 33.5228 34.2728 38 28.75 38C23.2272 38 18.75 33.5228 18.75 28C18.75 22.4772 23.2272 18 28.75 18C34.2728 18 38.75 22.4772 38.75 28Z" stroke="#5CBD15" stroke-width="2" stroke-linecap="round" stroke-linejoin="round"/>
<path d="M28.75 48C17.7043 48 8.75 39.0457 8.75 28H0.75C0.75 43.464 13.286 56 28.75 56V48ZM48.75 28C48.75 39.0457 39.7957 48 28.75 48V56C44.214 56 56.75 43.464 56.75 28H48.75ZM28.75 8C39.7957 8 48.75 16.9543 48.75 28H56.75C56.75 12.536 44.214 0 28.75 0V8ZM28.75 0C13.286 0 0.75 12.536 0.75 28H8.75C8.75 16.9543 17.7043 8 28.75 8V0Z" fill="#DBF5D4"/>
</svg>
