<svg width="57" height="56" viewBox="0 0 57 56" fill="none" xmlns="http://www.w3.org/2000/svg">
<path d="M4.75 28C4.75 14.7452 15.4952 4 28.75 4C42.0048 4 52.75 14.7452 52.75 28C52.75 41.2548 42.0048 52 28.75 52C15.4952 52 4.75 41.2548 4.75 28Z" fill="#CAF2B8"/>
<path d="M30.9255 20.2222C30.9266 18.9945 28.4231 18 25.3383 18C22.2536 18 19.7522 18.9956 19.75 20.2222M19.75 20.2222C19.75 21.45 22.2513 22.4445 25.3383 22.4445C28.4253 22.4445 30.9266 21.45 30.9266 20.2222L30.9266 28.8445M19.75 20.2222V33.5556C19.7511 34.7834 22.2524 35.7779 25.3383 35.7779C26.8349 35.7779 28.1861 35.5412 29.1887 35.1601M19.7511 24.6667C19.7511 25.8945 22.2525 26.889 25.3394 26.889C28.4264 26.889 30.9278 25.8945 30.9278 24.6667M29.2557 30.6946C28.2476 31.0891 26.865 31.3335 25.3383 31.3335C22.2524 31.3335 19.7511 30.3391 19.7511 29.1113M37.2772 29.4646C39.2409 31.4169 39.2409 34.5836 37.2772 36.5358C35.3135 38.4881 32.1281 38.4881 30.1644 36.5358C28.2007 34.5836 28.2007 31.4169 30.1644 29.4646C32.1281 27.5124 35.3135 27.5124 37.2772 29.4646Z" stroke="#5CBD15" stroke-width="2" stroke-linecap="round" stroke-linejoin="round"/>
<path d="M28.75 48C17.7043 48 8.75 39.0457 8.75 28H0.75C0.75 43.464 13.286 56 28.75 56V48ZM48.75 28C48.75 39.0457 39.7957 48 28.75 48V56C44.214 56 56.75 43.464 56.75 28H48.75ZM28.75 8C39.7957 8 48.75 16.9543 48.75 28H56.75C56.75 12.536 44.214 0 28.75 0V8ZM28.75 0C13.286 0 0.75 12.536 0.75 28H8.75C8.75 16.9543 17.7043 8 28.75 8V0Z" fill="#DBF5D4"/>
</svg>
