<svg width="56" height="57" viewBox="0 0 56 57" fill="none" xmlns="http://www.w3.org/2000/svg">
<path d="M4 28.0435C4 14.7886 14.7452 4.04346 28 4.04346C41.2548 4.04346 52 14.7886 52 28.0435C52 41.2983 41.2548 52.0435 28 52.0435C14.7452 52.0435 4 41.2983 4 28.0435Z" fill="#CAF2B8"/>
<path d="M38 28.0435C38 33.5663 33.5228 38.0435 28 38.0435M38 28.0435C38 22.5206 33.5228 18.0435 28 18.0435M38 28.0435H18M28 38.0435C22.4772 38.0435 18 33.5663 18 28.0435M28 38.0435C30.5013 35.3051 31.9228 31.7514 32 28.0435C31.9228 24.3355 30.5013 20.7818 28 18.0435M28 38.0435C25.4987 35.3051 24.0772 31.7514 24 28.0435C24.0772 24.3355 25.4987 20.7818 28 18.0435M18 28.0435C18 22.5206 22.4772 18.0435 28 18.0435" stroke="#5CBD15" stroke-width="2" stroke-linecap="round" stroke-linejoin="round"/>
<path d="M28 48.0435C16.9543 48.0435 8 39.0892 8 28.0435H0C0 43.5074 12.536 56.0435 28 56.0435V48.0435ZM48 28.0435C48 39.0892 39.0457 48.0435 28 48.0435V56.0435C43.464 56.0435 56 43.5074 56 28.0435H48ZM28 8.04346C39.0457 8.04346 48 16.9978 48 28.0435H56C56 12.5795 43.464 0.043457 28 0.043457V8.04346ZM28 0.043457C12.536 0.043457 0 12.5795 0 28.0435H8C8 16.9978 16.9543 8.04346 28 8.04346V0.043457Z" fill="#DBF5D4"/>
</svg>
