<svg width="57" height="56" viewBox="0 0 57 56" fill="none" xmlns="http://www.w3.org/2000/svg">
<path d="M4.25 28C4.25 14.7452 14.9952 4 28.25 4C41.5048 4 52.25 14.7452 52.25 28C52.25 41.2548 41.5048 52 28.25 52C14.9952 52 4.25 41.2548 4.25 28Z" fill="#CAF2B8"/>
<path d="M28.25 17V39M33.25 21H25.75C24.8217 21 23.9315 21.3687 23.2751 22.0251C22.6187 22.6815 22.25 23.5717 22.25 24.5C22.25 25.4283 22.6187 26.3185 23.2751 26.9749C23.9315 27.6313 24.8217 28 25.75 28H30.75C31.6783 28 32.5685 28.3687 33.2249 29.0251C33.8813 29.6815 34.25 30.5717 34.25 31.5C34.25 32.4283 33.8813 33.3185 33.2249 33.9749C32.5685 34.6313 31.6783 35 30.75 35H22.25" stroke="#5CBD15" stroke-width="2" stroke-linecap="round" stroke-linejoin="round"/>
<path d="M28.25 48C17.2043 48 8.25 39.0457 8.25 28H0.25C0.25 43.464 12.786 56 28.25 56V48ZM48.25 28C48.25 39.0457 39.2957 48 28.25 48V56C43.714 56 56.25 43.464 56.25 28H48.25ZM28.25 8C39.2957 8 48.25 16.9543 48.25 28H56.25C56.25 12.536 43.714 0 28.25 0V8ZM28.25 0C12.786 0 0.25 12.536 0.25 28H8.25C8.25 16.9543 17.2043 8 28.25 8V0Z" fill="#DBF5D4"/>
</svg>
