<svg width="57" height="56" viewBox="0 0 57 56" fill="none" xmlns="http://www.w3.org/2000/svg">
<path d="M4.25 28C4.25 14.7452 14.9952 4 28.25 4C41.5048 4 52.25 14.7452 52.25 28C52.25 41.2548 41.5048 52 28.25 52C14.9952 52 4.25 41.2548 4.25 28Z" fill="#CAF2B8"/>
<path d="M38.25 19H18.25L26.25 28.46V35L30.25 37V28.46L38.25 19Z" stroke="#5CBD15" stroke-width="2" stroke-linecap="round" stroke-linejoin="round"/>
<path d="M28.25 48C17.2043 48 8.25 39.0457 8.25 28H0.25C0.25 43.464 12.786 56 28.25 56V48ZM48.25 28C48.25 39.0457 39.2957 48 28.25 48V56C43.714 56 56.25 43.464 56.25 28H48.25ZM28.25 8C39.2957 8 48.25 16.9543 48.25 28H56.25C56.25 12.536 43.714 0 28.25 0V8ZM28.25 0C12.786 0 0.25 12.536 0.25 28H8.25C8.25 16.9543 17.2043 8 28.25 8V0Z" fill="#DBF5D4"/>
</svg>
