<svg width="1440" height="936" viewBox="0 0 1440 936" fill="none" xmlns="http://www.w3.org/2000/svg">
<path d="M1437.81 637.871C1342.55 652.436 1275.32 698.765 1231.25 738.873C1186.7 779.434 1154.61 823.929 1095.97 847.85C1031.3 874.43 989.042 862.522 972.328 855.824C949.156 846.521 950.596 840.195 912.688 818.613C839.869 777.148 826.035 795.595 793.407 768.111C739.309 722.554 755.441 653.42 698.856 576.737C657.878 521.186 590.034 476.984 528.662 507.63C470.869 536.496 464.367 608.979 403.563 619.265C378.587 623.491 357.815 614.109 316.285 595.343C263.059 571.422 227.319 541.918 213.005 531.552C170.602 500.799 102.161 481.449 -9.55536 542.184" stroke="#275C00" stroke-width="1.54298" stroke-miterlimit="10"/>
<path d="M1438.45 614.426C1346.3 626.999 1277.41 668.941 1229.34 710.512C1190.3 744.747 1160.53 782.277 1119.49 809.096C1110.51 814.944 1101.06 820.605 1090.88 825.496C1026.71 856.275 984.616 851.199 967.044 848.089C943.478 843.942 943.478 839.211 906.327 818.24C880.143 803.488 861.495 795.062 847.05 789.534C822.496 780.151 810.204 779.513 790.828 761.466C783.598 754.787 776.814 746.608 770.609 737.092C741.909 693.103 743.13 637.338 695.52 578.225C654.077 526.767 586.684 487.854 526.36 518.288C521.58 520.704 516.871 523.561 512.25 526.847C465.614 560.045 455.14 618.44 401.697 627.61C396.065 628.591 390.404 628.884 384.75 628.487C365.753 627.265 346.115 618.6 315.015 604.566C263.491 581.176 228.304 552.23 212.521 540.774C200.961 532.462 189.039 525.936 176.882 521.265C134.814 504.892 75.3479 503.191 -8.30858 544.974" stroke="#275C00" stroke-width="1.54298" stroke-miterlimit="10"/>
<path d="M1439.09 588.9C1350.07 599.532 1279.44 636.744 1227.44 680.281C1186.14 714.835 1154.99 754.306 1114.71 782.48C1105.51 788.939 1095.99 795.478 1085.76 801.086C1022.1 836.092 980.225 840.318 961.722 838.298C937.88 835.64 936.295 836.145 899.958 815.811C874.516 801.538 855.94 791.89 841.772 785.112C817.901 773.762 806.424 771.476 788.3 752.738C781.393 745.521 774.902 737.053 768.924 727.46C741.198 683.763 739.831 631.348 692.162 577.551C650.254 530.212 583.311 496.589 524.035 526.81C519.016 529.468 514.376 532.126 510.026 535.316C461.921 569.125 451.273 624.81 399.794 633.661C394.206 634.666 388.589 634.995 382.978 634.644C363.66 633.608 344.052 625.182 313.708 611.281C263.872 588.528 229.266 560.062 211.999 547.782C200.532 539.544 188.721 533.002 176.681 528.219C134.991 511.474 75.8012 507.939 -7.02608 545.576" stroke="#275C00" stroke-width="1.54298" stroke-miterlimit="10"/>
<path d="M1439.72 561.668C1353.82 570.253 1281.51 603.079 1225.52 648.211C1182.03 683.297 1149.45 724.575 1109.95 754.131C1100.53 761.202 1090.91 768.591 1080.67 774.943C1017.52 814.122 975.936 822.335 956.429 826.8C932.297 832.302 929.14 831.372 893.603 811.677C868.874 797.935 850.371 787.037 836.407 779.01C813.234 765.72 802.543 761.733 785.669 742.33C779.139 734.564 772.978 725.806 767.253 716.149C740.502 672.771 736.458 623.732 688.848 575.277C646.416 532.058 579.982 503.698 521.753 533.733C516.778 536.391 512.167 539.049 507.847 542.159C458.302 576.712 447.435 629.579 397.948 638.377C392.401 639.407 386.823 639.771 381.249 639.467C361.611 638.643 341.974 630.403 312.43 616.768C264.31 594.68 230.257 566.718 211.521 553.402C200.123 545.289 188.41 538.741 176.479 533.813C135.167 516.695 76.2543 511.3 -5.72935 544.817" stroke="#275C00" stroke-width="1.54298" stroke-miterlimit="10"/>
<path d="M1440.36 534.359C1357.57 540.95 1283.6 569.337 1223.61 616.091C1177.91 651.735 1143.91 694.847 1105.18 725.733C1095.53 733.414 1085.85 741.68 1075.56 748.751C1012.92 792.022 971.714 806.747 951.116 815.2C926.78 825.194 922.023 826.496 887.228 807.439C863.154 794.149 844.811 782.082 831.079 772.885C808.605 757.681 798.713 751.94 783.076 731.899C776.933 723.601 771.102 714.562 765.62 704.841C739.829 661.835 733.109 616.145 685.542 572.873C642.586 533.801 576.677 510.676 519.48 540.499C514.563 543.157 509.981 545.815 505.675 548.871C454.676 584.143 443.62 633.926 396.112 642.831C390.603 643.847 385.065 644.246 379.529 644.027C359.6 643.389 340.021 635.362 311.161 621.992C264.728 600.516 231.243 573.032 211.038 558.759C199.721 550.726 188.109 544.162 176.286 539.117C135.338 521.601 76.7014 514.398 -4.45306 543.742" stroke="#275C00" stroke-width="1.54298" stroke-miterlimit="10"/>
<path d="M1440.97 516.772C1361.3 521.37 1285.66 545.292 1221.68 593.667C1173.78 629.895 1138.36 674.921 1100.38 707.029C1090.53 715.349 1080.74 724.386 1070.43 732.254C1008.33 779.619 967.454 800.723 945.823 813.348C921.269 827.648 914.825 831.396 880.873 812.95C862.124 802.726 843.72 790.496 825.757 776.323C803.937 759.232 794.875 751.683 780.518 731.137C774.248 722.127 769.273 712.531 763.891 703.202C739.06 660.674 729.649 618.147 682.169 580.191C638.646 545.292 573.289 527.377 517.14 556.987C512.267 559.645 507.714 562.303 503.437 565.307C450.968 601.216 439.724 648.368 394.194 657.007C388.728 658.026 383.235 658.452 377.742 658.282C357.493 657.777 337.943 650.043 309.868 637.019C265.138 616.233 232.205 589.175 210.545 573.945C199.3 565.997 187.778 559.426 176.056 554.276C135.486 536.361 77.14 527.298 -3.18531 552.522" stroke="#275C00" stroke-width="1.54298" stroke-miterlimit="10"/>
<path d="M1441.64 504.225C1365.09 506.883 1287.78 526.366 1219.8 576.309C1169.71 613.122 1132.89 660.115 1095.64 693.26C1085.57 702.244 1075.71 712.079 1065.35 720.69C1003.72 772.069 963.162 799.526 940.514 816.377C915.785 834.85 907.668 841.176 874.502 823.368C855.919 813.388 837.835 800.53 820.448 784.934C799.341 766.009 791.049 756.6 777.943 735.336C772.124 725.953 767.542 715.959 762.204 706.523C738.318 664.262 726.201 625.402 678.838 592.47C634.719 561.797 569.929 549.039 514.827 578.463C510.012 581.121 505.503 583.778 501.226 586.729C447.288 623.196 435.811 667.637 392.317 675.957C386.891 677.003 381.437 677.464 375.981 677.339C355.442 677.02 335.892 669.525 308.588 656.66C265.56 636.486 233.194 609.933 210.05 593.693C198.884 585.846 187.463 579.268 175.852 573.997C135.645 555.684 77.5762 544.76 -1.91999 565.89" stroke="#275C00" stroke-width="1.54298" stroke-miterlimit="10"/>
<path d="M1442.26 491.491C1368.84 492.102 1289.89 507.252 1217.88 558.764C1165.6 596.188 1127.4 645.201 1090.88 679.542C1080.59 689.244 1070.63 699.876 1060.24 709.178C999.104 764.517 958.839 798.221 935.216 819.484C910.152 842.024 900.508 851.008 868.142 833.837C849.693 823.962 831.908 810.339 815.121 793.224C794.756 772.518 787.221 761.142 775.351 739.347C770.027 729.565 765.808 719.252 760.528 709.63C737.574 667.821 722.707 632.416 675.489 604.561C630.759 578.167 566.58 570.539 512.57 599.723C507.798 602.381 503.318 605.039 499.07 607.963C443.663 645.175 432.055 686.825 390.481 695.091C385.099 696.138 379.689 696.635 374.277 696.58C353.417 696.58 333.896 689.191 307.363 676.539C266.022 657.056 234.238 630.928 209.611 613.758C198.522 605.977 187.195 599.374 175.689 593.982C135.861 575.377 78.0678 562.592 -0.584673 579.523" stroke="#275C00" stroke-width="1.54298" stroke-miterlimit="10"/>
<path d="M1442.91 478.717C1372.61 477.335 1291.99 488.099 1215.99 541.179C1161.51 579.215 1121.93 630.274 1086.12 665.652C1075.64 675.991 1065.56 687.341 1055.16 697.548C994.503 756.847 954.5 796.796 929.917 822.472C904.548 849.052 893.361 860.747 861.781 844.214C843.473 834.453 825.984 820.143 809.807 801.687C790.067 779.174 783.42 765.831 772.786 743.504C767.942 733.297 764.058 722.719 758.851 712.911C736.827 671.526 719.241 639.657 672.168 616.798C626.798 594.764 563.245 592.159 510.238 621.158C505.51 623.816 501.059 626.474 496.84 629.318C439.949 667.087 428.181 706.08 388.571 714.187C383.228 715.236 377.857 715.768 372.483 715.781C351.318 716.021 331.753 708.791 306.02 696.405C266.396 677.56 235.165 651.884 209.068 633.756C198.06 626.029 186.834 619.384 175.437 613.848C135.973 594.764 78.4561 580.225 0.632695 593.01" stroke="#275C00" stroke-width="1.54298" stroke-miterlimit="10"/>
<path d="M1443.54 465.974C1376.35 462.678 1294.04 469.084 1214.04 523.705C1157.31 562.378 1116.43 615.511 1081.3 651.872C1070.63 662.929 1060.44 674.997 1050.01 685.947C989.85 749.127 950.095 795.296 924.566 825.517C898.833 856.004 886.149 870.517 855.369 854.622C837.187 844.895 819.992 829.831 804.456 810.022C785.4 785.781 779.582 770.365 770.185 747.533C765.821 736.901 762.315 726.083 757.093 716.062C735.971 675.13 715.636 646.955 668.738 628.934C622.728 611.312 559.814 613.677 507.84 642.463C503.171 645.121 498.748 647.779 494.544 650.437C436.184 688.792 424.242 725.126 386.625 733.02C381.312 734.125 375.97 734.693 370.623 734.721C349.153 734.987 329.661 728.156 304.626 716.116C266.704 697.909 236.04 672.684 208.46 653.6C198.496 646.689 187.455 639.858 175.105 633.745C136.019 614.289 78.7786 597.889 1.79895 606.554" stroke="#275C00" stroke-width="1.54298" stroke-miterlimit="10"/>
<path d="M1444.19 453.624C1380.19 448.308 1296.21 450.328 1212.17 506.464C1153.32 545.776 1111.03 601.035 1076.57 638.353C1065.71 650.128 1055.41 662.886 1044.95 674.634C985.221 741.695 945.684 794.057 919.311 828.797C893.215 863.35 879.047 880.521 849.052 865.264C830.977 855.561 814.055 839.767 799.158 818.696C780.757 792.701 775.884 775.185 767.636 751.902C763.752 740.844 760.595 729.761 755.49 719.554C735.27 679.126 712.199 654.487 665.491 641.41C618.782 628.333 556.553 635.562 505.626 664.135C501 666.793 496.607 669.451 492.432 672.109C432.588 711.049 420.471 744.725 384.789 752.433C379.53 753.556 374.242 754.15 368.948 754.214C347.128 754.719 327.694 748.074 303.489 736.193C267.254 718.651 237.171 693.852 208.108 673.837C198.187 666.98 187.234 660.175 175.029 653.929C136.321 634.101 79.3573 615.867 3.20678 620.359" stroke="#275C00" stroke-width="1.54298" stroke-miterlimit="10"/>
<path d="M1444.81 441.419C1383.88 434.057 1298.32 431.797 1210.25 489.422C1149.16 529.292 1105.6 586.81 1071.81 624.979C1060.74 637.498 1050.33 650.921 1039.81 663.466C980.549 734.434 941.215 792.909 914.013 832.327C887.495 870.655 871.829 890.802 842.736 876.157C823.418 866.429 805.875 846.308 793.875 827.622C776.113 799.926 772.055 780.257 765.087 756.522C761.712 745.039 758.89 733.69 753.857 723.271C734.525 683.401 708.763 662.43 662.215 654.163C614.895 645.684 553.262 657.699 503.382 686.059C498.815 688.717 494.451 691.375 490.291 694.033C428.978 733.584 416.7 764.602 383.025 772.098C377.806 773.237 372.557 773.867 367.301 773.985C345.205 774.756 325.771 768.27 302.249 756.628C267.716 739.724 238.245 715.377 207.697 694.405C197.82 687.627 186.954 680.796 174.91 674.47C136.565 654.243 79.8778 634.176 4.57099 634.601" stroke="#275C00" stroke-width="1.54298" stroke-miterlimit="10"/>
<path d="M1445.45 429.387C1387.63 420.004 1300.48 413.758 1208.35 472.579C1145.17 513.406 1100.19 572.785 1067.04 611.883C1055.8 625.173 1045.22 639.234 1034.73 652.577C975.88 727.292 936.735 792.094 908.704 835.977C881.75 878.186 864.745 901.15 836.321 887.169C817.687 877.92 800.232 856.736 788.507 836.668C771.386 807.271 768.302 785.476 762.469 761.261C759.56 749.354 757.102 737.792 752.127 727.16C733.682 687.715 705.185 670.598 658.811 666.903C610.808 663.103 549.844 679.821 501.012 707.996C496.483 710.636 492.153 713.294 488.022 715.97C425.21 756.052 412.773 784.466 381.076 791.748C375.902 792.918 370.696 793.584 365.483 793.742C343.081 794.725 323.647 788.426 300.882 777.05C268.065 760.81 239.132 736.782 207.087 714.96C197.253 708.208 186.489 701.431 174.575 694.998C136.609 674.373 80.1982 652.471 5.72055 648.697" stroke="#275C00" stroke-width="1.54298" stroke-miterlimit="10"/>
<path d="M1446.09 417.514C1391.39 406.165 1302.57 395.533 1206.43 455.895C1141.06 497.333 1094.76 558.998 1062.26 598.868C1050.84 612.875 1040.15 627.627 1029.62 641.767C971.188 720.284 932.16 791.305 903.402 839.813C875.982 885.928 857.581 911.817 830.015 898.447C812.051 889.703 794.668 867.429 783.249 845.926C766.738 814.828 764.629 790.853 759.974 766.187C757.618 753.827 755.421 742.026 750.534 731.208C732.86 692.295 701.643 676.347 655.458 679.936C606.902 683.71 546.476 702.236 498.677 730.198C494.197 732.838 489.901 735.496 485.789 738.172C421.464 778.626 408.896 804.621 379.178 811.691C374.042 812.871 368.876 813.563 363.701 813.765C340.994 814.934 321.516 808.874 299.58 797.817C268.523 782.082 240.1 758.346 206.585 735.727C196.795 729.029 186.118 722.251 174.364 715.712C136.762 694.688 80.6273 670.952 6.99328 663.031" stroke="#275C00" stroke-width="1.54298" stroke-miterlimit="10"/>
<path d="M1446.79 405.795C1395.21 392.505 1304.73 377.435 1204.59 439.365C1137.02 481.415 1089.49 545.339 1057.57 586.112C1045.93 600.89 1035.13 616.253 1024.59 631.297C966.554 713.695 927.745 790.776 898.157 843.935C870.214 893.905 850.387 922.558 823.592 909.853C806.311 901.613 789.001 878.276 777.873 855.338C761.974 822.592 760.883 796.437 757.319 771.346C755.486 758.535 753.58 746.521 748.765 735.463C732.037 697.082 698.231 687.62 652.134 693.149C602.938 698.97 543.152 724.832 496.4 752.581C492.036 755.239 487.672 757.897 483.613 760.555C417.82 801.62 405.063 824.984 377.323 831.815C372.231 833.027 367.109 833.754 361.976 833.995C338.964 835.377 319.559 829.503 298.321 818.658C268.894 803.694 241.095 780.543 206.111 756.834C196.351 750.189 185.746 743.544 174.109 736.766C136.885 715.502 81.012 689.8 8.27988 677.733" stroke="#275C00" stroke-width="1.54298" stroke-miterlimit="10"/>
<path d="M1447.35 394.21C1398.9 378.874 1306.77 359.47 1202.61 422.943C1132.78 465.603 1084.05 531.92 1052.78 573.41C1041.02 588.986 1030 604.934 1019.47 620.722C961.732 706.628 923.169 790.301 892.913 848.032C864.518 902.015 843.382 933.433 817.271 921.312C800.674 913.578 783.407 889.177 772.585 864.83C757.282 830.277 757.238 802.102 754.765 776.533C753.5 763.243 751.856 751.043 747.128 739.773C731.244 701.923 694.761 696.501 648.838 706.415C599.046 717.047 539.827 747.481 494.137 775.044C489.773 777.702 485.511 780.36 481.453 782.806C414.175 824.483 401.273 845.295 375.496 851.913C370.409 853.107 365.292 853.817 360.165 854.039C338.825 855.508 317.498 850.569 297.033 839.42C269.308 825.094 242.077 802.395 205.609 777.729C195.892 771.164 185.389 764.439 173.941 757.635C120.421 726.341 65.3904 704.438 9.5958 692.222" stroke="#275C00" stroke-width="1.54298" stroke-miterlimit="10"/>
<path d="M1447.99 382.705C1402.65 365.375 1308.87 341.586 1200.7 406.627C1128.74 449.898 1078.72 518.447 1047.96 560.789C911.475 748.894 868.272 958.98 810.858 932.905C794.944 925.675 777.721 900.212 767.218 874.43C744.788 819.41 758.927 777.679 745.399 744.189C712.233 662.058 563.045 753.784 479.199 805.322C397.448 855.585 394.423 871.772 358.464 874.43C295.696 879.134 263.069 833.072 173.724 778.743C120.603 746.595 66.1076 722.591 10.8045 706.978" stroke="#275C00" stroke-width="1.54298" stroke-miterlimit="10"/>
<path d="M1447.99 375.102C1401.44 356.15 1310.57 334.435 1207.16 396.685C1135.78 439.77 1087.88 508.984 1054.87 553.505C923.025 731.137 881.903 923.521 823.411 906.35C800.559 899.652 777.357 886.23 762.04 865.657C731.944 825.203 743.13 789.028 725.674 756.68C687.461 685.819 548.31 765.372 468.479 812.657C390.714 858.879 387.572 871.956 349.562 869.298C286.401 864.886 255.257 824.113 171.092 771.964C118.58 739.445 64.5104 716.031 9.59724 702.033" stroke="#275C00" stroke-width="1.54298" stroke-miterlimit="10"/>
<path d="M1447.99 367.174C1370.36 334.521 1289.33 341.184 1213.62 386.444C1142.82 429.317 1097.13 499.249 1061.78 545.923C934.75 713.534 894.98 891.087 835.95 879.498C805.999 873.597 777.838 872.109 756.862 856.56C720.874 829.98 727.885 800.477 705.949 768.847C664.041 708.484 533.574 776.661 457.743 819.694C384.095 861.876 380.822 872.109 340.645 863.869C277.251 850.898 247.446 814.59 168.459 764.86C116.573 731.992 62.9422 709.168 8.44811 696.763" stroke="#275C00" stroke-width="1.54298" stroke-miterlimit="10"/>
<path d="M1448 353.091C1372.63 320.046 1293.72 325.917 1220.07 370.049C1149.87 412.736 1106.37 483.385 1068.7 532.185C946.741 690.122 907.64 834.077 848.509 846.49C811.517 854.251 778.803 851.062 751.673 841.334C710.682 826.662 713.067 805.743 686.215 774.884C641.761 723.798 518.814 781.529 447.028 820.575C377.379 858.451 374.136 866.345 331.747 852.311C268.15 831.26 239.654 798.966 165.816 751.627C114.55 718.372 61.3402 696.125 7.26029 685.338" stroke="#275C00" stroke-width="1.54298" stroke-miterlimit="10"/>
<path d="M1447.99 331.641C1374.89 298.222 1298.1 303.328 1226.52 346.366C1156.9 388.893 1115.62 460.26 1075.6 511.16C958.81 659.714 920.116 789.928 861.043 806.195C817.156 818.262 778.405 836.708 746.49 818.82C702.574 794.207 700.931 792.506 666.485 773.635C625.042 716.196 504.059 779.19 436.287 814.169C370.683 847.925 367.454 853.507 322.825 833.439C259.068 804.76 231.867 775.947 163.178 731.107C112.529 697.474 59.7337 675.813 6.07703 666.652" stroke="#275C00" stroke-width="1.54298" stroke-miterlimit="10"/>
<path d="M1448 309.683C1377.16 275.869 1302.5 280.133 1232.96 321.963C1163.92 364.278 1124.86 436.442 1082.49 489.415C970.975 628.852 932.718 746.521 873.66 765.18C822.747 781.234 780.388 806.697 741.287 795.56C690.869 781.207 686.404 786.842 646.736 771.639C603.256 720.526 489.329 776.343 425.63 807.043C364.07 836.679 360.84 840.214 313.986 813.847C249.982 777.911 224.162 752.156 160.609 709.867C110.575 675.854 58.1868 654.777 4.96205 647.246" stroke="#275C00" stroke-width="1.54298" stroke-miterlimit="10"/>
<path d="M1448 287.298C1379.45 253.156 1306.92 256.622 1239.44 297.265C1170.99 339.394 1134.19 412.355 1089.43 467.375C983.238 597.908 945.417 703.669 886.141 723.87C828.348 743.565 781.61 759.726 736.138 772.032C679.989 787.236 671.93 780.936 627.04 769.374C581.451 724.428 474.593 773.095 414.836 799.622C357.32 825.139 354.091 826.787 305.011 793.961C240.89 751.061 216.351 727.963 157.976 688.306C108.554 653.926 56.5666 633.431 3.78367 627.519" stroke="#275C00" stroke-width="1.54298" stroke-miterlimit="10"/>
<path d="M1448 264.634C1393.84 236.008 1320.71 226.359 1245.89 272.262C1177.97 313.939 1143.48 388.017 1096.34 445.031C995.573 566.872 958.145 661.124 898.694 682.255C833.875 705.273 782.323 727.786 730.945 748.199C669.413 772.679 656.031 789.769 607.3 766.805C556.81 743.016 459.858 769.463 404.116 791.896C350.643 813.319 347.385 813.16 296.109 773.795C231.668 724.171 208.597 703.412 155.27 666.466C122.119 643.502 72.1082 613.467 2.5327 607.513" stroke="#275C00" stroke-width="1.54298" stroke-miterlimit="10"/>
<path d="M1448 241.568C1392.57 211.374 1322.42 203.745 1252.35 246.884C1185.01 288.348 1152.81 363.383 1103.25 422.31C1007.98 535.62 971.092 618.628 911.233 640.264C839.374 666.259 782.905 695.31 725.766 723.99C658.693 757.667 641.95 783.289 587.575 763.86C535.746 745.254 445.137 765.667 393.38 783.794C343.923 801.124 340.548 799.53 287.192 753.228C222.431 697.065 200.873 678.379 152.637 644.251C119.966 621.127 70.6971 591.092 1.35433 587.105" stroke="#275C00" stroke-width="1.54298" stroke-miterlimit="10"/>
<path d="M1448 218.236C1391.27 186.341 1324.12 180.865 1258.81 221.213C1192.06 262.465 1162.16 338.483 1110.16 399.298C1020.44 504.234 984.042 576.106 923.791 597.981C844.818 626.66 783.418 662.463 720.592 699.489C647.86 742.335 627.858 775.906 567.854 760.622C514.614 747.067 430.42 761.446 382.664 775.401C337.308 788.69 333.715 785.634 278.293 732.368C213.125 669.773 193.167 652.975 150.008 621.743C117.802 598.433 69.3047 568.292 0.180096 566.431" stroke="#275C00" stroke-width="1.54298" stroke-miterlimit="10"/>
<path d="M1448 194.543C1390.06 161.133 1325.81 157.651 1265.27 195.208C1199.1 236.274 1171.55 313.355 1117.07 375.95C1032.95 472.647 998.036 546.353 936.33 555.363C848.847 568.148 783.883 629.255 715.413 674.653C636.964 726.643 610.679 794.262 548.129 757.05C495.879 725.872 415.757 757.05 371.928 766.672C330.646 775.842 326.835 771.509 269.376 711.2C203.757 642.279 185.487 627.129 147.375 598.901C115.65 575.378 67.8937 545.21 -0.998161 545.396" stroke="#275C00" stroke-width="1.54298" stroke-miterlimit="10"/>
<path d="M1448 170.096C1388.8 135.064 1327.51 133.735 1271.71 168.289C1206.14 209.168 1180.96 287.419 1123.98 351.689C1045.43 440.279 1011 500.987 948.883 511.831C854.331 528.39 784.29 595.106 710.22 648.903C625.996 710.036 597.674 782.094 528.39 752.564C473.433 729.121 400.992 751.554 361.208 757.029C323.983 762.159 319.838 756.577 260.474 689.092C194.331 613.924 177.806 600.289 144.728 575.144C113.496 551.382 66.4825 521.241 -2.19122 523.474" stroke="#275C00" stroke-width="1.54298" stroke-miterlimit="10"/>
<path d="M1448 144.102C1387.54 107.448 1329.22 108.166 1278.17 140.115C1213.17 180.809 1190.41 260.335 1130.88 326.173C1058.06 406.736 1023.97 454.367 961.418 467.045C859.768 487.645 784.665 559.676 705.038 621.872C614.966 692.229 584.302 767.21 508.661 746.797C451.144 731.275 386.296 744.937 350.469 746.133C317.332 747.249 312.808 740.445 251.553 665.729C184.858 584.369 170.093 572.089 142.091 550.107C111.354 526.026 64.995 495.991 -3.37314 500.27" stroke="#275C00" stroke-width="1.54298" stroke-miterlimit="10"/>
<path d="M1448 117.644C1386.28 79.3689 1330.93 82.1864 1284.63 111.318C1220.21 151.852 1199.91 232.814 1137.79 300.034C1070.66 372.703 1036.99 407.176 973.972 421.636C865.281 446.568 785.014 523.649 699.859 594.245C603.853 673.798 570.6 750.613 488.936 740.433C429.005 732.964 371.59 737.775 339.748 734.612C310.713 731.768 305.738 723.794 242.65 641.743C175.315 554.216 162.529 543.052 139.458 524.446C109.245 499.967 63.6712 470.091 -4.55152 476.444" stroke="#275C00" stroke-width="1.54298" stroke-miterlimit="10"/>
<path d="M1448 88.8618C1385.01 48.9923 1332.67 54.0424 1291.08 80.2235C1227.3 120.837 1209.48 203.208 1144.7 271.597C1083.29 336.452 1050.02 357.716 986.511 373.929C870.838 403.459 785.334 485.298 694.739 564.32C592.914 653.069 556.271 719.652 469.269 731.772C407.272 740.384 356.956 728.317 329.071 720.795C304.094 714.043 298.669 704.847 233.791 615.486C165.802 521.766 154.979 511.825 136.883 496.542C107.238 471.477 62.3182 441.947 -5.67174 450.346" stroke="#275C00" stroke-width="1.54298" stroke-miterlimit="10"/>
<path d="M1447.99 60.3672C1383.75 18.8763 1334.37 25.9997 1297.52 49.3898C1234.33 89.8176 1219.13 174.155 1151.61 243.422C1095.92 300.542 1063.08 308.542 999.059 326.483C876.419 360.851 785.634 447.235 689.482 534.629C581.708 632.629 541.618 704.739 449.466 723.345C385.462 736.21 342.158 719.279 318.287 707.238C297.355 696.606 291.434 686.24 224.826 589.463C156.109 489.63 147.352 480.673 134.173 468.845C105.196 442.85 60.8442 414.064 -6.92759 424.51" stroke="#275C00" stroke-width="1.54298" stroke-miterlimit="10"/>
<path d="M1448 31.845C1382.54 -11.2407 1335.99 -2.07069 1303.99 18.5552C1241.44 58.7969 1228.9 145.526 1158.52 215.245C1108.57 264.736 1076.16 259.367 1011.6 279.036C882.067 318.507 785.93 409.277 684.309 504.964C570.585 612.186 526.931 689.932 429.746 714.944C363.488 731.981 327.383 710.372 307.557 693.68C290.639 679.433 284.282 667.658 215.914 563.439C146.455 457.466 139.836 449.413 131.545 441.173C103.514 413.291 59.4527 386.153 -8.10085 398.645" stroke="#275C00" stroke-width="1.54298" stroke-miterlimit="10"/>
</svg>
