<svg width="21" height="20" viewBox="0 0 21 20" fill="none" xmlns="http://www.w3.org/2000/svg">
<path d="M13.5 19V13.6C13.5 13.0399 13.5 12.7599 13.391 12.546C13.2951 12.3578 13.1422 12.2049 12.954 12.109C12.7401 12 12.4601 12 11.9 12H9.1C8.53995 12 8.25992 12 8.04601 12.109C7.85785 12.2049 7.70487 12.3578 7.60899 12.546C7.5 12.7599 7.5 13.0399 7.5 13.6V19M1.5 5C1.5 6.65685 2.84315 8 4.5 8C6.15685 8 7.5 6.65685 7.5 5C7.5 6.65685 8.84315 8 10.5 8C12.1569 8 13.5 6.65685 13.5 5C13.5 6.65685 14.8431 8 16.5 8C18.1569 8 19.5 6.65685 19.5 5M4.7 19H16.3C17.4201 19 17.9802 19 18.408 18.782C18.7843 18.5903 19.0903 18.2843 19.282 17.908C19.5 17.4802 19.5 16.9201 19.5 15.8V4.2C19.5 3.0799 19.5 2.51984 19.282 2.09202C19.0903 1.71569 18.7843 1.40973 18.408 1.21799C17.9802 1 17.4201 1 16.3 1H4.7C3.5799 1 3.01984 1 2.59202 1.21799C2.21569 1.40973 1.90973 1.71569 1.71799 2.09202C1.5 2.51984 1.5 3.07989 1.5 4.2V15.8C1.5 16.9201 1.5 17.4802 1.71799 17.908C1.90973 18.2843 2.21569 18.5903 2.59202 18.782C3.01984 19 3.57989 19 4.7 19Z" stroke="#5CBD15" stroke-width="2" stroke-linecap="round" stroke-linejoin="round"/>
</svg>
