<svg width="41" height="22" viewBox="0 0 41 22" fill="none" xmlns="http://www.w3.org/2000/svg">
<path d="M0 11C0 4.92487 4.92487 0 11 0H30C36.0751 0 41 4.92487 41 11C41 17.0751 36.0751 22 30 22H11C4.92487 22 0 17.0751 0 11Z" fill="#DBF5D4"/>
<path d="M14.6443 5.6V11.744L14.2843 11.18L10.4563 5.6H9.13633V14H10.4803V7.88L10.8043 8.408L14.6563 14H15.9883V5.6H14.6443ZM20.245 7.796C19.357 7.796 18.637 8.096 18.097 8.696C17.557 9.284 17.281 10.052 17.281 10.976C17.281 11.924 17.557 12.692 18.097 13.268C18.649 13.844 19.369 14.132 20.245 14.132C21.649 14.132 22.597 13.4 22.981 12.14H21.733C21.505 12.716 21.025 13.004 20.281 13.004C19.333 13.004 18.661 12.38 18.601 11.408H23.029V10.916C23.029 8.9 21.913 7.796 20.245 7.796ZM20.233 8.912C21.133 8.912 21.733 9.5 21.745 10.412H18.613C18.697 9.536 19.321 8.912 20.233 8.912ZM31.2347 7.928L30.1307 11.9L30.0107 12.5L29.8787 11.9L28.6667 7.928H27.5627L26.3507 11.9L26.2187 12.5L26.0987 11.9L24.9947 7.928H23.6267L25.5107 14H26.7707L28.1027 10.016L29.4107 14H30.7187L32.6027 7.928H31.2347Z" fill="#2D9803"/>
</svg>
