<svg width="32" height="32" viewBox="0 0 32 32" fill="none" xmlns="http://www.w3.org/2000/svg">
<path d="M0 16C0 7.16344 7.16344 0 16 0C24.8366 0 32 7.16344 32 16C32 24.8366 24.8366 32 16 32C7.16344 32 0 24.8366 0 16Z" fill="#F2F4F7"/>
<path d="M14 22H11.3333C10.9797 22 10.6406 21.8595 10.3905 21.6095C10.1405 21.3594 10 21.0203 10 20.6667V11.3333C10 10.9797 10.1405 10.6406 10.3905 10.3905C10.6406 10.1405 10.9797 10 11.3333 10H14M18.6667 19.3333L22 16M22 16L18.6667 12.6667M22 16H14" stroke="#475467" stroke-width="1.33333" stroke-linecap="round" stroke-linejoin="round"/>
</svg>
