<svg width="150" height="44" viewBox="0 0 150 44" fill="none" xmlns="http://www.w3.org/2000/svg">
<rect x="1.05002" y="0.5" width="147.5" height="43" rx="4.5" fill="black"/>
<path d="M75.4996 23.9262C72.9124 23.9262 70.8037 25.8941 70.8037 28.6045C70.8037 31.2984 72.9124 33.2828 75.4996 33.2828C78.0879 33.2828 80.1966 31.2984 80.1966 28.6045C80.1955 25.8941 78.0868 23.9262 75.4996 23.9262ZM75.4996 31.4414C74.0817 31.4414 72.8596 30.2721 72.8596 28.6056C72.8596 26.9215 74.0828 25.7698 75.4996 25.7698C76.9175 25.7698 78.1396 26.9215 78.1396 28.6056C78.1396 30.271 76.9175 31.4414 75.4996 31.4414ZM65.2542 23.9262C62.667 23.9262 60.5583 25.8941 60.5583 28.6045C60.5583 31.2984 62.667 33.2828 65.2542 33.2828C67.8425 33.2828 69.9512 31.2984 69.9512 28.6045C69.9512 25.8941 67.8425 23.9262 65.2542 23.9262ZM65.2542 31.4414C63.8363 31.4414 62.6142 30.2721 62.6142 28.6056C62.6142 26.9215 63.8374 25.7698 65.2542 25.7698C66.6721 25.7698 67.8942 26.9215 67.8942 28.6056C67.8953 30.271 66.6721 31.4414 65.2542 31.4414ZM53.0684 25.3628V27.3472H57.8182C57.6763 28.4637 57.3045 29.2788 56.7369 29.8453C56.0461 30.5361 54.9648 31.2984 53.0684 31.2984C50.1446 31.2984 47.8588 28.9411 47.8588 26.0173C47.8588 23.0935 50.1446 20.7362 53.0684 20.7362C54.6458 20.7362 55.7975 21.3566 56.6478 22.1541L58.0481 20.7538C56.8601 19.6197 55.2838 18.7518 53.0684 18.7518C49.0633 18.7518 45.6962 22.0122 45.6962 26.0173C45.6962 30.0224 49.0633 33.2828 53.0684 33.2828C55.2299 33.2828 56.8612 32.5733 58.1361 31.2445C59.4473 29.9333 59.8554 28.0897 59.8554 26.6014C59.8554 26.1416 59.8202 25.7159 59.7487 25.3617H53.0684V25.3628ZM102.907 26.9039C102.518 25.8589 101.33 23.9262 98.9021 23.9262C96.492 23.9262 94.4889 25.8226 94.4889 28.6045C94.4889 31.2269 96.4744 33.2828 99.132 33.2828C101.276 33.2828 102.517 31.9716 103.032 31.2093L101.437 30.1456C100.905 30.9255 100.178 31.4392 99.132 31.4392C98.087 31.4392 97.3423 30.9607 96.8638 30.0213L103.12 27.4341L102.907 26.9039ZM96.5272 28.4637C96.4744 26.6553 97.9275 25.7346 98.9736 25.7346C99.7887 25.7346 100.48 26.1427 100.711 26.7268L96.5272 28.4637ZM91.4419 33.0001H93.4967V19.249H91.4419V33.0001ZM88.0737 24.9723H88.0033C87.5424 24.4223 86.6558 23.9262 85.5404 23.9262C83.2007 23.9262 81.0568 25.9821 81.0568 28.6232C81.0568 31.2456 83.2007 33.2839 85.5404 33.2839C86.6569 33.2839 87.5424 32.7878 88.0033 32.2213H88.0737V32.8945C88.0737 34.6842 87.1167 35.6412 85.5756 35.6412C84.3172 35.6412 83.5373 34.7381 83.2183 33.9758L81.4286 34.7205C81.9423 35.9602 83.3063 37.4848 85.5756 37.4848C87.9857 37.4848 90.024 36.0669 90.024 32.6107V24.2111H88.0748V24.9723H88.0737ZM85.7175 31.4414C84.2996 31.4414 83.1127 30.2534 83.1127 28.6232C83.1127 26.9743 84.2996 25.7698 85.7175 25.7698C87.1167 25.7698 88.2156 26.9743 88.2156 28.6232C88.2156 30.2534 87.1167 31.4414 85.7175 31.4414ZM112.537 19.249H107.619V33.0001H109.67V27.7905H112.536C114.81 27.7905 117.048 26.1438 117.048 23.5203C117.048 20.8968 114.811 19.249 112.537 19.249ZM112.589 25.8765H109.67V21.163H112.589C114.124 21.163 114.995 22.4335 114.995 23.5203C114.995 24.5851 114.124 25.8765 112.589 25.8765ZM125.275 23.902C123.789 23.902 122.25 24.5565 121.613 26.0074L123.434 26.7675C123.824 26.0074 124.55 25.7588 125.31 25.7588C126.371 25.7588 127.45 26.3957 127.468 27.5276V27.6695C127.096 27.4572 126.3 27.1393 125.327 27.1393C123.364 27.1393 121.364 28.2184 121.364 30.2347C121.364 32.075 122.975 33.2597 124.779 33.2597C126.158 33.2597 126.919 32.6404 127.397 31.9144H127.467V32.9759H129.449V27.7036C129.45 25.2638 127.626 23.902 125.275 23.902ZM125.026 31.4381C124.355 31.4381 123.417 31.1015 123.417 30.2699C123.417 29.2084 124.585 28.8014 125.594 28.8014C126.495 28.8014 126.92 28.9961 127.468 29.2612C127.309 30.5361 126.212 31.4381 125.026 31.4381ZM136.667 24.2023L134.314 30.1643H134.244L131.802 24.2023H129.591L133.253 32.5348L131.165 37.1702H133.306L138.95 24.2023H136.667ZM118.181 33.0001H120.232V19.249H118.181V33.0001Z" fill="white"/>
<path d="M52.7099 11.2673C52.7099 12.1891 52.4371 12.9228 51.8904 13.4706C51.27 14.1218 50.4604 14.4474 49.466 14.4474C48.5134 14.4474 47.7027 14.1174 47.0372 13.4574C46.3706 12.7963 46.0373 11.9779 46.0373 11.0011C46.0373 10.0232 46.3706 9.20476 47.0372 8.54476C47.7027 7.88366 48.5134 7.55366 49.466 7.55366C49.939 7.55366 50.3911 7.64606 50.8201 7.82976C51.2502 8.01456 51.5945 8.25986 51.8519 8.56676L51.2722 9.14756C50.8355 8.62506 50.2338 8.36436 49.4649 8.36436C48.7697 8.36436 48.1691 8.60856 47.662 9.09696C47.1549 9.58536 46.9019 10.2201 46.9019 11C46.9019 11.7799 47.1549 12.4146 47.662 12.903C48.1691 13.3914 48.7697 13.6356 49.4649 13.6356C50.2019 13.6356 50.8168 13.3903 51.3085 12.8986C51.6275 12.5785 51.8123 12.133 51.8618 11.5621H49.4649V10.769H52.6626C52.6956 10.9417 52.7099 11.1078 52.7099 11.2673Z" fill="white"/>
<path d="M57.781 8.51072H54.7758V10.6029H57.4862V11.396H54.7758V13.4882H57.781V14.3H53.9277V7.70002H57.781V8.51072Z" fill="white"/>
<path d="M61.357 14.3H60.5089V8.51072H58.6653V7.70002H63.2006V8.51072H61.357V14.3Z" fill="white"/>
<path d="M66.4818 14.3V7.70002H67.3299V14.3H66.4818Z" fill="white"/>
<path d="M71.091 14.3H70.2429V8.51072H68.3993V7.70002H72.9346V8.51072H71.091V14.3Z" fill="white"/>
<path d="M81.5198 13.4475C80.8708 14.1141 80.0645 14.4474 79.0998 14.4474C78.1351 14.4474 77.3288 14.1141 76.6809 13.4475C76.0319 12.7809 75.7085 11.9647 75.7085 11C75.7085 10.0353 76.0319 9.21911 76.6809 8.55251C77.3288 7.88591 78.1351 7.55151 79.0998 7.55151C80.059 7.55151 80.8642 7.88701 81.5154 8.55691C82.1666 9.22681 82.4922 10.0408 82.4922 11C82.4922 11.9647 82.1677 12.7809 81.5198 13.4475ZM77.3068 12.8942C77.7952 13.3892 78.3925 13.6356 79.0998 13.6356C79.8071 13.6356 80.4055 13.3881 80.8928 12.8942C81.3812 12.3992 81.6265 11.7678 81.6265 11C81.6265 10.2322 81.3812 9.60081 80.8928 9.10581C80.4055 8.61081 79.8071 8.36441 79.0998 8.36441C78.3925 8.36441 77.7952 8.61191 77.3068 9.10581C76.8195 9.60081 76.5742 10.2322 76.5742 11C76.5742 11.7678 76.8195 12.3992 77.3068 12.8942Z" fill="white"/>
<path d="M83.6825 14.3V7.70002H84.7143L87.9219 12.8337H87.9582L87.9219 11.5621V7.70002H88.77V14.3H87.8845L84.5284 8.91663H84.4921L84.5284 10.1882V14.3H83.6825Z" fill="white"/>
<path d="M52.7099 11.2673C52.7099 12.1891 52.4371 12.9228 51.8904 13.4706C51.27 14.1218 50.4604 14.4474 49.466 14.4474C48.5134 14.4474 47.7027 14.1174 47.0372 13.4574C46.3706 12.7963 46.0373 11.9779 46.0373 11.0011C46.0373 10.0232 46.3706 9.20476 47.0372 8.54476C47.7027 7.88366 48.5134 7.55366 49.466 7.55366C49.939 7.55366 50.3911 7.64606 50.8201 7.82976C51.2502 8.01456 51.5945 8.25986 51.8519 8.56676L51.2722 9.14756C50.8355 8.62506 50.2338 8.36436 49.4649 8.36436C48.7697 8.36436 48.1691 8.60856 47.662 9.09696C47.1549 9.58536 46.9019 10.2201 46.9019 11C46.9019 11.7799 47.1549 12.4146 47.662 12.903C48.1691 13.3914 48.7697 13.6356 49.4649 13.6356C50.2019 13.6356 50.8168 13.3903 51.3085 12.8986C51.6275 12.5785 51.8123 12.133 51.8618 11.5621H49.4649V10.769H52.6626C52.6956 10.9417 52.7099 11.1078 52.7099 11.2673Z" stroke="white" stroke-width="0.22" stroke-miterlimit="10"/>
<path d="M57.781 8.51072H54.7758V10.6029H57.4862V11.396H54.7758V13.4882H57.781V14.3H53.9277V7.70002H57.781V8.51072Z" stroke="white" stroke-width="0.22" stroke-miterlimit="10"/>
<path d="M61.357 14.3H60.5089V8.51072H58.6653V7.70002H63.2006V8.51072H61.357V14.3Z" stroke="white" stroke-width="0.22" stroke-miterlimit="10"/>
<path d="M66.4818 14.3V7.70002H67.3299V14.3H66.4818Z" stroke="white" stroke-width="0.22" stroke-miterlimit="10"/>
<path d="M71.091 14.3H70.2429V8.51072H68.3993V7.70002H72.9346V8.51072H71.091V14.3Z" stroke="white" stroke-width="0.22" stroke-miterlimit="10"/>
<path d="M81.5198 13.4475C80.8708 14.1141 80.0645 14.4474 79.0998 14.4474C78.1351 14.4474 77.3288 14.1141 76.6809 13.4475C76.0319 12.7809 75.7085 11.9647 75.7085 11C75.7085 10.0353 76.0319 9.21911 76.6809 8.55251C77.3288 7.88591 78.1351 7.55151 79.0998 7.55151C80.059 7.55151 80.8642 7.88701 81.5154 8.55691C82.1666 9.22681 82.4922 10.0408 82.4922 11C82.4922 11.9647 82.1677 12.7809 81.5198 13.4475ZM77.3068 12.8942C77.7952 13.3892 78.3925 13.6356 79.0998 13.6356C79.8071 13.6356 80.4055 13.3881 80.8928 12.8942C81.3812 12.3992 81.6265 11.7678 81.6265 11C81.6265 10.2322 81.3812 9.60081 80.8928 9.10581C80.4055 8.61081 79.8071 8.36441 79.0998 8.36441C78.3925 8.36441 77.7952 8.61191 77.3068 9.10581C76.8195 9.60081 76.5742 10.2322 76.5742 11C76.5742 11.7678 76.8195 12.3992 77.3068 12.8942Z" stroke="white" stroke-width="0.22" stroke-miterlimit="10"/>
<path d="M83.6825 14.3V7.70002H84.7143L87.9219 12.8337H87.9582L87.9219 11.5621V7.70002H88.77V14.3H87.8845L84.5284 8.91663H84.4921L84.5284 10.1882V14.3H83.6825Z" stroke="white" stroke-width="0.22" stroke-miterlimit="10"/>
<g filter="url(#filter0_ii_4808_176633)">
<path d="M12.0296 8.29173C11.7095 8.63053 11.5203 9.15633 11.5203 9.83723V34.1648C11.5203 34.8468 11.7095 35.3715 12.0296 35.7103L12.111 35.7895L25.7389 22.1616V22.001V21.8404L12.111 8.21143L12.0296 8.29173Z" fill="url(#paint0_linear_4808_176633)"/>
<path d="M30.2808 26.7058L25.7389 22.1617V22.0011V21.8405L30.2819 17.2975L30.3842 17.3558L35.7665 20.4138C37.3032 21.2872 37.3032 22.7161 35.7665 23.5906L30.3842 26.6486L30.2808 26.7058Z" fill="url(#paint1_linear_4808_176633)"/>
<g filter="url(#filter1_i_4808_176633)">
<path d="M30.3842 26.6475L25.7378 22.0011L12.0296 35.7104C12.5356 36.2472 13.3727 36.3132 14.3154 35.7786L30.3842 26.6475Z" fill="url(#paint2_linear_4808_176633)"/>
</g>
<path d="M30.3842 17.3547L14.3154 8.22466C13.3727 7.68896 12.5356 7.75606 12.0296 8.29286L25.7389 22.0022L30.3842 17.3547Z" fill="url(#paint3_linear_4808_176633)"/>
</g>
<rect x="1.05002" y="0.5" width="147.5" height="43" rx="4.5" stroke="#A6A6A6"/>
<defs>
<filter id="filter0_ii_4808_176633" x="11.5203" y="7.85498" width="25.3987" height="28.2928" filterUnits="userSpaceOnUse" color-interpolation-filters="sRGB">
<feFlood flood-opacity="0" result="BackgroundImageFix"/>
<feBlend mode="normal" in="SourceGraphic" in2="BackgroundImageFix" result="shape"/>
<feColorMatrix in="SourceAlpha" type="matrix" values="0 0 0 0 0 0 0 0 0 0 0 0 0 0 0 0 0 0 127 0" result="hardAlpha"/>
<feOffset dy="-0.165"/>
<feComposite in2="hardAlpha" operator="arithmetic" k2="-1" k3="1"/>
<feColorMatrix type="matrix" values="0 0 0 0 0 0 0 0 0 0 0 0 0 0 0 0 0 0 0.12 0"/>
<feBlend mode="normal" in2="shape" result="effect1_innerShadow_4808_176633"/>
<feColorMatrix in="SourceAlpha" type="matrix" values="0 0 0 0 0 0 0 0 0 0 0 0 0 0 0 0 0 0 127 0" result="hardAlpha"/>
<feOffset dy="0.165"/>
<feComposite in2="hardAlpha" operator="arithmetic" k2="-1" k3="1"/>
<feColorMatrix type="matrix" values="0 0 0 0 1 0 0 0 0 1 0 0 0 0 1 0 0 0 0.25 0"/>
<feBlend mode="normal" in2="effect1_innerShadow_4808_176633" result="effect2_innerShadow_4808_176633"/>
</filter>
<filter id="filter1_i_4808_176633" x="12.0296" y="22.0011" width="18.3546" height="14.1467" filterUnits="userSpaceOnUse" color-interpolation-filters="sRGB">
<feFlood flood-opacity="0" result="BackgroundImageFix"/>
<feBlend mode="normal" in="SourceGraphic" in2="BackgroundImageFix" result="shape"/>
<feColorMatrix in="SourceAlpha" type="matrix" values="0 0 0 0 0 0 0 0 0 0 0 0 0 0 0 0 0 0 127 0" result="hardAlpha"/>
<feOffset dy="-0.165"/>
<feComposite in2="hardAlpha" operator="arithmetic" k2="-1" k3="1"/>
<feColorMatrix type="matrix" values="0 0 0 0 0 0 0 0 0 0 0 0 0 0 0 0 0 0 0.08 0"/>
<feBlend mode="normal" in2="shape" result="effect1_innerShadow_4808_176633"/>
</filter>
<linearGradient id="paint0_linear_4808_176633" x1="24.5309" y1="9.57983" x2="6.07071" y2="28.04" gradientUnits="userSpaceOnUse">
<stop stop-color="#00A0FF"/>
<stop offset="0.0066" stop-color="#00A1FF"/>
<stop offset="0.2601" stop-color="#00BEFF"/>
<stop offset="0.5122" stop-color="#00D2FF"/>
<stop offset="0.7604" stop-color="#00DFFF"/>
<stop offset="1" stop-color="#00E3FF"/>
</linearGradient>
<linearGradient id="paint1_linear_4808_176633" x1="37.7669" y1="22.0011" x2="11.1514" y2="22.0011" gradientUnits="userSpaceOnUse">
<stop stop-color="#FFE000"/>
<stop offset="0.4087" stop-color="#FFBD00"/>
<stop offset="0.7754" stop-color="#FFA500"/>
<stop offset="1" stop-color="#FF9C00"/>
</linearGradient>
<linearGradient id="paint2_linear_4808_176633" x1="27.8609" y1="24.5244" x2="2.82658" y2="49.5587" gradientUnits="userSpaceOnUse">
<stop stop-color="#FF3A44"/>
<stop offset="1" stop-color="#C31162"/>
</linearGradient>
<linearGradient id="paint3_linear_4808_176633" x1="8.57716" y1="0.194444" x2="19.7557" y2="11.373" gradientUnits="userSpaceOnUse">
<stop stop-color="#32A071"/>
<stop offset="0.0685" stop-color="#2DA771"/>
<stop offset="0.4762" stop-color="#15CF74"/>
<stop offset="0.8009" stop-color="#06E775"/>
<stop offset="1" stop-color="#00F076"/>
</linearGradient>
</defs>
</svg>
