<svg width="32" height="32" viewBox="0 0 32 32" fill="none" xmlns="http://www.w3.org/2000/svg">
<path d="M0 16C0 7.16344 7.16344 0 16 0C24.8366 0 32 7.16344 32 16C32 24.8366 24.8366 32 16 32C7.16344 32 0 24.8366 0 16Z" fill="#F2F4F7"/>
<path d="M13 13H13.0066M22.06 17.2734L17.28 22.0534C17.1561 22.1773 17.0091 22.2757 16.8472 22.3428C16.6853 22.4099 16.5118 22.4444 16.3366 22.4444C16.1614 22.4444 15.9879 22.4099 15.826 22.3428C15.6642 22.2757 15.5171 22.1773 15.3933 22.0534L9.66663 16.3334V9.66669H16.3333L22.06 15.3934C22.3083 15.6432 22.4477 15.9811 22.4477 16.3334C22.4477 16.6856 22.3083 17.0235 22.06 17.2734Z" stroke="#475467" stroke-width="1.33333" stroke-linecap="round" stroke-linejoin="round"/>
</svg>
