<svg width="13" height="14" viewBox="0 0 13 14" fill="none" xmlns="http://www.w3.org/2000/svg">
<path d="M4.80246 5.24996C4.9396 4.8601 5.2103 4.53136 5.5666 4.32195C5.9229 4.11255 6.34182 4.03601 6.74915 4.10587C7.15648 4.17574 7.52594 4.38752 7.79209 4.70368C8.05824 5.01985 8.20391 5.42001 8.20329 5.83329C8.20329 6.99996 6.45329 7.58329 6.45329 7.58329M6.49996 9.91663H6.50579M12.3333 6.99996C12.3333 10.2216 9.72162 12.8333 6.49996 12.8333C3.2783 12.8333 0.666626 10.2216 0.666626 6.99996C0.666626 3.7783 3.2783 1.16663 6.49996 1.16663C9.72162 1.16663 12.3333 3.7783 12.3333 6.99996Z" stroke="#98A2B3" stroke-width="1.33333" stroke-linecap="round" stroke-linejoin="round"/>
</svg>
