<svg width="57" height="56" viewBox="0 0 57 56" fill="none" xmlns="http://www.w3.org/2000/svg">
<path d="M4.66663 28C4.66663 14.7452 15.4118 4 28.6666 4C41.9215 4 52.6666 14.7452 52.6666 28C52.6666 41.2548 41.9215 52 28.6666 52C15.4118 52 4.66663 41.2548 4.66663 28Z" fill="#CAF2B8"/>
<path d="M37.6666 31.9999V23.9999C37.6663 23.6492 37.5737 23.3047 37.3982 23.0011C37.2226 22.6974 36.9704 22.4453 36.6666 22.2699L29.6666 18.2699C29.3626 18.0944 29.0177 18.002 28.6666 18.002C28.3156 18.002 27.9707 18.0944 27.6666 18.2699L20.6666 22.2699C20.3629 22.4453 20.1106 22.6974 19.9351 23.0011C19.7596 23.3047 19.667 23.6492 19.6666 23.9999V31.9999C19.667 32.3506 19.7596 32.6951 19.9351 32.9987C20.1106 33.3024 20.3629 33.5545 20.6666 33.7299L27.6666 37.7299C27.9707 37.9054 28.3156 37.9979 28.6666 37.9979C29.0177 37.9979 29.3626 37.9054 29.6666 37.7299L36.6666 33.7299C36.9704 33.5545 37.2226 33.3024 37.3982 32.9987C37.5737 32.6951 37.6663 32.3506 37.6666 31.9999Z" stroke="#5CBD15" stroke-width="2" stroke-linecap="round" stroke-linejoin="round"/>
<path d="M28.6666 48C17.6209 48 8.66663 39.0457 8.66663 28H0.666626C0.666626 43.464 13.2027 56 28.6666 56V48ZM48.6666 28C48.6666 39.0457 39.7123 48 28.6666 48V56C44.1306 56 56.6666 43.464 56.6666 28H48.6666ZM28.6666 8C39.7123 8 48.6666 16.9543 48.6666 28H56.6666C56.6666 12.536 44.1306 0 28.6666 0V8ZM28.6666 0C13.2027 0 0.666626 12.536 0.666626 28H8.66663C8.66663 16.9543 17.6209 8 28.6666 8V0Z" fill="#DBF5D4"/>
</svg>
