<svg width="28" height="31" viewBox="0 0 28 31" fill="none" xmlns="http://www.w3.org/2000/svg">
<path d="M7.33333 14.1504V8.81706C7.33333 7.04895 8.03571 5.35325 9.28596 4.10301C10.5362 2.85277 12.2319 2.15039 14 2.15039C15.7681 2.15039 17.4638 2.85277 18.714 4.10301C19.9643 5.35325 20.6667 7.04895 20.6667 8.81706V14.1504M4.66667 14.1504H23.3333C24.8061 14.1504 26 15.3443 26 16.8171V26.1504C26 27.6231 24.8061 28.8171 23.3333 28.8171H4.66667C3.19391 28.8171 2 27.6231 2 26.1504V16.8171C2 15.3443 3.19391 14.1504 4.66667 14.1504Z" stroke="white" stroke-width="2.70833" stroke-linecap="round" stroke-linejoin="round"/>
</svg>
