<svg width="44" height="22" viewBox="0 0 44 22" fill="none" xmlns="http://www.w3.org/2000/svg">
<g style="mix-blend-mode:multiply">
<path d="M0 11C0 4.92487 4.92487 0 11 0H33C39.0751 0 44 4.92487 44 11C44 17.0751 39.0751 22 33 22H11C4.92487 22 0 17.0751 0 11Z" fill="#F0F9FF"/>
<path d="M11.6105 5.444C10.8305 5.444 10.2185 5.672 9.76253 6.128C9.30653 6.572 9.07853 7.148 9.07853 7.856C9.07853 8.516 9.27053 9.032 9.64253 9.404C10.0265 9.776 10.6145 10.1 11.4185 10.376C12.6185 10.772 13.0625 11.132 13.0625 11.768C13.0625 12.488 12.5825 12.968 11.7305 12.968C10.7825 12.968 10.2545 12.44 10.2185 11.48H8.86253C8.89853 13.112 9.90653 14.156 11.7185 14.156C12.5105 14.156 13.1585 13.94 13.6625 13.496C14.1665 13.052 14.4185 12.44 14.4185 11.672C14.4185 11.048 14.2385 10.544 13.8665 10.172C13.5065 9.788 12.8945 9.44 12.0185 9.14C11.4185 8.912 10.9985 8.708 10.7705 8.528C10.5425 8.348 10.4345 8.096 10.4345 7.748C10.4345 7.064 10.8665 6.644 11.5745 6.644C12.2945 6.644 12.7745 7.1 12.7865 7.88H14.1545C14.0945 6.296 13.1465 5.444 11.6105 5.444ZM16.1356 8.684C15.5476 9.272 15.2596 10.04 15.2596 10.964C15.2596 11.888 15.5476 12.656 16.1356 13.244C16.7236 13.832 17.4676 14.132 18.3796 14.132C19.2916 14.132 20.0356 13.832 20.6236 13.244C21.2116 12.656 21.5116 11.888 21.5116 10.964C21.5116 10.04 21.2116 9.272 20.6236 8.684C20.0356 8.096 19.2916 7.796 18.3796 7.796C17.4676 7.796 16.7236 8.096 16.1356 8.684ZM19.6876 9.536C20.0236 9.908 20.1916 10.388 20.1916 10.964C20.1916 11.54 20.0236 12.02 19.6876 12.392C19.3636 12.764 18.9316 12.956 18.3916 12.956C17.8516 12.956 17.4196 12.764 17.0836 12.392C16.7476 12.02 16.5796 11.54 16.5796 10.964C16.5796 10.388 16.7476 9.908 17.0836 9.536C17.4196 9.164 17.8516 8.972 18.3916 8.972C18.9316 8.972 19.3636 9.164 19.6876 9.536ZM23.3309 8.684C22.7429 9.272 22.4549 10.04 22.4549 10.964C22.4549 11.888 22.7429 12.656 23.3309 13.244C23.9189 13.832 24.6629 14.132 25.5749 14.132C26.4869 14.132 27.2309 13.832 27.8189 13.244C28.4069 12.656 28.7069 11.888 28.7069 10.964C28.7069 10.04 28.4069 9.272 27.8189 8.684C27.2309 8.096 26.4869 7.796 25.5749 7.796C24.6629 7.796 23.9189 8.096 23.3309 8.684ZM26.8829 9.536C27.2189 9.908 27.3869 10.388 27.3869 10.964C27.3869 11.54 27.2189 12.02 26.8829 12.392C26.5589 12.764 26.1269 12.956 25.5869 12.956C25.0469 12.956 24.6149 12.764 24.2789 12.392C23.9429 12.02 23.7749 11.54 23.7749 10.964C23.7749 10.388 23.9429 9.908 24.2789 9.536C24.6149 9.164 25.0469 8.972 25.5869 8.972C26.1269 8.972 26.5589 9.164 26.8829 9.536ZM32.8573 7.796C32.0773 7.796 31.4893 8.18 31.1893 8.744L31.0933 7.928H29.9893V14H31.2613V10.772C31.2613 9.668 31.7773 9.044 32.5093 9.044C33.1693 9.044 33.5413 9.488 33.5413 10.316V14H34.8253V10.064C34.8253 8.684 34.1173 7.796 32.8573 7.796Z" fill="#026AA2"/>
</g>
</svg>
