<svg width="32" height="32" viewBox="0 0 32 32" fill="none" xmlns="http://www.w3.org/2000/svg">
<mask id="mask0_2195_21781" style="mask-type:alpha" maskUnits="userSpaceOnUse" x="0" y="0" width="32" height="32">
<path d="M0 0.065918H31.9341V31.9841H0V0.065918Z" fill="white"/>
</mask>
<g mask="url(#mask0_2195_21781)">
<path fill-rule="evenodd" clip-rule="evenodd" d="M31.9341 16.0331C31.9341 24.8512 24.7856 32 15.9672 32C7.1488 32 0 24.8512 0 16.0331C0 7.21472 7.1488 0.065918 15.9672 0.065918C24.7856 0.065918 31.9341 7.21472 31.9341 16.0331Z" fill="#43A747"/>
</g>
<path fill-rule="evenodd" clip-rule="evenodd" d="M20.07 16.0372C21.6884 14.0737 23.2172 12.5412 23.2172 10.0604C23.2172 8.54252 22.75 7.13452 21.9527 5.96999H21.9537C21.938 5.94732 21.9207 5.92492 21.9047 5.90226C21.7964 5.74839 21.6841 5.59746 21.5644 5.45239C21.5641 5.45186 21.5639 5.45132 21.5633 5.45079C21.562 5.44946 21.5609 5.44812 21.5596 5.44652C19.5007 2.87826 15.9553 0.703857 15.9553 0.703857C15.9553 0.703857 12.398 2.89852 10.346 5.48226C10.2356 5.61719 10.1311 5.75719 10.0308 5.90039C10.014 5.92359 9.99641 5.94679 9.97987 5.96999H9.98121C9.18387 7.13452 8.71667 8.54252 8.71667 10.0604C8.71667 12.5412 10.4641 14.3399 11.8636 16.0372C10.4156 17.7991 8.71667 19.5329 8.71667 22.0137C8.71667 23.5316 9.18387 24.9396 9.98121 26.1044H9.97987C9.99641 26.1276 10.014 26.1505 10.0308 26.1737C10.1311 26.3167 10.2356 26.4569 10.346 26.5921C12.398 29.1756 15.9553 31.3705 15.9553 31.3705C15.9553 31.3705 19.5007 29.1959 21.5596 26.6276C21.5609 26.6263 21.562 26.6247 21.5633 26.6233C21.5639 26.6228 21.5641 26.6223 21.5644 26.6217C21.6841 26.4767 21.7964 26.326 21.9047 26.1721C21.9207 26.1495 21.938 26.1271 21.9537 26.1044H21.9527C22.75 24.9396 23.2172 23.5316 23.2172 22.0137C23.2172 19.5329 21.4948 17.7265 20.07 16.0372Z" fill="#FFFFFE"/>
<path fill-rule="evenodd" clip-rule="evenodd" d="M19.5718 22.9239C19.5136 23.1935 19.431 23.4607 19.3171 23.7175C19.2035 23.9813 19.064 24.2007 18.879 24.4765L17.7323 26.1191C17.3544 26.6815 16.9811 27.2511 16.6512 27.8525C16.4872 28.1538 16.3286 28.4589 16.1944 28.7786C16.1275 28.9375 16.072 29.1039 16.0243 29.2706C16 29.3535 15.9886 29.4429 15.9715 29.5266C15.9664 29.5567 15.967 29.5879 15.967 29.6189C15.9667 29.5879 15.9672 29.5567 15.9622 29.5266C15.9451 29.4429 15.9339 29.3535 15.9094 29.2706C15.8616 29.1039 15.8062 28.9375 15.7392 28.7786C15.6054 28.4589 15.4462 28.1538 15.2824 27.8525C14.9526 27.2511 14.5792 26.6815 14.2016 26.1191L13.0547 24.4765C12.8696 24.2007 12.7299 23.9813 12.6166 23.7175C12.5027 23.4607 12.42 23.1935 12.3619 22.9239C12.3046 22.6538 12.2774 22.3791 12.2814 22.1055L12.2867 21.901L12.3059 21.7383L12.3414 21.5727L12.3928 21.4045C12.5526 20.9509 12.8718 20.4613 13.256 19.9818C13.6382 19.4989 14.0726 19.0106 14.519 18.5013C14.5779 18.4335 14.6227 18.3831 14.6907 18.2991C14.7608 18.2063 14.8371 18.1178 14.8992 18.0186C15.028 17.8242 15.1432 17.6186 15.2307 17.4013C15.4102 16.969 15.508 16.5013 15.5072 16.0325C15.5032 15.5639 15.408 15.0965 15.2267 14.6642C15.1379 14.4474 15.0227 14.2426 14.8944 14.0477C14.8288 13.9522 14.7555 13.8589 14.6864 13.769L14.5222 13.5757C14.0787 13.0591 13.6456 12.5621 13.2462 12.0749C12.8454 11.5871 12.5198 11.1183 12.3816 10.6906C12.3096 10.4663 12.2779 10.2589 12.2784 9.9682C12.2744 9.69433 12.3019 9.4194 12.359 9.14953C12.4176 8.87966 12.4992 8.61193 12.6142 8.35486C12.6422 8.2906 12.6726 8.22686 12.7051 8.16393C12.7398 8.097 12.7608 8.05433 12.8059 7.9794L12.9198 7.797L12.9758 7.70526L14.1982 5.95193C14.576 5.39033 14.9496 4.821 15.2803 4.21993C15.4448 3.91939 15.6038 3.61433 15.7387 3.29539L15.8326 3.05326L15.9096 2.80393C15.935 2.72126 15.9456 2.6314 15.963 2.54793C15.9672 2.5242 15.9659 2.49913 15.967 2.47459C15.9678 2.49913 15.9664 2.5242 15.971 2.54793C15.988 2.6314 15.9987 2.72126 16.024 2.80393L16.1011 3.05326L16.195 3.29539C16.3299 3.61433 16.4888 3.91939 16.6534 4.21993C16.984 4.821 17.3576 5.39033 17.7352 5.95193L18.9576 7.70526L19.0139 7.797L19.1278 7.9794C19.1728 8.05433 19.1939 8.097 19.2286 8.16393C19.2611 8.22686 19.2915 8.2906 19.3198 8.35486C19.4344 8.61193 19.516 8.87966 19.5747 9.14953C19.6318 9.4194 19.6592 9.69433 19.6552 9.9682C19.6558 10.2589 19.624 10.4663 19.552 10.6906C19.4136 11.1183 19.0883 11.5871 18.6872 12.0749C18.288 12.5621 17.8552 13.0591 17.4115 13.5757L17.2472 13.769C17.1782 13.8589 17.1048 13.9522 17.0392 14.0477C16.911 14.2426 16.7958 14.4474 16.707 14.6642C16.5256 15.0965 16.4302 15.5639 16.4264 16.0325C16.4256 16.5013 16.5235 16.969 16.703 17.4013C16.7904 17.6186 16.9056 17.8242 17.0347 18.0186C17.0966 18.1178 17.1728 18.2063 17.243 18.2991C17.311 18.3831 17.3558 18.4335 17.4147 18.5013C17.8611 19.0106 18.2955 19.4989 18.6776 19.9818C19.0619 20.4613 19.3811 20.9509 19.5408 21.4045L19.5923 21.5727L19.6278 21.7383L19.647 21.901L19.6523 22.1055C19.6563 22.3791 19.6291 22.6538 19.5718 22.9239ZM21.3664 21.5615C21.3547 21.4514 21.344 21.3394 21.3278 21.2301C21.3067 21.1239 21.287 21.0151 21.2616 20.9103C21.0494 20.0693 20.6272 19.4146 20.2195 18.8226C19.8035 18.2319 19.3576 17.7119 18.944 17.1981L18.7944 17.0154C18.7667 16.9727 18.7302 16.9365 18.7059 16.8919C18.6523 16.8066 18.6019 16.7189 18.5675 16.6245C18.4931 16.4381 18.4534 16.2367 18.4552 16.0351C18.455 15.8335 18.4934 15.6322 18.5683 15.4458C18.604 15.3514 18.6539 15.2639 18.7067 15.1778L18.7968 15.0533L18.9523 14.8605C19.3582 14.3445 19.796 13.8261 20.2104 13.2514C20.4182 12.9629 20.6259 12.6597 20.8182 12.3159C21.011 11.9743 21.1792 11.5773 21.2776 11.1469C21.3771 10.7231 21.3934 10.2533 21.3502 9.87566C21.3118 9.48046 21.2288 9.0898 21.1051 8.71539C20.9838 8.33966 20.812 7.98313 20.6091 7.65113C20.5584 7.56793 20.5054 7.4866 20.4499 7.40686C20.3976 7.33113 20.327 7.23406 20.2768 7.17166L20.091 6.9514L19.9968 6.8426L19.9155 6.75753C19.4432 6.25166 18.9694 5.78926 18.499 5.31486C18.0264 4.84446 17.5608 4.37193 17.1062 3.88953C16.8792 3.6482 16.6603 3.4002 16.4584 3.14073C16.2515 2.88313 16.0547 2.61753 15.967 2.28979C15.879 2.61753 15.6824 2.88313 15.4752 3.14073C15.2734 3.4002 15.0544 3.6482 14.8275 3.88953C14.3728 4.37193 13.9072 4.84446 13.4347 5.31486C12.9643 5.78926 12.4904 6.25166 12.0182 6.75753L11.9368 6.8426L11.8427 6.9514L11.6568 7.17166C11.6067 7.23406 11.536 7.33113 11.4838 7.40686C11.4283 7.4866 11.3752 7.56793 11.3246 7.65113C11.1216 7.98313 10.9499 8.33966 10.8286 8.71539C10.7048 9.0898 10.6219 9.48046 10.5835 9.87566C10.5403 10.2533 10.5566 10.7231 10.6563 11.1469C10.7544 11.5773 10.9227 11.9743 11.1155 12.3159C11.3078 12.6597 11.5155 12.9629 11.7232 13.2514C12.1376 13.8261 12.5755 14.3445 12.9814 14.8605L13.1368 15.0533L13.227 15.1778C13.2795 15.2639 13.3296 15.3514 13.3656 15.4458C13.4403 15.6322 13.4787 15.8335 13.4784 16.0351C13.4803 16.2367 13.4406 16.4381 13.3662 16.6245C13.3315 16.7189 13.2814 16.8066 13.2278 16.8919C13.2035 16.9365 13.167 16.9727 13.1392 17.0154L12.9896 17.1981C12.576 17.7119 12.1299 18.2319 11.7142 18.8226C11.3067 19.4146 10.8843 20.0693 10.672 20.9103C10.6467 21.0151 10.627 21.1239 10.6059 21.2301C10.5896 21.3394 10.579 21.4514 10.5672 21.5615C10.5622 21.6743 10.5614 21.7882 10.5603 21.9007C10.5659 22.0002 10.5686 22.0994 10.5806 22.1983C10.619 22.5941 10.7019 22.9847 10.8259 23.3597C10.9475 23.7351 11.1187 24.0925 11.3222 24.4242C11.5195 24.7554 11.783 25.073 12.0163 25.3183C12.4899 25.8247 12.9635 26.2855 13.4342 26.7602C13.907 27.2295 14.3723 27.7023 14.8267 28.1845C15.0534 28.4263 15.2731 28.6735 15.4739 28.9338C15.6808 29.1917 15.8784 29.4567 15.9654 29.7847C15.9651 29.7679 15.9662 29.7495 15.967 29.7319C15.9675 29.7495 15.9686 29.7679 15.9683 29.7847C16.0555 29.4567 16.2531 29.1917 16.4598 28.9338C16.6606 28.6735 16.8806 28.4263 17.107 28.1845C17.5614 27.7023 18.027 27.2295 18.4995 26.7602C18.9702 26.2855 19.4438 25.8247 19.9176 25.3183C20.1507 25.073 20.4144 24.7554 20.6115 24.4242C20.815 24.0925 20.9862 23.7351 21.1078 23.3597C21.2315 22.9847 21.3147 22.5941 21.3531 22.1983C21.3648 22.0994 21.3678 22.0002 21.3734 21.9007C21.3726 21.7882 21.3715 21.6743 21.3664 21.5615Z" fill="#43A747"/>
<path fill-rule="evenodd" clip-rule="evenodd" d="M15.9675 29.8715C15.9736 28.8592 13.6925 26.2421 12.804 24.9744C12.7979 24.9656 12.7915 24.9568 12.7853 24.948C12.7277 24.8683 12.6696 24.7805 12.6075 24.6803C12.6027 24.6725 12.576 24.6309 12.576 24.6309C12.1104 23.8581 11.864 22.9533 11.864 22.0139C11.864 20.8261 12.556 19.8053 13.6955 18.2648C13.8379 18.0723 13.9797 17.8805 14.1192 17.6883C14.812 16.7339 14.8243 15.3555 14.1307 14.4016C13.9968 14.2168 13.8589 14.0312 13.7195 13.8435C12.7653 12.5568 11.864 11.3416 11.864 10.0603C11.864 9.11947 12.1107 8.21387 12.5773 7.44053C12.5773 7.44053 12.6005 7.40507 12.6075 7.39387C12.6699 7.2936 12.7283 7.20507 12.7864 7.124C12.7923 7.11573 12.7981 7.10747 12.804 7.09947C13.6923 5.832 15.9747 3.27253 15.9675 2.2688C15.9747 3.27253 18.2221 5.81493 19.1123 7.0728C19.1163 7.07867 19.1339 7.10347 19.1389 7.1104C19.1979 7.1912 19.2595 7.28427 19.328 7.39493C19.3333 7.40373 19.3584 7.44293 19.3584 7.44293C19.8243 8.21573 20.0704 9.12053 20.0704 10.0603C20.0704 11.2813 19.4875 12.1232 18.2741 13.7619C18.124 13.9651 17.9715 14.1715 17.8179 14.3824C17.1147 15.3499 17.116 16.7483 17.8288 17.7064C17.9328 17.8464 18.0387 17.9869 18.1453 18.1288C19.1355 19.4448 20.0704 20.6877 20.0704 22.0139C20.0704 22.9544 19.8235 23.8608 19.3565 24.6344C19.3565 24.6344 19.3333 24.6704 19.328 24.6789C19.2595 24.7896 19.1979 24.8827 19.1389 24.9635C19.1339 24.9709 19.1163 24.9952 19.1123 25.0011C18.26 26.2056 15.9736 28.8592 15.9675 29.8715Z" fill="#FFFFFE"/>
<path fill-rule="evenodd" clip-rule="evenodd" d="M15.8963 12.5385L14.0557 10.1719C14.0288 10.1375 14.0288 10.0881 14.0557 10.0535L15.8963 7.68681C15.9325 7.63988 16.0016 7.63988 16.0379 7.68681L17.8784 10.0535C17.9053 10.0881 17.9053 10.1375 17.8784 10.1719L16.0379 12.5385C16.0016 12.5852 15.9325 12.5852 15.8963 12.5385Z" fill="#43A747"/>
<path fill-rule="evenodd" clip-rule="evenodd" d="M15.8963 24.3283L14.0557 21.9616C14.0288 21.9272 14.0288 21.8782 14.0557 21.8435L15.8963 19.4769C15.9325 19.4299 16.0016 19.4299 16.0379 19.4769L17.8784 21.8435C17.9053 21.8782 17.9053 21.9272 17.8784 21.9616L16.0379 24.3283C16.0016 24.3752 15.9325 24.3752 15.8963 24.3283Z" fill="#43A747"/>
</svg>
