<svg width="32" height="32" viewBox="0 0 32 32" fill="none" xmlns="http://www.w3.org/2000/svg">
<path d="M0 16C0 7.16344 7.16344 0 16 0C24.8366 0 32 7.16344 32 16C32 24.8366 24.8366 32 16 32C7.16344 32 0 24.8366 0 16Z" fill="#F2F4F7"/>
<path d="M23.3333 10.6667V14.6667M23.3333 14.6667H19.3333M23.3333 14.6667L20.24 11.76C19.5235 11.0432 18.637 10.5195 17.6634 10.2379C16.6898 9.95624 15.6607 9.92584 14.6721 10.1495C13.6836 10.3732 12.7678 10.8436 12.0103 11.517C11.2527 12.1903 10.6781 13.0445 10.34 14M8.66663 21.3333V17.3333M8.66663 17.3333H12.6666M8.66663 17.3333L11.76 20.24C12.4765 20.9569 13.3629 21.4805 14.3365 21.7622C15.3101 22.0438 16.3392 22.0742 17.3278 21.8505C18.3163 21.6268 19.2321 21.1564 19.9896 20.4831C20.7472 19.8097 21.3218 18.9555 21.66 18" stroke="#475467" stroke-width="1.33333" stroke-linecap="round" stroke-linejoin="round"/>
</svg>
