<svg width="32" height="32" viewBox="0 0 32 32" fill="none" xmlns="http://www.w3.org/2000/svg">
<path d="M0 16C0 7.16344 7.16344 0 16 0C24.8366 0 32 7.16344 32 16C32 24.8366 24.8366 32 16 32C7.16344 32 0 24.8366 0 16Z" fill="#F2F4F7"/>
<path d="M17.4503 10.8149C17.4511 9.99634 15.782 9.33337 13.7255 9.33337C11.669 9.33337 10.0015 9.99708 10 10.8149M10 10.8149C10 11.6334 11.6676 12.2964 13.7255 12.2964C15.7835 12.2964 17.4511 11.6334 17.4511 10.8149L17.4511 16.563M10 10.8149V19.7038C10.0007 20.5223 11.6683 21.1853 13.7255 21.1853C14.7232 21.1853 15.6241 21.0275 16.2924 20.7734M10.0007 13.7779C10.0007 14.5964 11.6683 15.2593 13.7263 15.2593C15.7843 15.2593 17.4518 14.5964 17.4518 13.7779M16.3372 17.7965C15.6651 18.0594 14.7434 18.2224 13.7255 18.2224C11.6683 18.2224 10.0007 17.5594 10.0007 16.7409M21.6848 16.9765C22.994 18.278 22.994 20.3891 21.6848 21.6906C20.3756 22.9921 18.2521 22.9921 16.9429 21.6906C15.6338 20.3891 15.6338 18.278 16.9429 16.9765C18.2521 15.675 20.3756 15.675 21.6848 16.9765Z" stroke="#475467" stroke-width="1.33333" stroke-linecap="round" stroke-linejoin="round"/>
</svg>
