<svg width="56" height="57" viewBox="0 0 56 57" fill="none" xmlns="http://www.w3.org/2000/svg">
<path d="M4 28.5C4 15.2452 14.7452 4.5 28 4.5V4.5C41.2548 4.5 52 15.2452 52 28.5V28.5C52 41.7548 41.2548 52.5 28 52.5V52.5C14.7452 52.5 4 41.7548 4 28.5V28.5Z" fill="#CAF2B8"/>
<path d="M31 19.5H35C35.5304 19.5 36.0391 19.7107 36.4142 20.0858C36.7893 20.4609 37 20.9696 37 21.5V35.5C37 36.0304 36.7893 36.5391 36.4142 36.9142C36.0391 37.2893 35.5304 37.5 35 37.5H31M26 33.5L31 28.5M31 28.5L26 23.5M31 28.5H19" stroke="#5CBD15" stroke-width="2" stroke-linecap="round" stroke-linejoin="round"/>
<path d="M28 48.5C16.9543 48.5 8 39.5457 8 28.5H0C0 43.964 12.536 56.5 28 56.5V48.5ZM48 28.5C48 39.5457 39.0457 48.5 28 48.5V56.5C43.464 56.5 56 43.964 56 28.5H48ZM28 8.5C39.0457 8.5 48 17.4543 48 28.5H56C56 13.036 43.464 0.5 28 0.5V8.5ZM28 0.5C12.536 0.5 0 13.036 0 28.5H8C8 17.4543 16.9543 8.5 28 8.5V0.5Z" fill="#DBF5D4"/>
</svg>
