<svg width="62" height="20" viewBox="0 0 62 20" fill="none" xmlns="http://www.w3.org/2000/svg">
<path d="M26.9668 19.5932H22.0654L25.1311 0.348633H30.0321L26.9668 19.5932Z" fill="white"/>
<path d="M44.7349 0.819319C43.7681 0.429932 42.2348 0 40.3388 0C35.4986 0 32.0901 2.62041 32.0692 6.3668C32.029 9.13087 34.5095 10.6661 36.3648 11.5877C38.2611 12.5295 38.9057 13.1442 38.9057 13.9837C38.8864 15.2729 37.3734 15.8672 35.9622 15.8672C34.0054 15.8672 32.9569 15.5608 31.3635 14.8435L30.7181 14.536L30.0322 18.856C31.1818 19.3877 33.2997 19.8596 35.4986 19.8803C40.6414 19.8803 43.9895 17.3004 44.0292 13.308C44.0488 11.1173 42.7389 9.43863 39.915 8.06693C38.2008 7.18639 37.1509 6.59265 37.1509 5.6917C37.171 4.87265 38.0389 4.03374 39.974 4.03374C41.5674 3.99265 42.7381 4.38149 43.625 4.77061L44.0683 4.97496L44.7349 0.819319Z" fill="white"/>
<path d="M51.2482 12.7756C51.6519 11.67 53.205 7.39107 53.205 7.39107C53.1847 7.43216 53.6079 6.26509 53.8499 5.54863L54.1924 7.20686C54.1924 7.20686 55.1206 11.8134 55.3222 12.7756C54.5562 12.7756 52.2163 12.7756 51.2482 12.7756ZM57.2983 0.348633H53.5071C52.338 0.348633 51.4498 0.696388 50.9453 1.94537L43.665 19.593H48.8079C48.8079 19.593 49.6545 17.2177 49.8365 16.7062C50.4007 16.7062 55.4036 16.7062 56.1294 16.7062C56.2702 17.3818 56.7143 19.593 56.7143 19.593H61.2524L57.2983 0.348633Z" fill="white"/>
<path d="M17.9711 0.348633L13.1711 13.4716L12.6465 10.8101C11.7591 7.7391 8.97597 4.40251 5.87012 2.74346L10.2668 19.5728H15.4498L23.1538 0.348633H17.9711Z" fill="white"/>
<path d="M8.71327 0.348633H0.827501L0.746826 0.737476C6.89822 2.33448 10.9722 6.184 12.646 10.8109L10.9317 1.96632C10.6495 0.737204 9.78215 0.389177 8.71327 0.348633Z" fill="white"/>
</svg>
