<svg width="32" height="32" viewBox="0 0 32 32" fill="none" xmlns="http://www.w3.org/2000/svg">
<path d="M0 16C0 7.16344 7.16344 0 16 0V0C24.8366 0 32 7.16344 32 16V16C32 24.8366 24.8366 32 16 32V32C7.16344 32 0 24.8366 0 16V16Z" fill="#F2F4F7"/>
<path d="M19.3333 22V20.6667C19.3333 19.9594 19.0523 19.2811 18.5522 18.781C18.0521 18.281 17.3739 18 16.6666 18H11.3333C10.626 18 9.94777 18.281 9.44767 18.781C8.94758 19.2811 8.66663 19.9594 8.66663 20.6667V22M23.3333 22V20.6667C23.3329 20.0758 23.1362 19.5018 22.7742 19.0349C22.4122 18.5679 21.9054 18.2344 21.3333 18.0867M18.6666 10.0867C19.2402 10.2335 19.7487 10.5671 20.1117 11.0349C20.4748 11.5026 20.6719 12.0779 20.6719 12.67C20.6719 13.2621 20.4748 13.8374 20.1117 14.3051C19.7487 14.7729 19.2402 15.1065 18.6666 15.2533M16.6666 12.6667C16.6666 14.1394 15.4727 15.3333 14 15.3333C12.5272 15.3333 11.3333 14.1394 11.3333 12.6667C11.3333 11.1939 12.5272 10 14 10C15.4727 10 16.6666 11.1939 16.6666 12.6667Z" stroke="#475467" stroke-width="1.33333" stroke-linecap="round" stroke-linejoin="round"/>
</svg>
