<svg width="64" height="64" viewBox="0 0 64 64" fill="none" xmlns="http://www.w3.org/2000/svg">
<path fill-rule="evenodd" clip-rule="evenodd" d="M32 61.9998C47.464 61.9998 60 49.4637 60 33.9998C60 18.5358 47.464 5.99976 32 5.99976C16.536 5.99976 4 18.5358 4 33.9998C4 39.0215 5.32199 43.7345 7.63695 47.8097L4 61.9998L18.6297 58.6074C22.6028 60.7706 27.1578 61.9998 32 61.9998ZM32 57.6921C45.0849 57.6921 55.6923 47.0847 55.6923 33.9998C55.6923 20.9149 45.0849 10.3074 32 10.3074C18.9151 10.3074 8.30769 20.9149 8.30769 33.9998C8.30769 39.0519 9.889 43.7347 12.5837 47.5802L10.4615 55.5382L18.5599 53.5136C22.3787 56.1489 27.0091 57.6921 32 57.6921Z" fill="#BFC8D0"/>
<path d="M56 32.0002C56 45.2551 45.2548 56.0002 32 56.0002C26.9443 56.0002 22.2538 54.437 18.3853 51.7676L10.1818 53.8184L12.3315 45.757C9.60185 41.8616 8 37.118 8 32.0002C8 18.7454 18.7452 8.00024 32 8.00024C45.2548 8.00024 56 18.7454 56 32.0002Z" fill="url(#paint0_linear_5358_149632)"/>
<path fill-rule="evenodd" clip-rule="evenodd" d="M32 59.9998C47.464 59.9998 60 47.4637 60 31.9998C60 16.5358 47.464 3.99976 32 3.99976C16.536 3.99976 4 16.5358 4 31.9998C4 37.0215 5.32199 41.7345 7.63695 45.8097L4 59.9998L18.6297 56.6074C22.6028 58.7706 27.1578 59.9998 32 59.9998ZM32 55.6921C45.0849 55.6921 55.6923 45.0847 55.6923 31.9998C55.6923 18.9149 45.0849 8.30745 32 8.30745C18.9151 8.30745 8.30769 18.9149 8.30769 31.9998C8.30769 37.0519 9.889 41.7347 12.5837 45.5802L10.4615 53.5382L18.5599 51.5136C22.3787 54.1489 27.0091 55.6921 32 55.6921Z" fill="white"/>
<path d="M24.9991 19C24.3333 17.6629 23.3121 17.7812 22.2804 17.7812C20.4365 17.7812 17.5615 19.9898 17.5615 24.1002C17.5615 27.4688 19.0459 31.1563 24.0479 36.6725C28.8751 41.996 35.2178 44.7499 40.4834 44.6561C45.7491 44.5624 46.8324 40.0311 46.8324 38.5009C46.8324 37.8226 46.4115 37.4842 46.1216 37.3923C44.3272 36.5311 41.0177 34.9265 40.2647 34.6251C39.5116 34.3236 39.1185 34.7313 38.874 34.9532C38.1912 35.6039 36.8375 37.5218 36.374 37.9532C35.9106 38.3846 35.2196 38.1662 34.932 38.0032C33.8739 37.5785 31.0049 36.3024 28.718 34.0855C25.8897 31.3438 25.7237 30.4005 25.1908 29.5609C24.7645 28.8891 25.0774 28.477 25.2334 28.2969C25.8428 27.5938 26.6842 26.5082 27.0616 25.9688C27.4389 25.4293 27.1394 24.6103 26.9596 24.1002C26.1866 21.9063 25.5317 20.0697 24.9991 19Z" fill="white"/>
<defs>
<linearGradient id="paint0_linear_5358_149632" x1="53" y1="14.0002" x2="8" y2="56.0002" gradientUnits="userSpaceOnUse">
<stop stop-color="#5BD066"/>
<stop offset="1" stop-color="#27B43E"/>
</linearGradient>
</defs>
</svg>
