<svg width="24" height="24" viewBox="0 0 24 24" fill="none" xmlns="http://www.w3.org/2000/svg">
<path fill-rule="evenodd" clip-rule="evenodd" d="M11.9995 23.2502C17.7985 23.2502 22.4995 18.5492 22.4995 12.7502C22.4995 6.95125 17.7985 2.25024 11.9995 2.25024C6.20052 2.25024 1.49951 6.95125 1.49951 12.7502C1.49951 14.6334 1.99526 16.4008 2.86337 17.929L1.49951 23.2502L6.98566 21.9781C8.47554 22.7893 10.1837 23.2502 11.9995 23.2502ZM11.9995 21.6349C16.9063 21.6349 20.8841 17.6571 20.8841 12.7502C20.8841 7.84341 16.9063 3.86563 11.9995 3.86563C7.09267 3.86563 3.1149 7.84341 3.1149 12.7502C3.1149 14.6448 3.70789 16.4008 4.71839 17.8429L3.92259 20.8272L6.95946 20.068C8.39153 21.0562 10.1279 21.6349 11.9995 21.6349Z" fill="#BFC8D0"/>
<path d="M21.001 12C21.001 16.9706 16.9715 21 12.001 21C10.1051 21 8.34614 20.4138 6.89547 19.4127L3.81916 20.1818L4.6253 17.1588C3.60167 15.698 3.00098 13.9192 3.00098 12C3.00098 7.02944 7.03041 3 12.001 3C16.9715 3 21.001 7.02944 21.001 12Z" fill="url(#paint0_linear_5355_150002)"/>
<path fill-rule="evenodd" clip-rule="evenodd" d="M11.9995 22.5C17.7985 22.5 22.4995 17.799 22.4995 12C22.4995 6.20101 17.7985 1.5 11.9995 1.5C6.20052 1.5 1.49951 6.20101 1.49951 12C1.49951 13.8832 1.99526 15.6505 2.86337 17.1787L1.49951 22.5L6.98566 21.2278C8.47554 22.0391 10.1837 22.5 11.9995 22.5ZM11.9995 20.8846C16.9063 20.8846 20.8841 16.9068 20.8841 12C20.8841 7.09316 16.9063 3.11538 11.9995 3.11538C7.09267 3.11538 3.1149 7.09316 3.1149 12C3.1149 13.8945 3.70789 15.6506 4.71839 17.0927L3.92259 20.0769L6.95946 19.3177C8.39153 20.3059 10.1279 20.8846 11.9995 20.8846Z" fill="white"/>
<path d="M9.37502 7.12504C9.12537 6.6236 8.7424 6.668 8.35551 6.668C7.66407 6.668 6.58594 7.49621 6.58594 9.03759C6.58594 10.3008 7.14259 11.6836 9.01831 13.7522C10.8285 15.7485 13.207 16.7812 15.1817 16.7461C17.1563 16.7109 17.5625 15.0117 17.5625 14.4379C17.5625 14.1835 17.4047 14.0566 17.296 14.0221C16.6231 13.6992 15.382 13.0975 15.0996 12.9844C14.8172 12.8714 14.6698 13.0243 14.5781 13.1075C14.3221 13.3515 13.8144 14.0707 13.6406 14.2325C13.4668 14.3942 13.2077 14.3124 13.0999 14.2512C12.7031 14.092 11.6272 13.6134 10.7696 12.7821C9.70899 11.754 9.64675 11.4002 9.44693 11.0854C9.28707 10.8335 9.40437 10.6789 9.46291 10.6114C9.69142 10.3477 10.007 9.94061 10.1485 9.73832C10.29 9.53602 10.1776 9.22889 10.1102 9.03759C9.82033 8.21488 9.57474 7.52618 9.37502 7.12504Z" fill="white"/>
<defs>
<linearGradient id="paint0_linear_5355_150002" x1="19.876" y1="5.25" x2="3.00098" y2="21" gradientUnits="userSpaceOnUse">
<stop stop-color="#5BD066"/>
<stop offset="1" stop-color="#27B43E"/>
</linearGradient>
</defs>
</svg>
