<svg width="32" height="32" viewBox="0 0 32 32" fill="none" xmlns="http://www.w3.org/2000/svg">
<mask id="mask0_2195_21782" style="mask-type:alpha" maskUnits="userSpaceOnUse" x="0" y="0" width="32" height="32">
<path d="M0 0H31.9341V31.9181H0V0Z" fill="white"/>
</mask>
<g mask="url(#mask0_2195_21782)">
<path fill-rule="evenodd" clip-rule="evenodd" d="M31.9341 15.9672C31.9341 24.7853 24.7856 31.9341 15.9672 31.9341C7.1488 31.9341 0 24.7853 0 15.9672C0 7.1488 7.1488 0 15.9672 0C24.7856 0 31.9341 7.1488 31.9341 15.9672Z" fill="#E88136"/>
</g>
<path fill-rule="evenodd" clip-rule="evenodd" d="M22.6474 7.01661C22.5258 7.01448 22.4053 7.01176 22.2805 7.01176C20.7751 7.01176 19.641 6.99394 18.5866 7.66834C16.897 8.74914 17.2181 10.3841 17.2181 13.7563C19.0181 13.4409 21.8079 12.867 22.7197 11.8011C23.1919 11.2491 23.381 9.36541 23.3655 7.77448L18.305 12.5689L22.6474 7.01661Z" fill="#FFFFFE"/>
<path fill-rule="evenodd" clip-rule="evenodd" d="M22.6474 14.176C22.5258 14.1739 22.4053 14.1714 22.2805 14.1714C20.7751 14.1714 19.641 14.1533 18.5866 14.828C16.897 15.9085 17.2181 17.5437 17.2181 20.916C19.0181 20.6008 21.8079 20.0267 22.7197 18.9608C23.1919 18.4085 23.381 16.5251 23.3655 14.9341L18.305 19.7285L22.6474 14.176Z" fill="#FFFFFE"/>
<path fill-rule="evenodd" clip-rule="evenodd" d="M22.6474 21.3342C22.5258 21.3321 22.4053 21.3294 22.2805 21.3294C20.7751 21.3294 19.641 21.3116 18.5866 21.9857C16.897 23.0665 17.2181 24.7017 17.2181 28.0737C19.0181 27.7588 21.8079 27.1844 22.7197 26.1185C23.1919 25.5665 23.381 23.683 23.3655 22.0921L18.305 26.8865L22.6474 21.3342Z" fill="#FFFFFE"/>
<path fill-rule="evenodd" clip-rule="evenodd" d="M9.2864 7.01661C9.408 7.01448 9.52853 7.01176 9.65333 7.01176C11.1587 7.01176 12.2928 6.99394 13.3475 7.66834C15.0368 8.74914 14.7157 10.3841 14.7157 13.7563C12.9157 13.4409 10.1259 12.867 9.21413 11.8011C8.74186 11.2491 8.5528 9.36541 8.56853 7.77448L13.6288 12.5689L9.2864 7.01661Z" fill="#FFFFFE"/>
<path fill-rule="evenodd" clip-rule="evenodd" d="M9.2864 14.176C9.408 14.1739 9.52853 14.1714 9.65333 14.1714C11.1587 14.1714 12.2928 14.1533 13.3475 14.828C15.0368 15.9085 14.7157 17.5437 14.7157 20.916C12.9157 20.6008 10.1259 20.0267 9.21413 18.9608C8.74186 18.4085 8.5528 16.5251 8.56853 14.9341L13.6288 19.7285L9.2864 14.176Z" fill="#FFFFFE"/>
<path fill-rule="evenodd" clip-rule="evenodd" d="M9.2864 21.3342C9.408 21.3321 9.52853 21.3294 9.65333 21.3294C11.1587 21.3294 12.2928 21.3116 13.3475 21.9857C15.0368 23.0665 14.7157 24.7017 14.7157 28.0737C12.9157 27.7588 10.1259 27.1844 9.21413 26.1185C8.74186 25.5665 8.5528 23.683 8.56853 22.0921L13.6288 26.8865L9.2864 21.3342Z" fill="#FFFFFE"/>
<path fill-rule="evenodd" clip-rule="evenodd" d="M15.954 7.70605C15.6633 7.70605 15.4276 7.93832 15.4276 8.22499V30.7815C15.4276 31.0679 15.6633 31.3005 15.954 31.3005C16.2447 31.3005 16.4807 31.0679 16.4807 30.7815V8.22499C16.4807 7.93832 16.2447 7.70605 15.954 7.70605Z" fill="#FFFFFE"/>
<path fill-rule="evenodd" clip-rule="evenodd" d="M15.9555 7.0575L15.4755 0.634033C15.3955 0.711367 15.3152 0.788167 15.2344 0.869233C14.2574 1.84603 13.5096 2.57057 13.263 3.69243C12.8678 5.49057 13.7696 6.55537 15.9584 8.74417L15.9555 7.0575Z" fill="#FFFFFE"/>
<path fill-rule="evenodd" clip-rule="evenodd" d="M15.9586 7.0575L16.3688 0.634033C16.4488 0.711367 16.529 0.788167 16.6098 0.869233C17.5869 1.84603 18.3346 2.57057 18.5813 3.69243C18.9765 5.49057 18.1472 6.55537 15.9586 8.74417V7.0575Z" fill="#FFFFFE"/>
</svg>
