<svg width="28" height="33" viewBox="0 0 28 33" fill="none" xmlns="http://www.w3.org/2000/svg">
<path d="M26 13.8174C26 23.1507 14 31.1507 14 31.1507C14 31.1507 2 23.1507 2 13.8174C2 10.6348 3.26428 7.58254 5.51472 5.3321C7.76516 3.08166 10.8174 1.81738 14 1.81738C17.1826 1.81738 20.2348 3.08166 22.4853 5.3321C24.7357 7.58254 26 10.6348 26 13.8174Z" stroke="white" stroke-width="2.70833" stroke-linecap="round" stroke-linejoin="round"/>
<path d="M14 17.8174C16.2091 17.8174 18 16.0265 18 13.8174C18 11.6082 16.2091 9.81738 14 9.81738C11.7909 9.81738 10 11.6082 10 13.8174C10 16.0265 11.7909 17.8174 14 17.8174Z" stroke="white" stroke-width="2.70833" stroke-linecap="round" stroke-linejoin="round"/>
</svg>
